# 3ds Max Wavefront OBJ Exporter v0.99 - (c)2007 guruware
# File Created: 17.10.2025 12:38:02

mtllib PisoMadera.mtl

#
# object Box020
#

v  -67.1631 0.0000 66.9732
v  22.6043 0.0000 66.9732
v  22.6043 0.0000 41.9196
v  -67.1631 0.0000 41.9196
v  -67.1631 -0.3327 66.9732
v  -67.1631 -0.3327 41.9196
v  22.6043 -0.3327 41.9196
v  22.6043 -0.3327 66.9732
# 8 vertices

vn 0.0000 1.0000 -0.0000
vn 0.0000 -1.0000 -0.0000
vn 0.0000 0.0000 1.0000
vn 1.0000 0.0000 -0.0000
vn 0.0000 0.0000 -1.0000
vn -1.0000 0.0000 -0.0000
# 6 vertex normals

vt -3.3723 -0.5165 1.0000
vt 4.3723 -0.5165 1.0000
vt 4.3723 1.5165 1.0000
vt -3.3723 1.5165 1.0000
vt 4.3723 -0.5165 0.0000
vt 4.3723 1.5165 0.0000
vt -3.3723 1.5165 0.0000
vt -3.3723 -0.5165 0.0000
vt -3.3723 1.0000 -0.5165
vt -3.3723 0.0000 -0.5165
vt 4.3723 0.0000 -0.5165
vt 4.3723 1.0000 -0.5165
vt -0.5165 1.0000 4.3723
vt -0.5165 0.0000 4.3723
vt 1.5165 0.0000 4.3723
vt 1.5165 1.0000 4.3723
vt -3.3723 1.0000 1.5165
vt -3.3723 0.0000 1.5165
vt 4.3723 0.0000 1.5165
vt 4.3723 1.0000 1.5165
vt -0.5165 1.0000 -3.3723
vt -0.5165 0.0000 -3.3723
vt 1.5165 0.0000 -3.3723
vt 1.5165 1.0000 -3.3723
# 24 texture coords

o Box020
g Box020
usemtl Material__29
s 2
f 1/1/1 2/2/1 3/3/1 
f 3/3/1 4/4/1 1/1/1 
s 4
f 5/5/2 6/6/2 7/7/2 
f 7/7/2 8/8/2 5/5/2 
s 8
f 1/9/3 5/10/3 8/11/3 
f 8/11/3 2/12/3 1/9/3 
s 16
f 2/13/4 8/14/4 7/15/4 
f 7/15/4 3/16/4 2/13/4 
s 32
f 3/17/5 7/18/5 6/19/5 
f 6/19/5 4/20/5 3/17/5 
s 64
f 4/21/6 6/22/6 5/23/6 
f 5/23/6 1/24/6 4/21/6 
# 12 faces

#
# object Box021
#

v  -21.8394 0.0000 -43.4130
v  67.9280 0.0000 -43.4130
v  67.9280 0.0000 -66.2645
v  -21.8394 0.0000 -66.2645
v  -21.8394 -0.3327 -43.4130
v  -21.8394 -0.3327 -66.2645
v  67.9280 -0.3327 -66.2645
v  67.9280 -0.3327 -43.4130
# 8 vertices

vn 0.0000 1.0000 -0.0000
vn 0.0000 -1.0000 -0.0000
vn 0.0000 0.0000 1.0000
vn 1.0000 0.0000 -0.0000
vn 0.0000 0.0000 -1.0000
vn -1.0000 0.0000 -0.0000
# 6 vertex normals

vt -3.3723 -0.5165 1.0000
vt 4.3723 -0.5165 1.0000
vt 4.3723 1.5165 1.0000
vt -3.3723 1.5165 1.0000
vt 4.3723 -0.5165 0.0000
vt 4.3723 1.5165 0.0000
vt -3.3723 1.5165 0.0000
vt -3.3723 -0.5165 0.0000
vt -3.3723 1.0000 -0.5165
vt -3.3723 0.0000 -0.5165
vt 4.3723 0.0000 -0.5165
vt 4.3723 1.0000 -0.5165
vt -0.5165 1.0000 4.3723
vt -0.5165 0.0000 4.3723
vt 1.5165 0.0000 4.3723
vt 1.5165 1.0000 4.3723
vt -3.3723 1.0000 1.5165
vt -3.3723 0.0000 1.5165
vt 4.3723 0.0000 1.5165
vt 4.3723 1.0000 1.5165
vt -0.5165 1.0000 -3.3723
vt -0.5165 0.0000 -3.3723
vt 1.5165 0.0000 -3.3723
vt 1.5165 1.0000 -3.3723
# 24 texture coords

o Box021
g Box021
usemtl Material__29
s 2
f 9/25/7 10/26/7 11/27/7 
f 11/27/7 12/28/7 9/25/7 
s 4
f 13/29/8 14/30/8 15/31/8 
f 15/31/8 16/32/8 13/29/8 
s 8
f 9/33/9 13/34/9 16/35/9 
f 16/35/9 10/36/9 9/33/9 
s 16
f 10/37/10 16/38/10 15/39/10 
f 15/39/10 11/40/10 10/37/10 
s 32
f 11/41/11 15/42/11 14/43/11 
f 14/43/11 12/44/11 11/41/11 
s 64
f 12/45/12 14/46/12 13/47/12 
f 13/47/12 9/48/12 12/45/12 
# 12 faces

