# 3ds Max Wavefront OBJ Exporter v0.99 - (c)2007 guruware
# File Created: 27.10.2025 11:57:31

mtllib PisoPasillos.mtl

#
# object Box036
#

v  -45.7705 -0.3130 42.3532
v  -45.7705 -0.3130 -57.5368
v  -21.8986 -0.3130 -57.5368
v  -21.8986 -0.3130 42.3532
v  -45.7705 -0.0257 42.3532
v  -21.8986 -0.0257 42.3532
v  -21.8986 -0.0257 -57.5368
v  -45.7705 -0.0257 -57.5368
# 8 vertices

vn 0.0000 -1.0000 -0.0000
vn 0.0000 1.0000 -0.0000
vn 0.0000 0.0000 1.0000
vn 1.0000 0.0000 -0.0000
vn 0.0000 0.0000 -1.0000
vn -1.0000 0.0000 -0.0000
# 6 vertex normals

vt -1.7288 -4.5019 -1.5819
vt -1.7288 5.5019 -1.5819
vt 2.7288 5.5019 -1.5819
vt 2.7288 -4.5019 -1.5819
vt -1.7288 -4.5019 2.5819
vt 2.7288 -4.5019 2.5819
vt 2.7288 5.5019 2.5819
vt -1.7288 5.5019 2.5819
# 8 texture coords

o Box036
g Box036
usemtl Material__57
s 2
f 1/1/1 2/2/1 3/3/1 
f 3/3/1 4/4/1 1/1/1 
s 4
f 5/5/2 6/6/2 7/7/2 
f 7/7/2 8/8/2 5/5/2 
s 8
f 1/1/3 4/4/3 6/6/3 
f 6/6/3 5/5/3 1/1/3 
s 16
f 4/4/4 3/3/4 7/7/4 
f 7/7/4 6/6/4 4/4/4 
s 32
f 3/3/5 2/2/5 8/8/5 
f 8/8/5 7/7/5 3/3/5 
s 64
f 2/2/6 1/1/6 5/5/6 
f 5/5/6 8/8/6 2/2/6 
# 12 faces

#
# object Box037
#

v  21.5329 -0.3130 56.1434
v  21.5329 -0.3130 -43.7466
v  51.1586 -0.3130 -43.7466
v  51.1586 -0.3130 56.1434
v  21.5329 -0.0257 56.1434
v  51.1586 -0.0257 56.1434
v  51.1586 -0.0257 -43.7466
v  21.5329 -0.0257 -43.7466
# 8 vertices

vn 0.0000 -1.0000 -0.0000
vn 0.0000 1.0000 -0.0000
vn 0.0000 0.0000 1.0000
vn 1.0000 0.0000 -0.0000
vn 0.0000 0.0000 -1.0000
vn -1.0000 0.0000 -0.0000
# 6 vertex normals

vt -1.7288 -4.5019 -1.5819
vt -1.7288 5.5019 -1.5819
vt 2.7288 5.5019 -1.5819
vt 2.7288 -4.5019 -1.5819
vt -1.7288 -4.5019 2.5819
vt 2.7288 -4.5019 2.5819
vt 2.7288 5.5019 2.5819
vt -1.7288 5.5019 2.5819
# 8 texture coords

o Box037
g Box037
usemtl Material__57
s 2
f 9/9/7 10/10/7 11/11/7 
f 11/11/7 12/12/7 9/9/7 
s 4
f 13/13/8 14/14/8 15/15/8 
f 15/15/8 16/16/8 13/13/8 
s 8
f 9/9/9 12/12/9 14/14/9 
f 14/14/9 13/13/9 9/9/9 
s 16
f 12/12/10 11/11/10 15/15/10 
f 15/15/10 14/14/10 12/12/10 
s 32
f 11/11/11 10/10/11 16/16/11 
f 16/16/11 15/15/11 11/11/11 
s 64
f 10/10/12 9/9/12 13/13/12 
f 13/13/12 16/16/12 10/10/12 
# 12 faces

