# 3ds Max Wavefront OBJ Exporter v0.99 - (c)2007 guruware
# File Created: 10.11.2025 11:22:42

mtllib boton_v.mtl

#
# object Box063
#

v  -39.1680 11.1772 -16.0043
v  -38.9795 11.1772 -16.0039
v  -38.9851 11.1772 -13.6331
v  -39.1736 11.1772 -13.6336
v  -39.1680 13.0321 -16.0043
v  -39.1736 13.0321 -13.6336
v  -38.9851 13.0321 -13.6331
v  -38.9795 13.0321 -16.0039
# 8 vertices

vn -0.5760 -0.5774 -0.5787
vn 0.5787 -0.5774 -0.5760
vn 0.5760 -0.5774 0.5787
vn -0.5787 -0.5774 0.5760
vn -0.5760 0.5774 -0.5787
vn -0.5787 0.5774 0.5760
vn 0.5760 0.5774 0.5787
vn 0.5787 0.5774 -0.5760
# 8 vertex normals

vt 1.0000 0.0000 0.0000
vt 1.0000 1.0000 0.0000
vt 0.0000 1.0000 0.0000
vt 0.0000 0.0000 0.0000
# 4 texture coords

o Box063
g Box063
usemtl Material__171
s 2
f 1/1/1 2/2/2 3/3/3 4/4/4 
s 4
f 5/4/5 6/1/6 7/2/7 8/3/8 
s 8
f 1/4/1 4/1/4 6/2/6 5/3/5 
s 16
f 4/4/4 3/1/3 7/2/7 6/3/6 
s 32
f 3/4/3 2/1/2 8/2/8 7/3/7 
s 64
f 2/4/2 1/1/1 5/2/5 8/3/8 
# 6 polygons

