# 3ds Max Wavefront OBJ Exporter v0.99 - (c)2007 guruware
# File Created: 06.11.2025 12:32:07

mtllib Pintura2P.mtl

#
# object Box061
#

v  39.5040 6.6648 -21.0084
v  40.2775 6.6648 -20.9980
v  39.9428 6.6648 3.8521
v  39.1694 6.6648 3.8417
v  39.5040 23.3971 -21.0084
v  39.1694 23.3971 3.8417
v  39.9428 23.3971 3.8521
v  40.2775 23.3971 -20.9980
# 8 vertices

vn -0.5695 -0.5774 -0.5851
vn 0.5851 -0.5774 -0.5695
vn 0.5695 -0.5774 0.5851
vn -0.5851 -0.5774 0.5695
vn -0.5695 0.5774 -0.5851
vn -0.5851 0.5774 0.5695
vn 0.5695 0.5774 0.5851
vn 0.5851 0.5774 -0.5695
# 8 vertex normals

vt 1.0000 0.0000 0.0000
vt 1.0000 1.0000 0.0000
vt 0.0000 1.0000 0.0000
vt 0.0000 0.0000 0.0000
# 4 texture coords

o Box061
g Box061
usemtl Material__149
s 2
f 1/1/1 2/2/2 3/3/3 4/4/4 
s 4
f 5/4/5 6/1/6 7/2/7 8/3/8 
s 8
f 1/4/1 4/1/4 6/2/6 5/3/5 
s 16
f 4/4/4 3/1/3 7/2/7 6/3/6 
s 32
f 3/4/3 2/1/2 8/2/8 7/3/7 
s 64
f 2/4/2 1/1/1 5/2/5 8/3/8 
# 6 polygons

