# 3ds Max Wavefront OBJ Exporter v0.99 - (c)2007 guruware
# File Created: 17.10.2025 13:58:25

mtllib PisoPasillos.mtl

#
# object Box024
#

v  -45.8283 -0.1504 41.9500
v  -45.8283 -0.1504 -57.9500
v  -17.3283 -0.1504 -57.9500
v  -17.3283 -0.1504 41.9500
v  -45.8283 -0.1503 41.9500
v  -17.3283 -0.1503 41.9500
v  -17.3283 -0.1503 -57.9500
v  -45.8283 -0.1503 -57.9500
# 8 vertices

vn 0.0000 -1.0000 -0.0000
vn 0.0000 1.0000 -0.0000
vn 0.0000 0.0000 1.0000
vn 1.0000 0.0000 -0.0000
vn 0.0000 0.0000 -1.0000
vn -1.0000 0.0000 -0.0000
# 6 vertex normals

vt 1.9045 -1.7440 -1.7440
vt 1.9045 2.7440 -1.7440
vt -0.9045 2.7440 -1.7440
vt -0.9045 -1.7440 -1.7440
vt -0.9045 -1.7440 2.7440
vt 1.9045 -1.7440 2.7440
vt 1.9045 2.7440 2.7440
vt -0.9045 2.7440 2.7440
vt -1.7440 -1.7440 1.9045
vt 2.7440 -1.7440 1.9045
vt 2.7440 2.7440 1.9045
vt -1.7440 2.7440 1.9045
vt -1.7440 -1.7440 -0.9045
vt 2.7440 -1.7440 -0.9045
vt 2.7440 2.7440 -0.9045
vt -1.7440 2.7440 -0.9045
# 16 texture coords

o Box024
g Box024
usemtl Material__31
s 2
f 1/1/1 2/2/1 3/3/1 
f 3/3/1 4/4/1 1/1/1 
s 4
f 5/5/2 6/6/2 7/7/2 
f 7/7/2 8/8/2 5/5/2 
s 8
f 1/4/3 4/1/3 6/2/3 
f 6/2/3 5/3/3 1/4/3 
s 16
f 4/9/4 3/10/4 7/11/4 
f 7/11/4 6/12/4 4/9/4 
s 32
f 3/5/5 2/6/5 8/7/5 
f 8/7/5 7/8/5 3/5/5 
s 64
f 2/13/6 1/14/6 5/15/6 
f 5/15/6 8/16/6 2/13/6 
# 12 faces

#
# object Box025
#

v  22.5500 -0.1504 56.1605
v  22.5500 -0.1504 -43.7395
v  51.0500 -0.1504 -43.7395
v  51.0500 -0.1504 56.1605
v  22.5500 -0.1503 56.1605
v  51.0500 -0.1503 56.1605
v  51.0500 -0.1503 -43.7395
v  22.5500 -0.1503 -43.7395
# 8 vertices

vn 0.0000 -1.0000 -0.0000
vn 0.0000 1.0000 -0.0000
vn 0.0000 0.0000 1.0000
vn 1.0000 0.0000 -0.0000
vn 0.0000 0.0000 -1.0000
vn -1.0000 0.0000 -0.0000
# 6 vertex normals

vt 1.9045 -1.7440 -1.7440
vt 1.9045 2.7440 -1.7440
vt -0.9045 2.7440 -1.7440
vt -0.9045 -1.7440 -1.7440
vt -0.9045 -1.7440 2.7440
vt 1.9045 -1.7440 2.7440
vt 1.9045 2.7440 2.7440
vt -0.9045 2.7440 2.7440
vt -1.7440 -1.7440 1.9045
vt 2.7440 -1.7440 1.9045
vt 2.7440 2.7440 1.9045
vt -1.7440 2.7440 1.9045
vt -1.7440 -1.7440 -0.9045
vt 2.7440 -1.7440 -0.9045
vt 2.7440 2.7440 -0.9045
vt -1.7440 2.7440 -0.9045
# 16 texture coords

o Box025
g Box025
usemtl Material__31
s 2
f 9/17/7 10/18/7 11/19/7 
f 11/19/7 12/20/7 9/17/7 
s 4
f 13/21/8 14/22/8 15/23/8 
f 15/23/8 16/24/8 13/21/8 
s 8
f 9/20/9 12/17/9 14/18/9 
f 14/18/9 13/19/9 9/20/9 
s 16
f 12/25/10 11/26/10 15/27/10 
f 15/27/10 14/28/10 12/25/10 
s 32
f 11/21/11 10/22/11 16/23/11 
f 16/23/11 15/24/11 11/21/11 
s 64
f 10/29/12 9/30/12 13/31/12 
f 13/31/12 16/32/12 10/29/12 
# 12 faces

