# Blender v2.93.0 OBJ File: 'untitled.blend'
# www.blender.org
mtllib untitled.mtl
o Cylinder
v 0.000000 8.979354 -2.994441
v 0.000000 8.699256 3.496740
v 0.737466 8.555642 -2.887651
v 0.430627 8.520885 3.496740
v 0.850543 8.282648 -2.887651
v 0.608998 8.090258 3.496740
v 0.564271 7.525987 -3.441240
v 0.430627 7.659631 3.496740
v 0.000000 7.292258 -3.441240
v 0.000000 7.481259 3.496740
v -0.737466 8.555642 -2.887651
v -0.430627 8.520885 3.496740
v -0.850543 8.282648 -2.887651
v -0.608998 8.090258 3.496740
v 0.000000 9.344445 -1.147080
v 0.000000 9.346241 0.358051
v 0.000000 9.130457 2.064740
v 0.505870 8.872413 1.946585
v 0.569283 8.952179 1.093200
v 0.620696 9.016823 0.351040
v 0.895794 8.717566 -1.767588
v 0.855064 8.674688 -2.169794
v 1.006898 7.805480 1.623747
v 1.083436 7.805565 1.043155
v 1.218488 7.805161 -0.034709
v 1.198147 7.806915 -0.423936
v 1.017876 8.281625 -2.169794
v 0.851862 7.573047 1.623747
v 0.905887 7.539379 1.043155
v 1.001844 7.480361 -0.034709
v 0.985462 7.488053 -0.423936
v 0.758018 7.332239 -2.294160
v 0.000000 7.090258 2.294160
v 0.000000 6.938258 1.147080
v 0.000000 6.796508 -0.000000
v 0.000000 6.836070 -1.147080
v 0.000000 7.018258 -2.294160
v -0.564271 7.525987 -3.441240
v -0.430627 7.659631 3.496740
v -0.505870 8.872413 1.946585
v -0.569283 8.952179 1.093200
v -0.620696 9.016823 0.351040
v -0.895794 8.717566 -1.767588
v -0.855064 8.674688 -2.169794
v -1.006898 7.805480 1.623747
v -1.083436 7.805565 1.043155
v 1.000000 8.090258 2.294160
v 1.152000 8.090258 1.147080
v 1.293750 8.090258 -0.000000
v 1.076996 8.280107 -1.767588
v 0.707107 7.383151 2.294160
v 0.814587 7.275671 1.147080
v 0.914819 7.175438 -0.000000
v 0.886845 7.203413 -1.147080
v 4.830617 8.155302 -0.855608
v 4.939156 8.053386 -0.855608
v 4.898278 8.155429 -0.403106
v 4.987230 8.071904 -0.403106
v 4.936624 8.155402 -0.159365
v 4.840808 8.155852 -1.019011
v 5.014297 8.082469 -0.159365
v 4.947363 8.055799 -1.019011
v 3.912022 8.110761 -1.082377
v 3.909616 8.109367 -0.775615
v 3.934643 8.109621 0.531465
v 3.925590 8.109689 0.073882
v 3.952981 7.925156 0.531464
v 3.937179 7.857702 -1.082377
v 3.935241 7.851598 -0.775615
v 3.946591 7.898436 0.073882
v 2.964579 8.004684 -0.984324
v 2.933363 8.003515 0.478591
v 2.911161 7.721995 -0.596205
v 2.970114 8.003165 -0.596205
v 2.912536 8.003443 1.057530
v 2.870347 7.802231 1.057530
v 2.906703 7.728653 -0.984324
v 2.885049 7.773085 0.478591
v 0.126960 8.922406 -2.199162
v 0.099213 8.786825 -3.018375
v 0.798000 8.090258 -3.441240
v 1.072000 8.090258 -2.294160
v 0.139785 8.983939 -1.621062
v 1.254188 8.090258 -1.147080
v 2.914494 8.598240 -2.706627
v 3.077306 8.403280 -2.706627
v 2.796895 8.539193 -3.205538
v 2.909973 8.403789 -3.205538
v 2.955224 8.619507 -2.427094
v 3.136425 8.402528 -2.427094
v 2.047591 8.342453 -2.347373
v 2.106711 8.341317 -1.947874
v 1.880258 8.343218 -3.060399
v 1.884779 8.636464 -2.347373
v 1.767180 8.547418 -3.060399
v 1.925509 8.668536 -1.947874
v 3.146631 8.692778 -2.809168
v 3.198714 8.630411 -2.809168
v 3.109012 8.673889 -2.968768
v 3.145185 8.630573 -2.968768
v 3.159660 8.699581 -2.719746
v 3.217626 8.630170 -2.719746
v 0.000000 8.322244 -3.916298
v 0.033300 8.254297 -3.916298
v 0.047093 8.090258 -3.916298
v 0.033300 7.926219 -3.916298
v 0.000000 7.858272 -3.916298
v -1.218488 7.805161 -0.034709
v -1.198147 7.806915 -0.423936
v -1.017876 8.281625 -2.169794
v 0.000000 8.888258 -3.441240
v 0.564271 8.654529 -3.441240
v 0.758018 8.848276 -2.294160
v -0.851862 7.573047 1.623747
v -0.905887 7.539379 1.043155
v 0.886845 8.977102 -1.147080
v -1.001844 7.480361 -0.034709
v 0.000000 9.278218 -1.635598
v 0.000000 8.489257 -3.916298
v 0.282135 8.372393 -3.916298
v 0.399000 8.090258 -3.916298
v 0.282135 7.808123 -3.916298
v 0.000000 7.691258 -3.916298
v -0.985462 7.488053 -0.423936
v -0.758018 7.332239 -2.294160
v 0.000000 10.646782 -3.624513
v 0.000000 10.829685 -2.924231
v 0.000000 10.945646 -2.608669
v 0.126960 10.589834 -2.829233
v 0.099213 10.454253 -3.648446
v 0.139785 10.651367 -2.594134
v -1.000000 8.090258 2.294160
v -1.152000 8.090258 1.147080
v 0.000000 10.311379 -3.497774
v -1.293750 8.090258 -0.000000
v 0.126960 10.254432 -2.702494
v 0.139785 10.315965 -2.092401
v -1.076996 8.280107 -1.767588
v -0.707107 7.383151 2.294160
v 0.000000 10.610244 -2.106936
v 0.099213 10.118852 -3.521708
v -0.814587 7.275671 1.147080
v -0.914819 7.175438 -0.000000
v -0.886845 7.203413 -1.147080
v -4.830617 8.155302 -0.855608
v -4.939156 8.053386 -0.855608
v -4.898278 8.155429 -0.403106
v -4.987230 8.071904 -0.403106
v -4.936624 8.155402 -0.159365
v -4.840808 8.155852 -1.019011
v -5.014297 8.082469 -0.159365
v -4.947363 8.055799 -1.019011
v -3.912022 8.110761 -1.082377
v -3.909616 8.109367 -0.775615
v -3.934643 8.109621 0.531465
v -3.925590 8.109689 0.073882
v -3.952981 7.925156 0.531464
v -3.937179 7.857702 -1.082377
v -3.935241 7.851598 -0.775615
v -3.946591 7.898436 0.073882
v -2.964579 8.004684 -0.984324
v -2.933363 8.003515 0.478591
v -2.911161 7.721995 -0.596205
v -2.970114 8.003165 -0.596205
v -2.912536 8.003443 1.057530
v -2.870347 7.802231 1.057530
v -2.906703 7.728653 -0.984324
v -2.885049 7.773085 0.478591
v -0.126960 8.922406 -2.199162
v -0.099213 8.786825 -3.018375
v -0.798000 8.090258 -3.441240
v -1.072000 8.090258 -2.294160
v -0.139785 8.983939 -1.621062
v -1.254188 8.090258 -1.147080
v -2.914494 8.598240 -2.706627
v -3.077306 8.403280 -2.706627
v -2.796895 8.539193 -3.205538
v -2.909973 8.403789 -3.205538
v -2.955224 8.619507 -2.427094
v -3.136425 8.402528 -2.427094
v -2.047591 8.342453 -2.347373
v -2.106711 8.341317 -1.947874
v -1.880258 8.343218 -3.060399
v -1.884779 8.636464 -2.347373
v -1.767180 8.547418 -3.060399
v -1.925509 8.668536 -1.947874
v -3.146631 8.692778 -2.809168
v -3.198714 8.630411 -2.809168
v -3.109012 8.673889 -2.968768
v -3.145185 8.630573 -2.968768
v -3.159660 8.699581 -2.719746
v -3.217626 8.630170 -2.719746
v -0.033300 8.254297 -3.916298
v -0.047093 8.090258 -3.916298
v -0.033300 7.926219 -3.916298
v -0.564271 8.654529 -3.441240
v -0.758018 8.848276 -2.294160
v -0.886845 8.977102 -1.147080
v -0.282135 8.372393 -3.916298
v -0.399000 8.090258 -3.916298
v -0.282135 7.808123 -3.916298
v -0.126960 10.589834 -2.829233
v -0.099213 10.454253 -3.648446
v -0.139785 10.651367 -2.594134
v -0.126960 10.254432 -2.702494
v -0.139785 10.315965 -2.092401
v -0.099213 10.118852 -3.521708
v 0.707107 8.797364 2.294160
v 0.814587 8.904844 1.147080
v 0.914819 9.005076 -0.000000
v -0.707107 8.797364 2.294160
v -0.814587 8.904844 1.147080
v -0.914819 9.005076 -0.000000
v 0.000000 9.384007 0.000000
v 0.000000 9.090258 2.294160
v 0.000000 10.895985 0.562722
v 0.024116 10.680564 2.260131
v 0.569283 10.501922 1.297871
v -0.569283 10.501922 1.297871
v 0.505870 10.422155 2.151256
v 0.620696 10.566566 0.555710
v -0.505870 10.422155 2.151256
v -0.620696 10.566566 0.555710
v 0.000000 10.974367 0.838224
v 0.000000 10.901995 1.387389
v 0.000000 10.824182 1.938383
v 0.396221 10.700100 1.349888
v -0.396221 10.700100 1.349888
v 0.352086 10.644583 1.943844
v 0.432004 10.745092 0.833344
v -0.352086 10.644583 1.943844
v -0.432004 10.745092 0.833344
v -0.569283 9.727050 1.195536
v -0.505870 9.647285 2.174921
v 0.620696 9.791695 0.453375
v 0.000000 10.121113 0.460387
v 0.569283 9.727050 1.195536
v 0.505870 9.647285 2.174921
v -0.024116 9.904964 2.176355
v -0.620696 9.791695 0.453375
v 0.557907 8.648165 3.441240
v 0.000000 8.879257 3.441240
v 0.789000 8.090258 3.441240
v 0.557907 7.532351 3.441240
v 0.000000 7.301258 3.441240
v -0.789000 8.090258 3.441240
v -0.557907 8.648165 3.441240
v -0.557907 7.532351 3.441240
v -0.000000 8.699256 2.883740
v -0.000000 7.481259 2.883740
v 0.430627 8.520885 2.883740
v 0.608998 8.090258 2.883740
v 0.430627 7.659631 2.883740
v -0.608998 8.090258 2.883740
v -0.430627 8.520885 2.883740
v -0.430627 7.659631 2.883740
v 0.000000 8.616915 2.487968
v 0.000000 8.616915 3.541283
v 0.372403 8.462661 2.487968
v 0.526657 8.090258 2.487968
v 0.372403 7.717855 2.487968
v -0.000000 7.563601 2.487968
v -0.372403 7.717855 2.487968
v -0.526657 8.090258 2.487968
v -0.372403 8.462661 2.487968
v 0.526657 8.090258 3.541283
v 0.372403 8.462661 3.541283
v -0.526657 8.090258 3.541283
v -0.372403 7.717854 3.541283
v -0.372403 8.462661 3.541283
v 0.446116 8.536373 3.574092
v -0.000000 8.721161 3.574092
v 0.630903 8.090258 3.574092
v 0.446116 7.644142 3.574092
v -0.000000 7.459354 3.574092
v -0.630903 8.090258 3.574092
v -0.446116 8.536373 3.574092
v -0.446116 7.644142 3.574092
v 0.344339 8.434597 3.618472
v -0.000000 8.577227 3.618472
v 0.486969 8.090258 3.618472
v 0.344339 7.745918 3.618472
v -0.000000 7.603288 3.618472
v -0.486969 8.090258 3.618472
v -0.344339 8.434597 3.618472
v -0.344339 7.745918 3.618472
vt 0.625000 0.666667
vt 0.500000 0.666667
vt 0.500000 0.750000
vt 0.625000 0.750000
vt 0.720109 0.825746
vt 0.720110 0.825746
vt 0.717920 0.867962
vt 0.717920 0.867962
vt 0.722972 0.719202
vt 0.722972 0.719202
vt 0.723258 0.747681
vt 0.723258 0.747681
vt 0.750000 0.500000
vt 0.625000 0.500000
vt 0.625000 0.500000
vt 0.750000 0.500000
vt 0.722972 0.719202
vt 0.723258 0.747681
vt 0.657080 0.867962
vt 0.657080 0.867962
vt 0.654891 0.825746
vt 0.654891 0.825746
vt 0.717920 0.867962
vt 0.750000 0.916667
vt 0.750000 0.833333
vt 0.720110 0.825746
vt 0.875000 0.666667
vt 0.750000 0.666667
vt 0.750000 0.750000
vt 0.875000 0.750000
vt 0.780552 0.592869
vt 0.780552 0.592869
vt 0.786275 0.540217
vt 0.786275 0.540217
vt 0.723258 0.747681
vt 0.875000 0.833333
vt 0.778893 0.621588
vt 0.778893 0.621588
vt 0.750000 0.583333
vt 0.625000 0.583333
vt 0.750000 0.500000
vt 0.625000 0.500000
vt 0.625000 0.833333
vt 0.500000 0.833333
vt 0.500000 0.916667
vt 0.625000 0.916667
vt 0.500000 0.583333
vt 0.500000 0.500000
vt 0.750000 0.500000
vt 0.625000 0.500000
vt 0.625000 0.583333
vt 0.625000 0.666667
vt 0.625000 0.750000
vt 0.625000 0.833333
vt 0.625000 0.916667
vt 0.750000 0.583333
vt 0.750000 0.666667
vt 0.717920 0.867962
vt 0.657080 0.867962
vt 0.657080 0.867962
vt 0.717920 0.867962
vt 0.720109 0.825746
vt 0.720110 0.825746
vt 0.722972 0.719202
vt 0.723258 0.747681
vt 0.723258 0.747681
vt 0.722972 0.719202
vt 0.780552 0.592869
vt 0.786275 0.540217
vt 0.786275 0.540217
vt 0.780552 0.592869
vt 0.778893 0.621588
vt 0.778893 0.621588
vt 0.875000 0.666667
vt 0.875000 0.750000
vt 0.750000 0.750000
vt 0.875000 0.833333
vt 0.750000 0.833333
vt 0.875000 0.916667
vt 0.750000 0.916667
vt 0.896698 0.632233
vt 0.898404 0.590617
vt 0.898404 0.590617
vt 0.896698 0.632233
vt 1.000000 0.666667
vt 1.000000 0.750000
vt 0.717920 0.867962
vt 0.720110 0.825746
vt 0.723258 0.747681
vt 0.722972 0.719202
vt 0.654891 0.825746
vt 0.657080 0.867962
vt 0.651742 0.747681
vt 0.652028 0.719202
vt 0.651742 0.747681
vt 0.652028 0.719202
vt 0.654891 0.825746
vt 0.651742 0.747681
vt 0.652028 0.719202
vt 0.654891 0.825746
vt 0.654891 0.825746
vt 0.651742 0.747681
vt 0.652028 0.719202
vt 0.722972 0.719202
vt 0.657080 0.867962
vt 0.723258 0.747681
vt 0.720109 0.825746
vt 0.717920 0.867962
vt 0.844448 0.592869
vt 0.838725 0.540217
vt 0.875000 0.500000
vt 0.875000 0.583333
vt 0.786275 0.540217
vt 0.780552 0.592869
vt 0.846107 0.621588
vt 0.778893 0.621588
vt 0.838725 0.540217
vt 0.844448 0.592869
vt 0.844448 0.592869
vt 0.838725 0.540217
vt 0.786275 0.540217
vt 0.780552 0.592869
vt 0.838725 0.540217
vt 0.844448 0.592869
vt 0.846107 0.621588
vt 0.846107 0.621588
vt 0.846107 0.621588
vt 0.778893 0.621588
vt 0.651742 0.747681
vt 0.654891 0.825746
vt 0.500000 0.500000
vt 0.652028 0.719202
vt 0.651742 0.747681
vt 0.875000 0.500000
vt 0.722972 0.719202
vt 0.652028 0.719202
vt 1.000000 0.500000
vt 1.000000 0.500000
vt 0.999342 0.530720
vt 0.903393 0.530720
vt 0.898404 0.590617
vt 0.896698 0.632233
vt 0.896698 0.632233
vt 0.898404 0.590617
vt 0.898404 0.590617
vt 0.875000 0.916667
vt 0.896698 0.632233
vt 1.000481 0.632233
vt 0.848670 0.348670
vt 0.750000 0.389541
vt 0.750000 0.490000
vt 0.919706 0.419706
vt 0.889541 0.250000
vt 0.990000 0.250000
vt 0.848670 0.151330
vt 0.919706 0.080294
vt 0.750000 0.110459
vt 0.750000 0.010000
vt 0.657080 0.867962
vt 0.651742 0.747681
vt 0.652028 0.719202
vt 0.999342 0.530720
vt 1.000000 0.583333
vt 0.903393 0.530720
vt 1.000481 0.632233
vt 0.651742 0.747681
vt 0.652028 0.719202
vt 0.654891 0.825746
vt 1.000481 0.632233
vt 0.903393 0.530720
vt 0.999342 0.530720
vt 0.720109 0.825746
vt 0.717920 0.867962
vt 0.657080 0.867962
vt 0.380989 0.380989
vt 0.435247 0.250000
vt 0.435247 0.250000
vt 0.380989 0.380989
vt 0.844448 0.592869
vt 0.875000 0.583333
vt 0.875000 0.500000
vt 0.838725 0.540217
vt 0.786275 0.540217
vt 0.780552 0.592869
vt 0.846107 0.621588
vt 0.778893 0.621588
vt 0.838725 0.540217
vt 0.838725 0.540217
vt 0.844448 0.592869
vt 0.844448 0.592869
vt 0.780552 0.592869
vt 0.786275 0.540217
vt 0.838725 0.540217
vt 0.844448 0.592869
vt 0.846107 0.621588
vt 0.846107 0.621588
vt 0.778893 0.621588
vt 0.846107 0.621588
vt 0.875000 0.500000
vt 0.903393 0.530720
vt 0.898404 0.590617
vt 0.896698 0.632233
vt 0.848670 0.348670
vt 0.919706 0.419706
vt 0.889541 0.250000
vt 0.990000 0.250000
vt 0.848670 0.151330
vt 0.919706 0.080294
vt 0.903393 0.530720
vt 0.903393 0.530720
vt 0.250000 0.435247
vt 0.250000 0.435247
vt 0.890549 0.829400
vt 0.892109 0.891416
vt 0.889525 0.775502
vt 0.892109 0.891416
vt 0.890549 0.829400
vt 0.889525 0.775502
vt 1.000284 0.775502
vt 0.999660 0.891416
vt 1.000000 0.916667
vt 0.380989 0.119011
vt 0.250000 0.064753
vt 0.250000 0.064753
vt 0.380989 0.119011
vt 0.435247 0.250000
vt 0.435247 0.250000
vt 0.380989 0.380989
vt 0.380989 0.380989
vt 1.000000 1.000000
vt 0.875000 1.000000
vt 0.875000 1.000000
vt 1.000000 1.000000
vt 0.875000 1.000000
vt 0.875000 1.000000
vt 0.625000 1.000000
vt 0.750000 1.000000
vt 0.750000 1.000000
vt 0.625000 1.000000
vt 0.250000 0.435247
vt 0.380989 0.119011
vt 0.380989 0.119011
vt 0.380989 0.380989
vt 0.250000 0.064753
vt 0.380989 0.119011
vt 0.435247 0.250000
vt 0.380989 0.119011
vt 1.000000 0.500000
vt 1.000000 1.000000
vt 0.875000 1.000000
vt 0.875000 0.500000
vt 0.750000 1.000000
vt 0.750000 0.500000
vt 0.375000 0.500000
vt 0.375000 1.000000
vt 0.250000 1.000000
vt 0.250000 0.500000
vt 0.125000 1.000000
vt 0.125000 0.500000
vt 0.000000 1.000000
vt 0.000000 0.500000
vt 0.750000 0.490000
vt 0.919706 0.419706
vt 0.990000 0.250000
vt 0.919706 0.080294
vt 0.750000 0.010000
vt 0.580294 0.080294
vt 0.510000 0.250000
vt 0.580294 0.419706
vt 0.419706 0.419706
vt 0.250000 0.490000
vt 0.490000 0.250000
vt 0.419706 0.080294
vt 0.250000 0.010000
vt 0.435247 0.250000
vt 0.380989 0.380989
vt 0.419706 0.419706
vt 0.490000 0.250000
vt 0.419706 0.080294
vt 0.500000 1.000000
vt 0.500000 1.000000
vt 0.750000 1.000000
vt 0.750000 1.000000
vt 0.625000 1.000000
vt 0.625000 1.000000
vt 0.892109 0.891416
vt 0.999660 0.891416
vt 0.999660 0.891416
vt 0.892109 0.891416
vt 0.892109 0.891416
vt 0.892109 0.891416
vt 0.890549 0.829400
vt 0.890549 0.829400
vt 0.890549 0.829400
vt 0.890549 0.829400
vt 0.889526 0.775502
vt 1.000284 0.775502
vt 1.000284 0.775502
vt 0.889525 0.775502
vt 0.890549 0.829400
vt 0.892109 0.891416
vt 0.892109 0.891416
vt 0.890549 0.829400
vt 1.000284 0.775502
vt 0.889525 0.775502
vt 0.889525 0.775502
vt 0.889525 0.775502
vt 0.889526 0.775502
vt 1.000000 0.833333
vt 0.999660 0.891416
vn -0.3825 -0.9234 -0.0318
vn 0.0444 0.9990 0.0031
vn 0.0491 0.9988 0.0028
vn 0.7299 -0.3023 -0.6130
vn 0.1111 0.9938 0.0047
vn -0.1790 -0.9829 0.0437
vn -0.9532 -0.2747 0.1261
vn -0.9234 0.3825 -0.0318
vn -0.0549 -0.9984 -0.0162
vn -0.9555 -0.2701 0.1189
vn -0.9179 0.3802 0.1134
vn -0.0542 -0.9985 -0.0122
vn -0.5318 0.1984 0.8233
vn -0.9141 -0.3786 -0.1452
vn -0.9022 -0.3737 -0.2155
vn -0.3798 -0.9170 0.1215
vn -0.3802 -0.9179 0.1134
vn -0.3786 -0.9141 -0.1452
vn -0.3737 -0.9022 -0.2155
vn -0.7299 -0.3023 -0.6130
vn 0.3737 -0.9022 -0.2155
vn 0.3786 -0.9141 -0.1452
vn 0.3825 -0.9234 -0.0318
vn 0.3802 -0.9179 0.1134
vn 0.3798 -0.9170 0.1215
vn 0.9022 -0.3737 -0.2155
vn 0.9141 -0.3786 -0.1452
vn 0.5318 0.1984 0.8233
vn -0.0444 0.9990 0.0031
vn -0.0491 0.9988 0.0028
vn 0.0549 -0.9984 -0.0162
vn 0.0542 -0.9985 -0.0122
vn 0.9234 0.3825 -0.0318
vn 0.9179 0.3802 0.1134
vn 0.9170 0.3798 0.1215
vn 0.9993 -0.0250 -0.0267
vn 0.3825 0.9234 -0.0318
vn 0.9532 -0.2747 0.1261
vn 0.9555 -0.2701 0.1189
vn 0.9626 -0.2682 -0.0378
vn 0.9472 -0.2999 0.1131
vn 0.9560 -0.2745 0.1039
vn 0.9640 -0.2639 -0.0340
vn 0.9008 -0.4334 -0.0261
vn 0.8948 -0.4266 0.1314
vn 0.6838 0.7283 0.0451
vn 0.6809 0.7252 -0.1020
vn 0.6806 0.7248 -0.1070
vn 0.1946 -0.9808 -0.0136
vn 0.1790 -0.9829 0.0437
vn 0.0623 0.0232 -0.9978
vn 0.1910 -0.9807 0.0405
vn 0.1353 -0.9895 0.0514
vn -0.0994 0.0061 -0.9950
vn 0.1381 -0.9889 0.0544
vn 0.1224 -0.9923 -0.0187
vn -0.1111 0.9938 0.0047
vn -0.1053 0.9944 -0.0011
vn 0.4494 -0.0278 0.8929
vn 0.2880 -0.1310 0.9486
vn -0.1075 0.9942 -0.0089
vn -0.1093 0.9940 0.0078
vn 0.1187 -0.9927 -0.0215
vn 0.1319 -0.9894 0.0614
vn -0.1121 0.9936 -0.0093
vn -0.3030 0.1378 -0.9430
vn 0.1378 -0.9887 0.0584
vn 0.9051 0.3681 -0.2128
vn 0.9022 0.3737 -0.2155
vn 0.9003 0.3797 -0.2128
vn 0.9113 0.3863 -0.1425
vn 0.9175 0.3712 -0.1425
vn 0.9141 0.3786 -0.1452
vn -0.3842 0.9231 -0.0187
vn 0.7946 -0.5453 -0.2671
vn -0.0070 0.9928 -0.1200
vn 0.4050 0.2697 0.8736
vn 0.0099 0.9968 -0.0795
vn -0.1367 -0.0910 -0.9864
vn -0.1630 -0.0773 -0.9836
vn 0.0255 0.9951 -0.0956
vn 0.1714 0.0812 0.9818
vn -0.0021 0.9896 -0.1436
vn 0.0571 -0.9983 -0.0117
vn 0.0564 -0.9983 -0.0144
vn 0.7434 0.6208 -0.2487
vn 0.7578 0.6329 -0.1586
vn 0.6254 0.5223 0.5798
vn -0.3826 0.9238 -0.0145
vn 0.4511 0.3767 -0.8090
vn 0.8324 -0.5250 -0.1775
vn -0.9560 -0.2745 0.1039
vn 0.3023 -0.7299 -0.6130
vn -0.6838 0.7283 0.0451
vn 0.7299 0.3023 -0.6130
vn -0.9626 -0.2682 -0.0378
vn -0.9008 -0.4334 -0.0261
vn 0.3023 0.7299 -0.6130
vn 0.5409 0.8378 0.0741
vn 0.1015 0.9792 -0.1754
vn -0.9993 -0.0250 -0.0267
vn -0.9170 0.3798 0.1215
vn 0.0902 0.9891 -0.1165
vn -0.3825 0.9234 -0.0318
vn 0.4934 0.7562 -0.4297
vn -0.0000 0.0000 -1.0000
vn -0.9472 -0.2999 0.1131
vn -0.9640 -0.2639 -0.0340
vn -0.6809 0.7252 -0.1020
vn -0.8948 -0.4266 0.1314
vn -0.6806 0.7248 -0.1070
vn -0.1946 -0.9808 -0.0136
vn 0.8880 0.4465 -0.1098
vn 0.8962 0.4158 -0.1549
vn -0.1224 -0.9923 -0.0187
vn -0.1353 -0.9895 0.0514
vn 0.8609 0.4229 0.2827
vn -0.6737 -0.2612 -0.6913
vn -0.0623 0.0232 -0.9978
vn 0.9994 -0.0120 -0.0319
vn 0.1053 0.9944 -0.0011
vn -0.4494 -0.0278 0.8929
vn 0.5172 0.2855 0.8069
vn -0.1381 -0.9889 0.0544
vn 0.0994 0.0061 -0.9950
vn 0.9998 -0.0076 -0.0208
vn -0.2880 -0.1310 0.9486
vn -0.1910 -0.9807 0.0405
vn 0.9239 -0.3827 0.0000
vn 0.1075 0.9942 -0.0089
vn 0.1093 0.9940 0.0078
vn -0.1187 -0.9927 -0.0215
vn -0.1319 -0.9894 0.0614
vn 0.1121 0.9936 -0.0093
vn 0.3030 0.1378 -0.9430
vn -0.1378 -0.9887 0.0584
vn -0.9051 0.3681 -0.2128
vn -0.9022 0.3737 -0.2155
vn -0.9003 0.3797 -0.2128
vn -0.9113 0.3863 -0.1425
vn -0.9175 0.3712 -0.1425
vn -0.9141 0.3786 -0.1452
vn 0.3842 0.9231 -0.0187
vn -0.7946 -0.5453 -0.2671
vn 0.0070 0.9928 -0.1200
vn -0.4050 0.2697 0.8736
vn -0.0099 0.9968 -0.0795
vn 0.1367 -0.0910 -0.9864
vn 0.1630 -0.0773 -0.9836
vn -0.0255 0.9951 -0.0956
vn -0.1714 0.0812 0.9818
vn 0.0021 0.9896 -0.1436
vn -0.0571 -0.9983 -0.0117
vn -0.0564 -0.9983 -0.0144
vn -0.7434 0.6208 -0.2487
vn -0.7578 0.6329 -0.1586
vn -0.6254 0.5223 0.5798
vn 0.3826 0.9238 -0.0145
vn -0.4511 0.3767 -0.8090
vn -0.8324 -0.5250 -0.1775
vn -0.3023 -0.7299 -0.6130
vn -0.7299 0.3023 -0.6130
vn -0.3023 0.7299 -0.6130
vn -0.5409 0.8378 0.0741
vn -0.1015 0.9792 -0.1754
vn -0.0902 0.9891 -0.1165
vn -0.4934 0.7562 -0.4297
vn -0.8880 0.4465 -0.1098
vn -0.8962 0.4158 -0.1549
vn 0.6737 -0.2612 -0.6913
vn -0.9994 -0.0120 -0.0319
vn -0.9998 -0.0076 -0.0208
vn 0.3827 -0.9239 0.0000
vn 0.1727 0.9792 0.1064
vn 0.1619 0.9819 0.0987
vn -0.1727 0.9792 0.1064
vn -0.1619 0.9819 0.0987
vn 0.4109 0.8888 0.2031
vn 0.4162 0.9085 0.0363
vn -0.4109 0.8888 0.2031
vn -0.4162 0.9085 0.0363
vn -0.2808 0.6778 -0.6795
vn -0.6778 0.2808 -0.6795
vn -0.6778 -0.2808 -0.6795
vn -0.2575 0.6216 0.7398
vn 0.2575 0.6216 0.7398
vn 0.6216 -0.2575 0.7398
vn -0.2808 -0.6778 -0.6795
vn 0.2808 0.6778 -0.6795
vn 0.0000 0.0000 1.0000
vn -0.9239 0.3827 0.0000
vn -0.3827 -0.9239 0.0000
vn 0.3827 0.9239 0.0000
vn 0.9239 0.3827 0.0000
vn -0.3827 0.9239 0.0000
vn -0.9239 -0.3827 0.0000
vn 0.1211 0.2925 0.9486
vn 0.2925 0.1211 0.9486
vn 0.2925 -0.1211 0.9486
vn 0.1211 -0.2925 0.9486
vn -0.2925 0.1211 0.9486
vn -0.2925 -0.1211 0.9486
vn -0.1211 0.2925 0.9486
vn -0.1211 -0.2925 0.9486
vn 0.2575 -0.6216 0.7398
vn -0.6216 0.2575 0.7398
vn 0.6778 -0.2808 -0.6795
vn 0.6216 0.2575 0.7398
vn -0.2575 -0.6216 0.7398
vn 0.6778 0.2808 -0.6795
vn -0.6216 -0.2575 0.7398
vn 0.2808 -0.6778 -0.6795
vn 0.3773 0.9108 0.1675
vn 0.9108 0.3773 0.1675
vn 0.9108 -0.3773 0.1675
vn 0.3773 -0.9108 0.1675
vn -0.9108 0.3773 0.1675
vn -0.3773 0.9108 0.1675
vn -0.0903 -0.0358 0.9953
vn -0.3773 -0.9108 0.1675
vn -0.9108 -0.3773 0.1675
vn -0.0476 0.9989 0.0027
vn -0.1097 0.9940 -0.0015
vn 0.1097 0.9940 -0.0015
vn 0.0476 0.9989 0.0027
vn -0.8609 0.4229 0.2827
vn -0.5172 0.2855 0.8069
vn 0.0874 -0.0413 0.9953
vn 0.0061 -0.2142 0.9768
vn -0.0063 -0.2144 0.9767
vn 0.9976 -0.0035 0.0687
vn -0.9976 -0.0035 0.0687
vn 0.0582 0.1307 -0.9897
vn 0.7630 0.6358 0.1161
vn -0.7630 0.6358 0.1161
vn 0.4525 0.8577 -0.2440
vn -0.4525 0.8577 -0.2440
vn -0.9976 -0.0090 0.0683
vn 0.9976 -0.0090 0.0683
vn -0.0582 0.1307 -0.9897
vn -0.4634 0.8790 0.1124
vn 0.4634 0.8790 0.1124
vn 0.4550 0.8823 0.1203
vn -0.4550 0.8823 0.1203
vn -0.4409 0.7851 0.4351
vn 0.4654 0.7934 0.3924
vn -0.7627 0.6376 0.1084
vn 0.7627 0.6376 0.1084
vn -0.9976 -0.0145 0.0678
vn 0.9976 -0.0145 0.0678
usemtl Material.001
s off
f 144/1/1 36/2/1 35/3/1 143/4/1
f 156/5/2 147/6/2 149/7/2 155/8/2
f 153/9/3 150/10/3 145/11/3 154/12/3
f 81/13/4 7/14/4 122/15/4 121/16/4
f 161/17/5 153/9/5 154/12/5 164/18/5
f 157/19/6 151/20/6 148/21/6 160/22/6
f 45/23/7 132/24/7 133/25/7 46/26/7
f 198/27/8 174/28/8 135/29/8 213/30/8
f 181/31/9 176/32/9 178/33/9 183/34/9
f 46/26/10 133/25/10 135/29/10 108/35/10
f 213/30/11 135/29/11 133/25/11 212/36/11
f 182/37/12 180/38/12 176/32/12 181/31/12
f 155/8/13 149/7/13 151/20/13 157/19/13
f 172/39/14 125/40/14 144/1/14 174/28/14
f 171/41/15 38/42/15 125/40/15 172/39/15
f 142/43/16 34/44/16 33/45/16 139/46/16
f 143/4/17 35/3/17 34/44/17 142/43/17
f 125/40/18 37/47/18 36/2/18 144/1/18
f 38/42/19 9/48/19 37/47/19 125/40/19
f 171/41/20 200/49/20 201/50/20 38/42/20
f 7/14/21 32/51/21 37/47/21 9/48/21
f 32/51/22 54/52/22 36/2/22 37/47/22
f 54/52/23 53/53/23 35/3/23 36/2/23
f 53/53/24 52/54/24 34/44/24 35/3/24
f 52/54/25 51/55/25 33/45/25 34/44/25
f 81/13/26 82/56/26 32/51/26 7/14/26
f 82/56/27 84/57/27 54/52/27 32/51/27
f 65/58/28 67/59/28 61/60/28 59/61/28
f 66/62/29 65/58/29 59/61/29 57/63/29
f 63/64/30 64/65/30 55/66/30 60/67/30
f 91/68/31 93/69/31 88/70/31 86/71/31
f 92/72/32 91/68/32 86/71/32 90/73/32
f 116/74/33 210/75/33 49/76/33 84/57/33
f 210/75/34 209/77/34 48/78/34 49/76/34
f 209/77/35 208/79/35 47/80/35 48/78/35
f 137/81/36 136/82/36 129/83/36 131/84/36
f 15/85/37 214/86/37 210/75/37 116/74/37
f 23/87/38 24/88/38 48/78/38 47/80/38
f 24/88/39 25/89/39 49/76/39 48/78/39
f 25/89/40 26/90/40 84/57/40 49/76/40
f 29/91/41 28/92/41 51/55/41 52/54/41
f 30/93/42 29/91/42 52/54/42 53/53/42
f 31/94/43 30/93/43 53/53/43 54/52/43
f 26/90/44 31/94/44 54/52/44 84/57/44
f 28/92/45 23/87/45 47/80/45 51/55/45
f 60/67/46 55/66/46 56/95/46 62/96/46
f 55/66/47 57/63/47 58/97/47 56/95/47
f 57/63/48 59/61/48 61/60/48 58/97/48
f 69/98/49 68/99/49 62/96/49 56/95/49
f 67/59/50 70/100/50 58/97/50 61/60/50
f 68/99/51 63/64/51 60/67/51 62/96/51
f 70/100/52 69/98/52 56/95/52 58/97/52
f 78/101/53 73/102/53 69/98/53 70/100/53
f 77/103/54 71/104/54 63/64/54 68/99/54
f 76/105/55 78/101/55 70/100/55 67/59/55
f 73/102/56 77/103/56 68/99/56 69/98/56
f 71/104/57 74/106/57 64/65/57 63/64/57
f 72/107/58 75/108/58 65/58/58 66/62/58
f 75/108/59 76/105/59 67/59/59 65/58/59
f 23/87/60 28/92/60 76/105/60 75/108/60
f 24/88/61 23/87/61 75/108/61 72/107/61
f 26/90/62 25/89/62 74/106/62 71/104/62
f 30/93/63 31/94/63 77/103/63 73/102/63
f 28/92/64 29/91/64 78/101/64 76/105/64
f 25/89/65 24/88/65 72/107/65 74/106/65
f 31/94/66 26/90/66 71/104/66 77/103/66
f 29/91/67 30/93/67 73/102/67 78/101/67
f 22/109/68 3/110/68 112/111/68 113/112/68
f 3/110/69 5/113/69 81/13/69 112/111/69
f 5/113/70 27/114/70 82/56/70 81/13/70
f 21/115/71 22/109/71 113/112/71 116/74/71
f 27/114/72 50/116/72 84/57/72 82/56/72
f 50/116/73 21/115/73 116/74/73 84/57/73
f 87/117/74 85/118/74 97/119/74 99/120/74
f 86/71/75 88/70/75 100/121/75 98/122/75
f 95/123/76 94/124/76 85/118/76 87/117/76
f 96/125/77 92/72/77 90/73/77 89/126/77
f 94/124/78 96/125/78 89/126/78 85/118/78
f 93/69/79 95/123/79 87/117/79 88/70/79
f 5/113/80 3/110/80 95/123/80 93/69/80
f 22/109/81 21/115/81 96/125/81 94/124/81
f 21/115/82 50/116/82 92/72/82 96/125/82
f 3/110/83 22/109/83 94/124/83 95/123/83
f 50/116/84 27/114/84 91/68/84 92/72/84
f 27/114/85 5/113/85 93/69/85 91/68/85
f 99/120/86 97/119/86 98/122/86 100/121/86
f 97/119/87 101/127/87 102/128/87 98/122/87
f 89/126/88 90/73/88 102/128/88 101/127/88
f 85/118/89 89/126/89 101/127/89 97/119/89
f 88/70/90 87/117/90 99/120/90 100/121/90
f 90/73/91 86/71/91 98/122/91 102/128/91
f 117/129/92 143/4/92 142/43/92 115/130/92
f 7/14/93 9/48/93 123/131/93 122/15/93
f 150/10/94 152/132/94 146/133/94 145/11/94
f 112/111/95 81/13/95 121/16/95 120/134/95
f 108/35/96 135/29/96 174/28/96 109/135/96
f 109/135/97 174/28/97 144/1/97 124/136/97
f 111/137/98 112/111/98 120/134/98 119/138/98
f 1/139/99 80/140/99 112/111/99 111/137/99
f 80/140/100 79/141/100 113/112/100 112/111/100
f 206/142/101 204/143/101 202/144/101 205/145/101
f 212/36/102 133/25/102 132/24/102 211/146/102
f 79/141/103 83/147/103 116/74/103 113/112/103
f 15/85/104 198/27/104 213/30/104 214/86/104
f 83/147/105 118/148/105 15/85/105 116/74/105
f 104/149/106 103/150/106 119/151/106 120/152/106
f 105/153/106 104/149/106 120/152/106 121/154/106
f 106/155/106 105/153/106 121/154/106 122/156/106
f 107/157/106 106/155/106 122/156/106 123/158/106
f 115/130/107 142/43/107 139/46/107 114/159/107
f 124/136/108 144/1/108 143/4/108 117/129/108
f 145/11/109 146/133/109 148/21/109 147/6/109
f 114/159/110 139/46/110 132/24/110 45/23/110
f 147/6/111 148/21/111 151/20/111 149/7/111
f 159/160/112 146/133/112 152/132/112 158/161/112
f 126/162/113 127/163/113 129/83/113 130/164/113
f 127/163/114 128/165/114 131/84/114 129/83/114
f 163/166/115 159/160/115 158/161/115 167/167/115
f 168/168/116 160/22/116 159/160/116 163/166/116
f 140/169/117 137/81/117 131/84/117 128/165/117
f 141/170/118 134/171/118 126/162/118 130/164/118
f 158/161/119 152/132/119 150/10/119 153/9/119
f 136/82/120 141/170/120 130/164/120 129/83/120
f 162/172/121 156/5/121 155/8/121 165/173/121
f 165/173/122 155/8/122 157/19/122 166/174/122
f 79/141/120 80/140/120 141/170/120 136/82/120
f 80/140/118 1/139/118 134/171/118 141/170/118
f 118/148/123 83/147/123 137/81/123 140/169/123
f 166/174/124 157/19/124 160/22/124 168/168/124
f 167/167/125 158/161/125 153/9/125 161/17/125
f 83/147/126 79/141/126 136/82/126 137/81/126
f 45/23/127 165/173/127 166/174/127 114/159/127
f 160/22/128 148/21/128 146/133/128 159/160/128
f 12/175/129 14/176/129 254/177/129 255/178/129
f 46/26/130 162/172/130 165/173/130 45/23/130
f 109/135/131 161/17/131 164/18/131 108/35/131
f 117/129/132 163/166/132 167/167/132 124/136/132
f 114/159/133 166/174/133 168/168/133 115/130/133
f 108/35/134 164/18/134 162/172/134 46/26/134
f 124/136/135 167/167/135 161/17/135 109/135/135
f 115/130/136 168/168/136 163/166/136 117/129/136
f 44/179/137 197/180/137 196/181/137 11/182/137
f 11/182/138 196/181/138 171/41/138 13/183/138
f 13/183/139 171/41/139 172/39/139 110/184/139
f 43/185/140 198/27/140 197/180/140 44/179/140
f 110/184/141 172/39/141 174/28/141 138/186/141
f 138/186/142 174/28/142 198/27/142 43/185/142
f 177/187/143 189/188/143 187/189/143 175/190/143
f 176/32/144 188/191/144 190/192/144 178/33/144
f 185/193/145 177/187/145 175/190/145 184/194/145
f 186/195/146 179/196/146 180/38/146 182/37/146
f 184/194/147 175/190/147 179/196/147 186/195/147
f 183/34/148 178/33/148 177/187/148 185/193/148
f 13/183/149 183/34/149 185/193/149 11/182/149
f 44/179/150 184/194/150 186/195/150 43/185/150
f 43/185/151 186/195/151 182/37/151 138/186/151
f 11/182/152 185/193/152 184/194/152 44/179/152
f 138/186/153 182/37/153 181/31/153 110/184/153
f 110/184/154 181/31/154 183/34/154 13/183/154
f 189/188/155 190/192/155 188/191/155 187/189/155
f 187/189/156 188/191/156 192/197/156 191/198/156
f 179/196/157 191/198/157 192/197/157 180/38/157
f 175/190/158 187/189/158 191/198/158 179/196/158
f 178/33/159 190/192/159 189/188/159 177/187/159
f 180/38/160 192/197/160 188/191/160 176/32/160
f 38/42/161 201/50/161 123/131/161 9/48/161
f 196/181/162 199/199/162 200/49/162 171/41/162
f 111/137/163 119/138/163 199/199/163 196/181/163
f 1/139/164 111/137/164 196/181/164 170/200/164
f 170/200/165 196/181/165 197/180/165 169/201/165
f 169/201/166 197/180/166 198/27/166 173/202/166
f 173/202/167 198/27/167 15/85/167 118/148/167
f 193/203/106 199/204/106 119/151/106 103/150/106
f 194/205/106 200/206/106 199/204/106 193/203/106
f 195/207/106 201/208/106 200/206/106 194/205/106
f 107/157/106 123/158/106 201/208/106 195/207/106
f 126/162/168 203/209/168 202/144/168 127/163/168
f 127/163/169 202/144/169 204/143/169 128/165/169
f 207/210/170 203/209/170 126/162/170 134/171/170
f 205/145/171 202/144/171 203/209/171 207/210/171
f 169/201/171 205/145/171 207/210/171 170/200/171
f 170/200/170 207/210/170 134/171/170 1/139/170
f 173/202/172 206/142/172 205/145/172 169/201/172
f 2/211/173 12/175/173 255/178/173 249/212/173
f 104/149/106 193/203/106 103/150/106
f 105/153/106 106/155/106 107/157/106 195/207/106 194/205/106 193/203/106 104/149/106
f 19/213/174 18/214/174 208/79/174 209/77/174
f 20/215/175 19/213/175 209/77/175 210/75/175
f 40/216/176 41/217/176 212/36/176 211/146/176
f 41/217/177 42/218/177 213/30/177 212/36/177
f 16/219/178 20/215/178 210/75/178 214/86/178
f 18/214/179 17/220/179 215/221/179 208/79/179
f 42/218/180 16/219/180 214/86/180 213/30/180
f 17/220/181 40/216/181 211/146/181 215/221/181
f 8/222/182 10/223/182 283/224/182 282/225/182
f 6/226/183 8/222/183 282/225/183 281/227/183
f 4/228/184 6/226/184 281/227/184 279/229/184
f 242/230/185 247/231/185 277/232/185 272/233/185
f 241/234/186 242/230/186 272/233/186 271/235/186
f 244/236/187 243/237/187 273/238/187 274/239/187
f 2/211/188 4/228/188 279/229/188 280/240/188
f 10/223/189 39/241/189 286/242/189 283/224/189
f 251/243/190 249/212/190 250/244/190 253/245/190 252/246/190
f 255/178/190 254/177/190 256/247/190 250/244/190 249/212/190
f 8/222/191 6/226/191 252/246/191 253/245/191
f 4/228/192 2/211/192 249/212/192 251/243/192
f 39/241/193 10/223/193 250/244/193 256/247/193
f 14/176/194 39/241/194 256/247/194 254/177/194
f 10/223/195 8/222/195 253/245/195 250/244/195
f 6/226/196 4/228/196 251/243/196 252/246/196
f 257/248/193 258/249/193 267/250/193 259/251/193
f 259/251/194 267/250/194 266/252/194 260/253/194
f 263/254/196 269/255/196 268/256/196 264/257/196
f 264/257/191 268/256/191 270/258/191 265/259/191
f 265/259/195 270/258/195 258/260/195 257/261/195
f 257/262/106 259/263/106 260/264/106 261/265/106 262/266/106 263/267/106 264/268/106 265/269/106
f 280/240/197 279/229/197 271/270/197 272/271/197
f 279/229/198 281/227/198 273/272/198 271/270/198
f 281/227/199 282/225/199 274/273/199 273/272/199
f 282/225/200 283/224/200 275/274/200 274/273/200
f 284/275/201 285/276/201 277/277/201 276/278/201
f 286/242/202 284/275/202 276/278/202 278/279/202
f 285/276/203 280/240/203 272/271/203 277/277/203
f 283/224/204 286/242/204 278/279/204 275/274/204
f 245/280/205 244/236/205 274/239/205 275/281/205
f 247/231/206 246/282/206 276/283/206 277/232/206
f 14/176/207 12/175/207 285/276/207 284/275/207
f 243/237/208 241/234/208 271/235/208 273/238/208
f 248/284/209 245/280/209 275/281/209 278/285/209
f 39/241/210 14/176/210 284/275/210 286/242/210
f 246/282/211 248/284/211 278/285/211 276/283/211
f 12/175/212 2/211/212 280/240/212 285/276/212
usemtl Material.002
f 215/221/213 242/230/213 241/234/213 208/79/213
f 208/79/214 241/234/214 243/237/214 47/80/214
f 47/80/215 243/237/215 244/236/215 51/55/215
f 51/55/216 244/236/216 245/280/216 33/45/216
f 211/146/217 132/24/217 246/282/217 247/231/217
f 215/221/218 211/146/218 247/231/218 242/230/218
f 234/286/219 239/287/219 217/288/219 222/289/219
f 139/46/220 33/45/220 245/280/220 248/284/220
f 132/24/221 139/46/221 248/284/221 246/282/221
f 64/65/222 66/62/222 57/63/222 55/66/222
f 74/106/223 72/107/223 66/62/223 64/65/223
f 164/18/224 154/12/224 156/5/224 162/172/224
f 154/12/225 145/11/225 147/6/225 156/5/225
f 140/169/226 128/165/226 204/143/226 206/142/226
f 118/148/227 140/169/227 206/142/227 173/202/227
f 239/287/228 238/290/228 220/291/228 217/288/228
f 17/220/229 18/214/229 238/290/229 239/287/229
f 40/216/230 17/220/230 239/287/230 234/286/230
usemtl Material.003
f 238/290/231 237/292/231 218/293/231 220/291/231
f 233/294/232 234/286/232 222/289/232 219/295/232
f 235/296/233 236/297/233 216/298/233 221/299/233
f 220/291/234 218/293/234 227/300/234 229/301/234
f 219/295/235 222/289/235 231/302/235 228/303/235
f 221/299/236 216/298/236 224/304/236 230/305/236
f 216/298/237 223/306/237 232/307/237 224/304/237
f 240/308/238 233/294/238 219/295/238 223/306/238
f 237/292/239 235/296/239 221/299/239 218/293/239
f 236/297/240 240/308/240 223/306/240 216/298/240
f 224/304/241 232/307/241 228/303/241 225/309/241
f 224/304/242 225/309/242 227/300/242 230/305/242
f 225/309/243 226/310/243 229/301/243 227/300/243
f 225/309/244 228/303/244 231/302/244 226/310/244
f 222/289/245 217/288/245 226/310/245 231/302/245
f 217/288/246 220/291/246 229/301/246 226/310/246
f 223/306/247 219/295/247 228/303/247 232/307/247
f 218/293/248 221/299/248 230/305/248 227/300/248
f 16/219/240 42/218/240 240/308/240 236/297/240
f 19/213/239 20/215/239 235/296/239 237/292/239
f 42/218/238 41/217/238 233/294/238 240/308/238
f 20/215/233 16/219/233 236/297/233 235/296/233
f 41/217/249 40/216/249 234/286/249 233/294/249
f 18/214/250 19/213/250 237/292/250 238/290/250
o Cylinder.001
v 0.000002 8.493749 3.546382
v 0.285314 8.375567 3.546382
v 0.403493 8.090254 3.546382
v 0.285311 7.804943 3.546382
v -0.000002 7.686764 3.546382
v -0.285311 8.375570 3.546382
v -0.403492 8.090259 3.546382
v -0.285314 7.804946 3.546382
v 0.000002 8.493749 3.140238
v -0.000002 7.686764 3.140238
v 0.285314 8.375567 3.140238
v 0.403493 8.090254 3.140238
v 0.285311 7.804943 3.140238
v -0.403493 8.090259 3.140238
v -0.285311 8.375570 3.140238
v -0.285314 7.804946 3.140238
v 0.000003 8.538519 3.642099
v 0.327161 8.218643 3.733740
v 0.448262 8.090254 3.733740
v 0.327159 7.835883 3.733740
v -0.000003 7.641994 3.642099
v -0.327161 7.835887 3.733740
v -0.448262 8.090260 3.733740
v -0.327159 8.218647 3.733740
v 0.327161 8.218643 3.797290
v 0.000003 8.538519 3.888931
v 0.448262 8.090254 3.797290
v 0.327159 7.835883 3.797290
v -0.000003 7.641994 3.888931
v -0.327161 7.835887 3.797290
v -0.448262 8.090260 3.797290
v -0.327159 8.218647 3.797290
v 0.249139 8.339393 4.154213
v 0.000002 8.442591 4.154213
v 0.352334 8.090255 4.154213
v 0.249136 7.841117 4.154213
v -0.000002 7.737923 4.154213
v -0.249139 7.841120 4.154213
v -0.352334 8.090259 4.154213
v -0.249136 8.339396 4.154213
v 0.108907 8.199162 4.403598
v 0.000001 8.244273 4.403598
v 0.154017 8.090256 4.403598
v 0.108906 7.981350 4.403598
v -0.000001 7.936240 4.403598
v -0.108907 7.981351 4.403598
v -0.154016 8.090258 4.403598
v -0.108905 8.199163 4.403598
v 0.030731 8.120987 4.578548
v 0.000000 8.133717 4.578548
v 0.043460 8.090257 4.578548
v 0.030731 8.059525 4.578548
v -0.000000 8.046797 4.578548
v -0.030731 8.059526 4.578548
v -0.043460 8.090257 4.578548
v -0.030730 8.120988 4.578548
v 0.008110 8.098367 4.631654
v 0.000000 8.101727 4.631654
v 0.011470 8.090257 4.631654
v 0.008110 8.082147 4.631654
v -0.000000 8.078787 4.631654
v -0.008110 8.082147 4.631654
v -0.011470 8.090257 4.631654
v -0.008110 8.098367 4.631654
v 0.448262 8.090254 3.642099
v 0.316971 8.407224 3.642099
v 0.316967 7.773286 3.642099
v -0.448262 8.090260 3.642099
v -0.316971 7.773289 3.642099
v -0.316967 8.407228 3.642099
v 0.448262 8.090254 3.888931
v 0.316971 8.407224 3.888931
v 0.316967 7.773286 3.888931
v -0.448262 8.090260 3.888931
v -0.316971 7.773289 3.888931
v -0.316967 8.407228 3.888931
v 2.316604 8.090242 3.797278
v 2.316604 8.090242 3.733727
v -2.316604 8.090270 3.797303
v -2.316604 8.090270 3.733752
v 2.053455 8.308675 3.733732
v 2.053452 7.871814 3.733724
v -2.053455 7.871838 3.733747
v -2.053452 8.308699 3.733755
v 2.053455 8.308675 3.797283
v 2.053452 7.871814 3.797275
v -2.053455 7.871838 3.797298
v -2.053452 8.308699 3.797306
v 0.293085 8.383338 3.707798
v 0.000002 8.504739 3.707798
v 0.414482 8.090254 3.707798
v 0.293081 7.797172 3.707798
v -0.000002 7.675775 3.707798
v -0.414482 8.090259 3.707798
v -0.293081 8.383341 3.707798
v -0.293085 7.797175 3.707798
v 0.902592 8.248653 3.733737
v 1.478024 8.278664 3.733735
v 1.693823 8.090246 3.733732
v 1.071043 8.090250 3.733736
v 1.071043 8.090250 3.797286
v 1.693823 8.090246 3.797282
v 1.478024 8.278664 3.797285
v 0.902592 8.248653 3.797287
v 0.902590 7.847860 3.733735
v 1.478021 7.859837 3.733729
v 1.478021 7.859837 3.797280
v 0.902590 7.847860 3.797286
v -1.478024 7.859855 3.797296
v -0.902593 7.847871 3.797293
v -1.071043 8.090262 3.797295
v -1.693823 8.090266 3.797299
v -1.071043 8.090262 3.733744
v -1.693823 8.090266 3.733748
v -1.478021 8.278682 3.733750
v -0.902590 8.248664 3.733745
v -1.478021 8.278682 3.797301
v -0.902590 8.248664 3.797295
v -0.902593 7.847871 3.733742
v -1.478024 7.859855 3.733745
vt 0.380989 0.380989
vt 0.435247 0.250000
vt 0.435247 0.250000
vt 0.380989 0.380989
vt 0.250000 0.435247
vt 0.250000 0.435247
vt 0.380989 0.119011
vt 0.250000 0.064753
vt 0.250000 0.064753
vt 0.380989 0.119011
vt 0.435247 0.250000
vt 0.435247 0.250000
vt 0.380989 0.380989
vt 0.380989 0.380989
vt 0.250000 0.435247
vt 0.380989 0.119011
vt 0.380989 0.119011
vt 0.380989 0.380989
vt 0.250000 0.064753
vt 0.380989 0.119011
vt 0.435247 0.250000
vt 0.380989 0.119011
vt 0.750000 1.000000
vt 0.865297 1.000000
vt 0.865297 1.000000
vt 0.750000 1.000000
vt 0.250000 1.000000
vt 0.375000 1.000000
vt 0.375000 1.000000
vt 0.250000 1.000000
vt 0.375000 1.000000
vt 0.500000 1.000000
vt 0.500000 1.000000
vt 0.000000 1.000000
vt 0.125000 1.000000
vt 0.125000 1.000000
vt 0.000000 1.000000
vt 0.875000 1.000000
vt 1.000000 1.000000
vt 1.000000 1.000000
vt 0.875000 1.000000
vt 0.134702 1.000000
vt 0.134702 1.000000
vt 0.134702 1.000000
vt 0.134702 1.000000
vt 0.250000 1.000000
vt 0.250000 1.000000
vt 0.625000 1.000000
vt 0.625000 1.000000
vt 0.365298 1.000000
vt 0.250000 1.000000
vt 0.250000 1.000000
vt 0.365298 1.000000
vt 0.875000 1.000000
vt 1.000000 1.000000
vt 1.000000 1.000000
vt 0.875000 1.000000
vt 0.625000 1.000000
vt 0.500000 1.000000
vt 0.750000 1.000000
vt 0.750000 1.000000
vt 0.125000 1.000000
vt 0.000000 1.000000
vt 0.125000 1.000000
vt 0.250000 1.000000
vt 0.250000 1.000000
vt 0.125000 1.000000
vt 0.000000 1.000000
vt 0.375000 1.000000
vt 0.625000 1.000000
vt 0.500000 1.000000
vt 0.750000 1.000000
vt 0.750000 1.000000
vt 0.875000 1.000000
vt 0.875000 1.000000
vt 0.750000 1.000000
vt 0.500000 1.000000
vt 0.375000 1.000000
vt 0.625000 1.000000
vt 1.000000 1.000000
vt 0.000000 1.000000
vt 0.419706 0.419706
vt 0.250000 0.490000
vt 0.080294 0.419706
vt 0.010000 0.250000
vt 0.080294 0.080294
vt 0.250000 0.010000
vt 0.419706 0.080294
vt 0.490000 0.250000
vt 0.250000 1.000000
vt 0.125000 1.000000
vt 0.500000 1.000000
vt 0.375000 1.000000
vt 0.625000 1.000000
vt 1.000000 1.000000
vt 0.000000 1.000000
vt 0.865297 1.000000
vt 0.750000 1.000000
vt 0.750000 1.000000
vt 0.634703 1.000000
vt 0.365298 1.000000
vt 0.250000 1.000000
vt 0.250000 1.000000
vt 0.134702 1.000000
vt 0.750000 1.000000
vt 0.865298 1.000000
vt 0.634702 1.000000
vt 0.250000 1.000000
vt 0.365298 1.000000
vt 0.134702 1.000000
vt 0.865298 1.000000
vt 0.750000 1.000000
vt 0.634703 1.000000
vt 0.634702 1.000000
vt 0.365298 1.000000
vt 0.865297 1.000000
vt 0.750000 1.000000
vt 0.634702 1.000000
vt 0.634703 1.000000
vt 0.365298 1.000000
vt 0.380989 0.380989
vt 0.435247 0.250000
vt 0.634702 1.000000
vt 0.750000 1.000000
vt 0.865298 1.000000
vt 0.865297 1.000000
vt 0.750000 1.000000
vt 0.634703 1.000000
vt 0.365298 1.000000
vt 0.365297 1.000000
vt 0.250000 1.000000
vt 0.134702 1.000000
vt 0.250000 1.000000
vt 0.134702 1.000000
vn 0.9239 -0.3827 0.0000
vn 0.3827 -0.9239 0.0000
vn -0.3819 0.9221 0.0628
vn -0.9221 0.3819 0.0628
vn -0.9221 -0.3819 0.0628
vn -0.3819 -0.9221 0.0628
vn 0.3819 0.9221 0.0628
vn 0.0000 0.0000 1.0000
vn -0.9239 0.3827 0.0000
vn -0.3827 -0.9239 0.0000
vn 0.3827 0.9239 0.0000
vn 0.9239 0.3827 0.0000
vn -0.3827 0.9239 0.0000
vn -0.9239 -0.3827 -0.0000
vn -0.0000 0.0000 -1.0000
vn -0.8763 -0.3630 0.3169
vn 0.0521 0.9986 0.0000
vn 0.3084 0.7445 0.5921
vn 0.3630 -0.8763 0.3169
vn 0.8763 0.3630 0.3169
vn -0.8763 0.3630 0.3169
vn -0.3630 -0.8763 0.3169
vn 0.8763 -0.3630 0.3169
vn 0.3630 0.8763 0.3169
vn -0.3630 0.8763 0.3169
vn -0.7979 0.3305 0.5042
vn -0.3084 0.7445 0.5921
vn -0.7445 -0.3084 0.5921
vn 0.3084 -0.7445 0.5921
vn 0.7445 0.3084 0.5921
vn -0.7445 0.3084 0.5921
vn -0.3084 -0.7445 0.5921
vn 0.7445 -0.3084 0.5921
vn 0.8073 0.3344 0.4863
vn -0.3305 -0.7979 0.5042
vn 0.7979 -0.3305 0.5042
vn 0.3305 0.7979 0.5042
vn -0.3305 0.7979 0.5042
vn -0.7979 -0.3305 0.5042
vn 0.3305 -0.7979 0.5042
vn 0.7979 0.3305 0.5042
vn -0.8073 0.3344 0.4863
vn -0.3344 -0.8073 0.4863
vn 0.8073 -0.3344 0.4863
vn 0.3344 0.8073 0.4863
vn -0.3344 0.8073 0.4863
vn -0.8073 -0.3344 0.4863
vn 0.3344 -0.8073 0.4863
vn 0.7907 0.4481 0.4171
vn 0.9113 -0.4026 0.0868
vn -0.9113 -0.4026 0.0868
vn -0.7907 0.4481 0.4171
vn 0.7907 0.4481 -0.4171
vn 0.9113 -0.4026 -0.0868
vn -0.9113 -0.4026 -0.0868
vn -0.7907 0.4481 -0.4171
vn 0.9985 0.0540 -0.0000
vn -0.9870 -0.1607 -0.0000
vn -0.9985 0.0540 0.0000
vn 0.9870 -0.1607 -0.0000
vn 0.6387 0.7695 0.0000
vn 0.6387 -0.7695 0.0000
vn -0.6387 -0.7695 0.0000
vn -0.6387 0.7695 0.0000
vn 0.0208 -0.9998 0.0000
vn -0.0521 0.9986 0.0000
vn -0.0208 -0.9998 0.0000
vn 0.9221 -0.3819 0.0628
vn 0.9221 0.3819 0.0628
vn 0.3819 -0.9221 0.0628
usemtl Material.003
s off
f 292/311/251 293/312/251 300/313/251 301/314/251
f 287/315/252 292/311/252 301/314/252 295/316/252
f 290/317/253 291/318/253 379/319/253 378/320/253
f 289/321/254 290/317/254 378/320/254 377/322/254
f 288/323/255 289/321/255 377/322/255 375/324/255
f 287/315/256 288/323/256 375/324/256 376/325/256
f 291/318/257 294/326/257 382/327/257 379/319/257
f 297/328/258 295/316/258 296/329/258 299/330/258 298/331/258
f 301/314/258 300/313/258 302/332/258 296/329/258 295/316/258
f 290/317/259 289/321/259 298/331/259 299/330/259
f 288/323/260 287/315/260 295/316/260 297/328/260
f 294/326/261 291/318/261 296/329/261 302/332/261
f 293/312/262 294/326/262 302/332/262 300/313/262
f 291/318/263 290/317/263 299/330/263 296/329/263
f 289/321/264 288/323/264 297/328/264 298/331/264
f 385/333/265 384/334/265 367/335/265 364/336/265
f 360/337/266 361/338/266 324/339/266 325/340/266
f 355/341/260 307/342/260 315/343/260 361/338/260
f 303/344/263 356/345/263 362/346/263 312/347/263
f 352/348/261 303/349/261 312/350/261 358/351/261
f 403/352/267 401/353/267 370/354/267 374/355/267
f 401/353/265 400/356/265 366/357/265 370/354/265
f 307/342/252 353/358/252 359/359/252 315/343/252
f 395/360/258 398/361/258 365/362/258 373/363/258
f 319/364/268 320/365/268 328/366/268 327/367/268
f 315/343/269 359/359/269 322/368/269 323/369/269
f 357/370/270 358/351/270 319/364/270 321/371/270
f 362/346/271 360/337/271 325/340/271 326/372/271
f 361/338/272 315/343/272 323/369/272 324/339/272
f 359/359/273 357/370/273 321/371/273 322/368/273
f 358/351/274 312/350/274 320/365/274 319/364/274
f 312/347/275 362/346/275 326/372/275 320/373/275
f 334/374/276 333/375/276 341/376/276 342/377/276
f 320/373/277 326/372/277 334/374/277 328/378/277
f 325/340/278 324/339/278 332/379/278 333/375/278
f 323/369/279 322/368/279 330/380/279 331/381/279
f 321/371/280 319/364/280 327/367/280 329/382/280
f 326/372/281 325/340/281 333/375/281 334/374/281
f 324/339/282 323/369/282 331/381/282 332/379/282
f 322/368/283 321/371/283 329/382/283 330/380/283
f 337/383/284 335/384/284 343/385/284 345/386/284
f 332/379/285 331/381/285 339/387/285 340/388/285
f 330/380/286 329/382/286 337/383/286 338/389/286
f 327/367/287 328/366/287 336/390/287 335/384/287
f 328/378/288 334/374/288 342/377/288 336/391/288
f 333/375/289 332/379/289 340/388/289 341/376/289
f 331/381/290 330/380/290 338/389/290 339/387/290
f 329/382/291 327/367/291 335/384/291 337/383/291
f 343/392/258 344/393/258 350/394/258 349/395/258 348/396/258 347/397/258 346/398/258 345/399/258
f 342/377/292 341/376/292 349/400/292 350/401/292
f 340/388/293 339/387/293 347/402/293 348/403/293
f 338/389/294 337/383/294 345/386/294 346/404/294
f 335/384/295 336/390/295 344/405/295 343/385/295
f 336/391/296 342/377/296 350/401/296 344/406/296
f 341/376/297 340/388/297 348/403/297 349/400/297
f 339/387/298 338/389/298 346/404/298 347/402/298
f 304/407/299 305/408/299 351/409/299 352/348/299
f 305/408/300 306/410/300 353/358/300 351/409/300
f 308/411/301 309/412/301 354/413/301 355/341/301
f 309/412/302 310/414/302 356/345/302 354/413/302
f 313/415/303 311/416/303 358/351/303 357/370/303
f 314/417/304 313/415/304 357/370/304 359/359/304
f 317/418/305 316/419/305 361/338/305 360/337/305
f 318/420/306 317/418/306 360/337/306 362/346/306
f 311/416/307 304/407/307 352/348/307 358/351/307
f 316/419/308 308/411/308 355/341/308 361/338/308
f 310/414/309 318/420/309 362/346/309 356/345/309
f 306/410/310 314/417/310 359/359/310 353/358/310
f 364/336/311 367/335/311 371/421/311 363/422/311
f 368/423/312 364/336/312 363/422/312 372/424/312
f 366/357/313 369/425/313 373/363/313 365/362/313
f 370/354/314 366/357/314 365/362/314 374/355/314
f 398/361/258 403/352/258 374/355/258 365/362/258
f 389/426/258 388/427/258 363/422/258 371/421/258
f 393/428/315 392/429/315 368/423/315 372/424/315
f 392/429/265 385/333/265 364/336/265 368/423/265
f 384/334/316 389/426/316 371/421/316 367/335/316
f 388/427/258 393/428/258 372/424/258 363/422/258
f 400/356/265 406/430/265 369/425/265 366/357/265
f 406/430/317 395/360/317 373/363/317 369/425/317
f 293/312/318 292/311/318 381/431/318 380/432/318
f 294/326/319 293/312/319 380/432/319 382/327/319
f 292/311/320 287/315/320 376/325/320 381/431/320
f 313/415/258 314/417/258 394/433/258 387/434/258
f 304/407/316 311/416/316 390/435/316 383/436/316
f 383/436/316 390/435/316 389/426/316 384/334/316
f 306/410/265 305/408/265 386/437/265 391/438/265
f 391/438/265 386/437/265 385/333/265 392/429/265
f 314/417/315 306/410/315 391/438/315 394/433/315
f 394/433/315 391/438/315 392/429/315 393/428/315
f 311/416/258 313/415/258 387/434/258 390/435/258
f 305/408/265 304/407/265 383/436/265 386/437/265
f 386/437/265 383/436/265 384/334/265 385/333/265
f 308/411/317 316/419/317 396/439/317 405/440/317
f 405/440/317 396/439/317 395/360/317 406/430/317
f 309/412/265 308/411/265 405/440/265 399/441/265
f 399/441/265 405/440/265 406/430/265 400/356/265
f 317/418/258 318/420/258 404/442/258 397/443/258
f 316/419/258 317/418/258 397/443/258 396/439/258
f 310/414/265 309/412/265 399/441/265 402/444/265
f 402/444/265 399/441/265 400/356/265 401/353/265
f 318/420/267 310/414/267 402/444/267 404/442/267
f 404/442/267 402/444/267 401/353/267 403/352/267
usemtl Material.004
f 387/434/258 394/433/258 393/428/258 388/427/258
f 390/435/258 387/434/258 388/427/258 389/426/258
f 397/443/258 404/442/258 403/352/258 398/361/258
f 396/439/258 397/443/258 398/361/258 395/360/258
