# 3ds Max Wavefront OBJ Exporter v0.99 - (c)2007 guruware
# File Created: 10.11.2025 07:01:37

mtllib avion_cuerpo.mtl

#
# object Cylinder
#

v  0.0000 6.8361 -1.1471
v  0.0000 6.7965 -0.0000
v  -0.9148 7.1754 -0.0000
v  -0.8868 7.2034 -1.1471
v  -3.9256 8.1097 0.0739
v  -4.8983 8.1554 -0.4031
v  -4.9366 8.1554 -0.1594
v  -3.9346 8.1096 0.5315
v  -3.9120 8.1108 -1.0824
v  -4.8408 8.1559 -1.0190
v  -4.8306 8.1553 -0.8556
v  -3.9096 8.1094 -0.7756
v  0.5643 7.5260 -3.4412
v  0.2821 7.8081 -3.9163
v  0.3990 8.0903 -3.9163
v  0.7980 8.0903 -3.4412
v  -2.9646 8.0047 -0.9843
v  -2.9701 8.0032 -0.5962
v  -5.0143 8.0825 -0.1594
v  -4.9872 8.0719 -0.4031
v  -3.9466 7.8984 0.0739
v  -3.9530 7.9252 0.5315
v  -1.0069 7.8055 1.6237
v  -1.0000 8.0903 2.2942
v  -1.1520 8.0903 1.1471
v  -1.0834 7.8056 1.0432
v  -1.2542 8.0903 -1.1471
v  -1.2938 8.0903 -0.0000
v  -0.9148 9.0051 -0.0000
v  -0.8868 8.9771 -1.1471
v  -2.0476 8.3425 -2.3474
v  -3.0773 8.4033 -2.7066
v  -2.9100 8.4038 -3.2055
v  -1.8803 8.3432 -3.0604
v  -1.2185 7.8052 -0.0347
v  -0.8146 8.9048 1.1471
v  -3.1364 8.4025 -2.4271
v  -2.1067 8.3413 -1.9479
v  -0.7580 7.3322 -2.2942
v  -1.0720 8.0903 -2.2942
v  -0.5643 7.5260 -3.4412
v  -0.7980 8.0903 -3.4412
v  0.0000 6.9383 1.1471
v  0.0000 7.0903 2.2942
v  -0.7071 7.3832 2.2942
v  -0.8146 7.2757 1.1471
v  0.0000 7.0183 -2.2942
v  0.0000 7.2923 -3.4412
v  -0.3990 8.0903 -3.9163
v  -0.2821 7.8081 -3.9163
v  0.7580 7.3322 -2.2942
v  0.8868 7.2034 -1.1471
v  0.9148 7.1754 -0.0000
v  0.8146 7.2757 1.1471
v  0.7071 7.3832 2.2942
v  1.0720 8.0903 -2.2942
v  1.2542 8.0903 -1.1471
v  3.9530 7.9252 0.5315
v  5.0143 8.0825 -0.1594
v  4.9366 8.1554 -0.1594
v  3.9346 8.1096 0.5315
v  3.9256 8.1097 0.0739
v  4.8983 8.1554 -0.4031
v  3.9120 8.1108 -1.0824
v  3.9096 8.1094 -0.7756
v  4.8306 8.1553 -0.8556
v  4.8408 8.1559 -1.0190
v  2.0476 8.3425 -2.3474
v  1.8803 8.3432 -3.0604
v  2.9100 8.4038 -3.2055
v  3.0773 8.4033 -2.7066
v  3.1364 8.4025 -2.4271
v  2.1067 8.3413 -1.9479
v  0.9148 9.0051 -0.0000
v  1.2938 8.0903 -0.0000
v  0.8868 8.9771 -1.1471
v  0.8146 8.9048 1.1471
v  1.1520 8.0903 1.1471
v  0.7071 8.7974 2.2942
v  1.0000 8.0903 2.2942
v  0.1270 10.2544 -2.7025
v  0.1270 10.5898 -2.8292
v  0.1398 10.6514 -2.5941
v  0.1398 10.3160 -2.0924
v  0.0000 9.3840 -0.0000
v  0.0000 9.3444 -1.1471
v  1.0069 7.8055 1.6237
v  1.0834 7.8056 1.0432
v  1.2185 7.8052 -0.0347
v  1.1981 7.8069 -0.4239
v  0.8519 7.5730 1.6237
v  0.9059 7.5394 1.0432
v  1.0018 7.4804 -0.0347
v  0.9855 7.4881 -0.4239
v  4.9392 8.0534 -0.8556
v  4.9474 8.0558 -1.0190
v  4.9872 8.0719 -0.4031
v  3.9372 7.8577 -1.0824
v  3.9352 7.8516 -0.7756
v  3.9466 7.8984 0.0739
v  2.9112 7.7220 -0.5962
v  2.8850 7.7731 0.4786
v  2.9646 8.0047 -0.9843
v  2.9067 7.7287 -0.9843
v  2.8703 7.8022 1.0575
v  2.9701 8.0032 -0.5962
v  2.9334 8.0035 0.4786
v  2.9125 8.0034 1.0575
v  0.7375 8.5556 -2.8877
v  0.5643 8.6545 -3.4412
v  0.7580 8.8483 -2.2942
v  0.8551 8.6747 -2.1698
v  0.8505 8.2826 -2.8877
v  1.0179 8.2816 -2.1698
v  0.8958 8.7176 -1.7676
v  1.0770 8.2801 -1.7676
v  2.9145 8.5982 -2.7066
v  3.1466 8.6928 -2.8092
v  3.1090 8.6739 -2.9688
v  2.7969 8.5392 -3.2055
v  3.1452 8.6306 -2.9688
v  3.1987 8.6304 -2.8092
v  1.7672 8.5474 -3.0604
v  1.8848 8.6365 -2.3474
v  2.9552 8.6195 -2.4271
v  1.9255 8.6685 -1.9479
v  3.1597 8.6996 -2.7197
v  3.2176 8.6302 -2.7197
v  -0.9059 7.5394 1.0432
v  -1.0018 7.4804 -0.0347
v  0.0000 7.6913 -3.9163
v  -4.9474 8.0558 -1.0190
v  -4.9392 8.0534 -0.8556
v  0.2821 8.3724 -3.9163
v  -1.1981 7.8069 -0.4239
v  -0.9855 7.4881 -0.4239
v  0.0000 8.4893 -3.9163
v  0.0000 8.8883 -3.4412
v  0.0992 8.7868 -3.0184
v  0.0000 8.9794 -2.9944
v  0.1270 8.9224 -2.1992
v  -0.1398 10.6514 -2.5941
v  -0.1270 10.5898 -2.8292
v  -0.1270 10.2544 -2.7025
v  -0.1398 10.3160 -2.0924
v  -0.7071 8.7974 2.2942
v  0.1398 8.9839 -1.6211
v  0.0000 9.2782 -1.6356
v  0.0333 8.2543 -3.9163
v  0.0000 8.3222 -3.9163
v  0.0471 8.0903 -3.9163
v  0.0333 7.9262 -3.9163
v  0.0000 7.8583 -3.9163
v  -0.8519 7.5730 1.6237
v  -3.9372 7.8577 -1.0824
v  -3.9352 7.8516 -0.7756
v  0.0000 10.6468 -3.6245
v  0.0000 10.8297 -2.9242
v  0.0992 10.4543 -3.6484
v  0.0000 10.9456 -2.6087
v  -2.9067 7.7287 -0.9843
v  -2.9112 7.7220 -0.5962
v  -2.8850 7.7731 0.4786
v  0.0000 10.6102 -2.1069
v  0.0000 10.3114 -3.4978
v  0.0992 10.1189 -3.5217
v  -2.9334 8.0035 0.4786
v  -2.9125 8.0034 1.0575
v  -2.8703 7.8022 1.0575
v  -0.6090 8.0903 3.4967
v  -0.6090 8.0903 2.8837
v  -0.4306 8.5209 2.8837
v  -0.4306 8.5209 3.4967
v  -0.7580 8.8483 -2.2942
v  -0.5643 8.6545 -3.4412
v  -0.7375 8.5556 -2.8877
v  -0.8551 8.6747 -2.1698
v  -0.8505 8.2826 -2.8877
v  -1.0179 8.2816 -2.1698
v  -0.8958 8.7176 -1.7676
v  -1.0770 8.2801 -1.7676
v  -3.1090 8.6739 -2.9688
v  -3.1466 8.6928 -2.8092
v  -2.9145 8.5982 -2.7066
v  -2.7969 8.5392 -3.2055
v  -3.1987 8.6304 -2.8092
v  -3.1452 8.6306 -2.9688
v  -1.7672 8.5474 -3.0604
v  -1.8848 8.6365 -2.3474
v  -2.9552 8.6195 -2.4271
v  -1.9255 8.6685 -1.9479
v  -3.2176 8.6302 -2.7197
v  -3.1597 8.6996 -2.7197
v  -0.2821 8.3724 -3.9163
v  -0.0992 8.7868 -3.0184
v  -0.1270 8.9224 -2.1992
v  -0.1398 8.9839 -1.6211
v  -0.0333 8.2543 -3.9163
v  -0.0471 8.0903 -3.9163
v  -0.0333 7.9262 -3.9163
v  -0.0992 10.4543 -3.6484
v  -0.0992 10.1189 -3.5217
v  0.0000 8.6993 2.8837
v  0.0000 8.6993 3.4967
v  0.5059 8.8724 1.9466
v  0.5693 8.9522 1.0932
v  0.6207 9.0168 0.3510
v  -0.5059 8.8724 1.9466
v  -0.5693 8.9522 1.0932
v  -0.6207 9.0168 0.3510
v  0.0000 9.3462 0.3581
v  0.0000 9.1305 2.0647
v  0.0000 9.0903 2.2942
v  0.0000 7.4813 3.4967
v  0.0000 7.6033 3.6185
v  0.3443 7.7459 3.6185
v  0.4306 7.6596 3.4967
v  0.4870 8.0903 3.6185
v  0.6090 8.0903 3.4967
v  0.3443 8.4346 3.6185
v  0.4306 8.5209 3.4967
v  -0.5579 8.6482 3.4412
v  -0.4461 8.5364 3.5741
v  0.0000 8.7212 3.5741
v  0.0000 8.8793 3.4412
v  0.4461 8.5364 3.5741
v  0.5579 8.6482 3.4412
v  0.7890 8.0903 3.4412
v  0.6309 8.0903 3.5741
v  0.4461 7.6441 3.5741
v  0.5579 7.5324 3.4412
v  0.0000 8.5772 3.6185
v  -0.4306 7.6596 3.4967
v  -0.3443 7.7459 3.6185
v  0.0000 7.4813 2.8837
v  0.4306 7.6596 2.8837
v  0.6090 8.0903 2.8837
v  0.4306 8.5209 2.8837
v  -0.4306 7.6596 2.8837
v  0.0000 8.6169 3.5413
v  0.3724 8.4627 3.5413
v  0.3724 8.4627 2.4880
v  0.0000 8.6169 2.4880
v  0.5267 8.0903 3.5413
v  0.5267 8.0903 2.4880
v  -0.3724 7.7179 3.5413
v  -0.5267 8.0903 3.5413
v  -0.5267 8.0903 2.4880
v  -0.3724 7.7179 2.4880
v  -0.3724 8.4627 3.5413
v  -0.3724 8.4627 2.4880
v  0.3724 7.7179 2.4880
v  0.0000 7.5636 2.4880
v  0.0000 7.4594 3.5741
v  -0.3443 8.4346 3.6185
v  -0.6309 8.0903 3.5741
v  -0.4870 8.0903 3.6185
v  -0.4461 7.6441 3.5741
v  0.0000 7.3013 3.4412
v  -0.7890 8.0903 3.4412
v  -0.5579 7.5324 3.4412
v  -0.0241 9.9050 2.1764
v  0.0241 10.6806 2.2601
v  -0.5059 10.4222 2.1513
v  -0.5059 9.6473 2.1749
v  0.5059 9.6473 2.1749
v  0.5059 10.4222 2.1513
v  0.5693 9.7270 1.1955
v  0.5693 10.5019 1.2979
v  -0.5693 9.7270 1.1955
v  -0.5693 10.5019 1.2979
v  0.0000 10.1211 0.4604
v  0.0000 10.8960 0.5627
v  0.6207 10.5666 0.5557
v  0.6207 9.7917 0.4534
v  0.3962 10.7001 1.3499
v  0.3521 10.6446 1.9438
v  -0.3521 10.6446 1.9438
v  -0.3962 10.7001 1.3499
v  0.0000 10.9744 0.8382
v  0.4320 10.7451 0.8333
v  -0.6207 10.5666 0.5557
v  -0.4320 10.7451 0.8333
v  -0.6207 9.7917 0.4534
v  0.0000 10.9020 1.3874
v  0.0000 10.8242 1.9384
# 286 vertices

vn -0.3825 -0.9234 -0.0318
vn 0.0444 0.9990 0.0031
vn 0.0491 0.9988 0.0028
vn 0.7299 -0.3023 -0.6130
vn 0.1111 0.9938 0.0047
vn -0.1790 -0.9829 0.0437
vn -0.9532 -0.2747 0.1261
vn -0.9234 0.3825 -0.0318
vn -0.0549 -0.9984 -0.0162
vn -0.9555 -0.2701 0.1189
vn -0.9179 0.3802 0.1134
vn -0.0542 -0.9985 -0.0122
vn -0.5318 0.1984 0.8233
vn -0.9141 -0.3786 -0.1452
vn -0.9022 -0.3737 -0.2155
vn -0.3798 -0.9170 0.1215
vn -0.3802 -0.9179 0.1134
vn -0.3786 -0.9141 -0.1452
vn -0.3737 -0.9022 -0.2155
vn -0.7299 -0.3023 -0.6130
vn 0.3737 -0.9022 -0.2155
vn 0.3786 -0.9141 -0.1452
vn 0.3825 -0.9234 -0.0318
vn 0.3802 -0.9179 0.1134
vn 0.3798 -0.9170 0.1215
vn 0.9022 -0.3737 -0.2155
vn 0.9141 -0.3786 -0.1452
vn 0.5318 0.1984 0.8233
vn -0.0444 0.9990 0.0031
vn -0.0491 0.9988 0.0028
vn 0.0549 -0.9984 -0.0162
vn 0.0542 -0.9985 -0.0122
vn 0.9234 0.3825 -0.0318
vn 0.9179 0.3802 0.1134
vn 0.9170 0.3798 0.1215
vn 0.9993 -0.0250 -0.0267
vn 0.3825 0.9234 -0.0318
vn 0.9532 -0.2747 0.1261
vn 0.9555 -0.2701 0.1189
vn 0.9626 -0.2682 -0.0378
vn 0.9472 -0.2999 0.1131
vn 0.9560 -0.2745 0.1039
vn 0.9640 -0.2639 -0.0340
vn 0.9008 -0.4334 -0.0261
vn 0.8948 -0.4266 0.1314
vn 0.6838 0.7283 0.0451
vn 0.6809 0.7252 -0.1020
vn 0.6806 0.7248 -0.1070
vn 0.1946 -0.9808 -0.0136
vn 0.1790 -0.9829 0.0437
vn 0.0623 0.0232 -0.9978
vn 0.1910 -0.9807 0.0405
vn 0.1353 -0.9895 0.0514
vn -0.0994 0.0061 -0.9950
vn 0.1381 -0.9889 0.0544
vn 0.1224 -0.9923 -0.0187
vn -0.1111 0.9938 0.0047
vn -0.1053 0.9944 -0.0011
vn 0.4494 -0.0278 0.8929
vn 0.2880 -0.1310 0.9486
vn -0.1075 0.9942 -0.0089
vn -0.1093 0.9940 0.0078
vn 0.1187 -0.9927 -0.0215
vn 0.1319 -0.9894 0.0614
vn -0.1121 0.9936 -0.0093
vn -0.3030 0.1378 -0.9430
vn 0.1378 -0.9887 0.0584
vn 0.9051 0.3681 -0.2128
vn 0.9022 0.3737 -0.2155
vn 0.9003 0.3797 -0.2128
vn 0.9113 0.3863 -0.1425
vn 0.9175 0.3712 -0.1425
vn 0.9141 0.3786 -0.1452
vn -0.3842 0.9231 -0.0187
vn 0.7946 -0.5453 -0.2671
vn -0.0070 0.9928 -0.1200
vn 0.4050 0.2697 0.8736
vn 0.0099 0.9968 -0.0795
vn -0.1367 -0.0910 -0.9864
vn -0.1630 -0.0773 -0.9836
vn 0.0255 0.9951 -0.0956
vn 0.1714 0.0812 0.9818
vn -0.0021 0.9896 -0.1436
vn 0.0571 -0.9983 -0.0117
vn 0.0564 -0.9983 -0.0144
vn 0.7434 0.6208 -0.2487
vn 0.7578 0.6329 -0.1586
vn 0.6254 0.5223 0.5798
vn -0.3826 0.9238 -0.0145
vn 0.4511 0.3767 -0.8090
vn 0.8324 -0.5250 -0.1775
vn -0.9560 -0.2745 0.1039
vn 0.3023 -0.7299 -0.6130
vn -0.6838 0.7283 0.0451
vn 0.7299 0.3023 -0.6130
vn -0.9626 -0.2682 -0.0378
vn -0.9008 -0.4334 -0.0261
vn 0.3023 0.7299 -0.6130
vn 0.5409 0.8378 0.0741
vn 0.1015 0.9792 -0.1754
vn -0.9993 -0.0250 -0.0267
vn -0.9170 0.3798 0.1215
vn 0.0902 0.9891 -0.1165
vn -0.3825 0.9234 -0.0318
vn 0.4934 0.7562 -0.4297
vn -0.0000 0.0000 -1.0000
vn -0.9472 -0.2999 0.1131
vn -0.9640 -0.2639 -0.0340
vn -0.6809 0.7252 -0.1020
vn -0.8948 -0.4266 0.1314
vn -0.6806 0.7248 -0.1070
vn -0.1946 -0.9808 -0.0136
vn 0.8880 0.4465 -0.1098
vn 0.8962 0.4158 -0.1549
vn -0.1224 -0.9923 -0.0187
vn -0.1353 -0.9895 0.0514
vn 0.8609 0.4229 0.2827
vn -0.6737 -0.2612 -0.6913
vn -0.0623 0.0232 -0.9978
vn 0.9994 -0.0120 -0.0319
vn 0.1053 0.9944 -0.0011
vn -0.4494 -0.0278 0.8929
vn 0.5172 0.2855 0.8069
vn -0.1381 -0.9889 0.0544
vn 0.0994 0.0061 -0.9950
vn 0.9998 -0.0076 -0.0208
vn -0.2880 -0.1310 0.9486
vn -0.1910 -0.9807 0.0405
vn 0.9239 -0.3827 0.0000
vn 0.1075 0.9942 -0.0089
vn 0.1093 0.9940 0.0078
vn -0.1187 -0.9927 -0.0215
vn -0.1319 -0.9894 0.0614
vn 0.1121 0.9936 -0.0093
vn 0.3030 0.1378 -0.9430
vn -0.1378 -0.9887 0.0584
vn -0.9051 0.3681 -0.2128
vn -0.9022 0.3737 -0.2155
vn -0.9003 0.3797 -0.2128
vn -0.9113 0.3863 -0.1425
vn -0.9175 0.3712 -0.1425
vn -0.9141 0.3786 -0.1452
vn 0.3842 0.9231 -0.0187
vn -0.7946 -0.5453 -0.2671
vn 0.0070 0.9928 -0.1200
vn -0.4050 0.2697 0.8736
vn -0.0099 0.9968 -0.0795
vn 0.1367 -0.0910 -0.9864
vn 0.1630 -0.0773 -0.9836
vn -0.0255 0.9951 -0.0956
vn -0.1714 0.0812 0.9818
vn 0.0021 0.9896 -0.1436
vn -0.0571 -0.9983 -0.0117
vn -0.0564 -0.9983 -0.0144
vn -0.7434 0.6208 -0.2487
vn -0.7578 0.6329 -0.1586
vn -0.6254 0.5223 0.5798
vn 0.3826 0.9238 -0.0145
vn -0.4511 0.3767 -0.8090
vn -0.8324 -0.5250 -0.1775
vn -0.3023 -0.7299 -0.6130
vn -0.7299 0.3023 -0.6130
vn -0.3023 0.7299 -0.6130
vn -0.5409 0.8378 0.0741
vn -0.1015 0.9792 -0.1754
vn -0.0902 0.9891 -0.1165
vn -0.4934 0.7562 -0.4297
vn -0.8880 0.4465 -0.1098
vn -0.8962 0.4158 -0.1549
vn 0.6737 -0.2612 -0.6913
vn -0.9994 -0.0120 -0.0319
vn -0.9998 -0.0076 -0.0208
vn 0.3827 -0.9239 0.0000
vn 0.1727 0.9792 0.1064
vn 0.1619 0.9819 0.0987
vn -0.1727 0.9792 0.1064
vn -0.1619 0.9819 0.0987
vn 0.4109 0.8888 0.2031
vn 0.4162 0.9085 0.0363
vn -0.4109 0.8888 0.2031
vn -0.4162 0.9085 0.0363
vn -0.2808 0.6778 -0.6795
vn -0.6778 0.2808 -0.6795
vn -0.6778 -0.2808 -0.6795
vn -0.2575 0.6216 0.7398
vn 0.2575 0.6216 0.7398
vn 0.6216 -0.2575 0.7398
vn -0.2808 -0.6778 -0.6795
vn 0.2808 0.6778 -0.6795
vn 0.0000 0.0000 1.0000
vn -0.9239 0.3827 0.0000
vn -0.3827 -0.9239 0.0000
vn 0.3827 0.9239 0.0000
vn 0.9239 0.3827 0.0000
vn -0.3827 0.9239 0.0000
vn -0.9239 -0.3827 0.0000
vn 0.1211 0.2925 0.9486
vn 0.2925 0.1211 0.9486
vn 0.2925 -0.1211 0.9486
vn 0.1211 -0.2925 0.9486
vn -0.2925 0.1211 0.9486
vn -0.2925 -0.1211 0.9486
vn -0.1211 0.2925 0.9486
vn -0.1211 -0.2925 0.9486
vn 0.2575 -0.6216 0.7398
vn -0.6216 0.2575 0.7398
vn 0.6778 -0.2808 -0.6795
vn 0.6216 0.2575 0.7398
vn -0.2575 -0.6216 0.7398
vn 0.6778 0.2808 -0.6795
vn -0.6216 -0.2575 0.7398
vn 0.2808 -0.6778 -0.6795
vn 0.3773 0.9108 0.1675
vn 0.9108 0.3773 0.1675
vn 0.9108 -0.3773 0.1675
vn 0.3773 -0.9108 0.1675
vn -0.9108 0.3773 0.1675
vn -0.3773 0.9108 0.1675
vn -0.0903 -0.0358 0.9953
vn -0.3773 -0.9108 0.1675
vn -0.9108 -0.3773 0.1675
vn -0.0476 0.9989 0.0027
vn -0.1097 0.9940 -0.0015
vn 0.1097 0.9940 -0.0015
vn 0.0476 0.9989 0.0027
vn -0.8609 0.4229 0.2827
vn -0.5172 0.2855 0.8069
vn 0.0874 -0.0413 0.9953
vn 0.0061 -0.2142 0.9768
vn -0.0063 -0.2144 0.9767
vn 0.9976 -0.0035 0.0687
vn -0.9976 -0.0035 0.0687
vn 0.0582 0.1307 -0.9897
vn 0.7630 0.6358 0.1161
vn -0.7630 0.6358 0.1161
vn 0.4525 0.8577 -0.2440
vn -0.4525 0.8577 -0.2440
vn -0.9976 -0.0090 0.0683
vn 0.9976 -0.0090 0.0683
vn -0.0582 0.1307 -0.9897
vn -0.4634 0.8790 0.1124
vn 0.4634 0.8790 0.1124
vn 0.4550 0.8823 0.1203
vn -0.4550 0.8823 0.1203
vn -0.4409 0.7851 0.4351
vn 0.4654 0.7934 0.3924
vn -0.7627 0.6376 0.1084
vn 0.7627 0.6376 0.1084
vn -0.9976 -0.0145 0.0678
vn 0.9976 -0.0145 0.0678
# 250 vertex normals

vt 0.5000 0.6667 0.0000
vt 0.5000 0.7500 0.0000
vt 0.6250 0.7500 0.0000
vt 0.6250 0.6667 0.0000
vt 0.7201 0.8257 0.0000
vt 0.7179 0.8680 0.0000
vt 0.7230 0.7192 0.0000
vt 0.7233 0.7477 0.0000
vt 0.6250 0.5000 0.0000
vt 0.7500 0.5000 0.0000
vt 0.6571 0.8680 0.0000
vt 0.6549 0.8257 0.0000
vt 0.7500 0.9167 0.0000
vt 0.7500 0.8333 0.0000
vt 0.7500 0.6667 0.0000
vt 0.7500 0.7500 0.0000
vt 0.8750 0.7500 0.0000
vt 0.8750 0.6667 0.0000
vt 0.7806 0.5929 0.0000
vt 0.7863 0.5402 0.0000
vt 0.8750 0.8333 0.0000
vt 0.7789 0.6216 0.0000
vt 0.6250 0.5833 0.0000
vt 0.7500 0.5833 0.0000
vt 0.5000 0.8333 0.0000
vt 0.5000 0.9167 0.0000
vt 0.6250 0.9167 0.0000
vt 0.6250 0.8333 0.0000
vt 0.5000 0.5833 0.0000
vt 0.5000 0.5000 0.0000
vt 0.8750 0.9167 0.0000
vt 0.8984 0.5906 0.0000
vt 0.8967 0.6322 0.0000
vt 1.0000 0.7500 0.0000
vt 1.0000 0.6667 0.0000
vt 0.6517 0.7477 0.0000
vt 0.6520 0.7192 0.0000
vt 0.8387 0.5402 0.0000
vt 0.8750 0.5000 0.0000
vt 0.8750 0.5833 0.0000
vt 0.8444 0.5929 0.0000
vt 0.8461 0.6216 0.0000
vt 1.0000 0.5000 0.0000
vt 0.9034 0.5307 0.0000
vt 0.9993 0.5307 0.0000
vt 1.0005 0.6322 0.0000
vt 0.8487 0.3487 0.0000
vt 0.7500 0.3895 0.0000
vt 0.7500 0.4900 0.0000
vt 0.9197 0.4197 0.0000
vt 0.8895 0.2500 0.0000
vt 0.9900 0.2500 0.0000
vt 0.9197 0.0803 0.0000
vt 0.8487 0.1513 0.0000
vt 0.7500 0.0100 0.0000
vt 0.7500 0.1105 0.0000
vt 1.0000 0.5833 0.0000
vt 0.4352 0.2500 0.0000
vt 0.3810 0.3810 0.0000
vt 0.2500 0.4352 0.0000
vt 0.8921 0.8914 0.0000
vt 0.8905 0.8294 0.0000
vt 0.8895 0.7755 0.0000
vt 1.0003 0.7755 0.0000
vt 0.9997 0.8914 0.0000
vt 1.0000 0.9167 0.0000
vt 0.2500 0.0648 0.0000
vt 0.3810 0.1190 0.0000
vt 0.8750 1.0000 0.0000
vt 1.0000 1.0000 0.0000
vt 0.7500 1.0000 0.0000
vt 0.6250 1.0000 0.0000
vt 0.3750 1.0000 0.0000
vt 0.2500 1.0000 0.0000
vt 0.2500 0.5000 0.0000
vt 0.3750 0.5000 0.0000
vt 0.1250 1.0000 0.0000
vt 0.1250 0.5000 0.0000
vt 0.0000 1.0000 0.0000
vt 0.0000 0.5000 0.0000
vt 0.5803 0.0803 0.0000
vt 0.5100 0.2500 0.0000
vt 0.5803 0.4197 0.0000
vt 0.4197 0.4197 0.0000
vt 0.2500 0.4900 0.0000
vt 0.4900 0.2500 0.0000
vt 0.4197 0.0803 0.0000
vt 0.2500 0.0100 0.0000
vt 0.5000 1.0000 0.0000
vt 1.0000 0.8333 0.0000
# 90 texture coords

o Cylinder
g Cylinder
usemtl Material_001
s off
f 1/1/1 2/2/1 3/3/1 4/4/1 
f 5/5/2 6/5/2 7/6/2 8/6/2 
f 9/7/3 10/7/3 11/8/3 12/8/3 
f 13/9/4 14/9/4 15/10/4 16/10/4 
f 17/7/5 9/7/5 12/8/5 18/8/5 
f 19/11/6 20/12/6 21/12/6 22/11/6 
f 23/6/7 24/13/7 25/14/7 26/5/7 
f 27/15/8 28/16/8 29/17/8 30/18/8 
f 31/19/9 32/19/9 33/20/9 34/20/9 
f 26/5/10 25/14/10 28/16/10 35/8/10 
f 28/16/11 25/14/11 36/21/11 29/17/11 
f 37/22/12 32/19/12 31/19/12 38/22/12 
f 7/6/13 19/11/13 22/11/13 8/6/13 
f 39/23/14 4/4/14 27/15/14 40/24/14 
f 41/9/15 39/23/15 40/24/15 42/10/15 
f 43/25/16 44/26/16 45/27/16 46/28/16 
f 2/2/17 43/25/17 46/28/17 3/3/17 
f 47/29/18 1/1/18 4/4/18 39/23/18 
f 48/30/19 47/29/19 39/23/19 41/9/19 
f 49/10/20 50/9/20 41/9/20 42/10/20 
f 51/23/21 47/29/21 48/30/21 13/9/21 
f 52/4/22 1/1/22 47/29/22 51/23/22 
f 53/3/23 2/2/23 1/1/23 52/4/23 
f 54/28/24 43/25/24 2/2/24 53/3/24 
f 55/27/25 44/26/25 43/25/25 54/28/25 
f 56/24/26 51/23/26 13/9/26 16/10/26 
f 57/15/27 52/4/27 51/23/27 56/24/27 
f 58/11/28 59/11/28 60/6/28 61/6/28 
f 62/5/29 61/6/29 60/6/29 63/5/29 
f 64/7/30 65/8/30 66/8/30 67/7/30 
f 68/19/31 69/20/31 70/20/31 71/19/31 
f 68/19/32 71/19/32 72/22/32 73/22/32 
f 74/17/33 75/16/33 57/15/33 76/18/33 
f 77/21/34 78/14/34 75/16/34 74/17/34 
f 79/31/35 80/13/35 78/14/35 77/21/35 
f 81/32/36 82/32/36 83/33/36 84/33/36 
f 85/34/37 74/17/37 76/18/37 86/35/37 
f 87/6/38 88/5/38 78/14/38 80/13/38 
f 88/5/39 89/8/39 75/16/39 78/14/39 
f 90/7/40 57/15/40 75/16/40 89/8/40 
f 91/11/41 55/27/41 54/28/41 92/12/41 
f 92/12/42 54/28/42 53/3/42 93/36/42 
f 94/37/43 93/36/43 53/3/43 52/4/43 
f 94/37/44 52/4/44 57/15/44 90/7/44 
f 87/6/45 80/13/45 55/27/45 91/11/45 
f 67/7/46 66/8/46 95/36/46 96/37/46 
f 63/5/47 97/12/47 95/36/47 66/8/47 
f 60/6/48 59/11/48 97/12/48 63/5/48 
f 98/37/49 96/37/49 95/36/49 99/36/49 
f 100/12/50 97/12/50 59/11/50 58/11/50 
f 98/37/51 64/7/51 67/7/51 96/37/51 
f 99/36/52 95/36/52 97/12/52 100/12/52 
f 101/36/53 99/36/53 100/12/53 102/12/53 
f 103/7/54 64/7/54 98/37/54 104/37/54 
f 102/12/55 100/12/55 58/11/55 105/11/55 
f 104/37/56 98/37/56 99/36/56 101/36/56 
f 103/7/57 106/8/57 65/8/57 64/7/57 
f 107/5/58 108/6/58 61/6/58 62/5/58 
f 108/6/59 105/11/59 58/11/59 61/6/59 
f 87/6/60 91/11/60 105/11/60 108/6/60 
f 88/5/61 87/6/61 108/6/61 107/5/61 
f 90/7/62 89/8/62 106/8/62 103/7/62 
f 94/37/63 104/37/63 101/36/63 93/36/63 
f 92/12/64 102/12/64 105/11/64 91/11/64 
f 89/8/65 88/5/65 107/5/65 106/8/65 
f 90/7/66 103/7/66 104/37/66 94/37/66 
f 93/36/67 101/36/67 102/12/67 92/12/67 
f 109/38/68 110/39/68 111/40/68 112/41/68 
f 113/20/69 16/10/69 110/39/69 109/38/69 
f 113/20/70 114/19/70 56/24/70 16/10/70 
f 115/42/71 112/41/71 111/40/71 76/18/71 
f 116/22/72 57/15/72 56/24/72 114/19/72 
f 115/42/73 76/18/73 57/15/73 116/22/73 
f 117/41/74 118/41/74 119/38/74 120/38/74 
f 71/19/75 70/20/75 121/20/75 122/19/75 
f 123/38/76 124/41/76 117/41/76 120/38/76 
f 73/22/77 72/22/77 125/42/77 126/42/77 
f 124/41/78 126/42/78 125/42/78 117/41/78 
f 69/20/79 123/38/79 120/38/79 70/20/79 
f 113/20/80 109/38/80 123/38/80 69/20/80 
f 112/41/81 115/42/81 126/42/81 124/41/81 
f 116/22/82 73/22/82 126/42/82 115/42/82 
f 109/38/83 112/41/83 124/41/83 123/38/83 
f 114/19/84 68/19/84 73/22/84 116/22/84 
f 114/19/85 113/20/85 69/20/85 68/19/85 
f 118/41/86 122/19/86 121/20/86 119/38/86 
f 127/42/87 128/22/87 122/19/87 118/41/87 
f 125/42/88 72/22/88 128/22/88 127/42/88 
f 117/41/89 125/42/89 127/42/89 118/41/89 
f 70/20/90 120/38/90 119/38/90 121/20/90 
f 71/19/91 122/19/91 128/22/91 72/22/91 
f 3/3/92 46/28/92 129/12/92 130/36/92 
f 48/30/93 131/30/93 14/9/93 13/9/93 
f 10/7/94 132/37/94 133/36/94 11/8/94 
f 16/10/95 15/10/95 134/39/95 110/39/95 
f 28/16/96 27/15/96 135/7/96 35/8/96 
f 27/15/97 4/4/97 136/37/97 135/7/97 
f 110/39/98 134/39/98 137/43/98 138/43/98 
f 139/44/99 110/39/99 138/43/99 140/45/99 
f 139/44/100 141/32/100 111/40/100 110/39/100 
f 142/33/101 143/32/101 144/32/101 145/33/101 
f 25/14/102 24/13/102 146/31/102 36/21/102 
f 147/33/103 76/18/103 111/40/103 141/32/103 
f 30/18/104 29/17/104 85/34/104 86/35/104 
f 147/33/105 148/46/105 86/35/105 76/18/105 
f 149/47/106 150/48/106 137/49/106 134/50/106 
f 151/51/106 149/47/106 134/50/106 15/52/106 
f 151/51/106 15/52/106 14/53/106 152/54/106 
f 152/54/106 14/53/106 131/55/106 153/56/106 
f 46/28/107 45/27/107 154/11/107 129/12/107 
f 136/37/108 4/4/108 3/3/108 130/36/108 
f 133/36/109 20/12/109 6/5/109 11/8/109 
f 45/27/110 24/13/110 23/6/110 154/11/110 
f 20/12/111 19/11/111 7/6/111 6/5/111 
f 133/36/112 132/37/112 155/37/112 156/36/112 
f 157/45/113 158/57/113 82/32/113 159/44/113 
f 158/57/114 160/46/114 83/33/114 82/32/114 
f 156/36/115 155/37/115 161/37/115 162/36/115 
f 21/12/116 156/36/116 162/36/116 163/12/116 
f 164/46/117 84/33/117 83/33/117 160/46/117 
f 165/45/118 157/45/118 159/44/118 166/44/118 
f 155/37/119 132/37/119 10/7/119 9/7/119 
f 166/44/120 159/44/120 82/32/120 81/32/120 
f 167/5/121 5/5/121 8/6/121 168/6/121 
f 168/6/122 8/6/122 22/11/122 169/11/122 
f 139/44/120 166/44/120 81/32/120 141/32/120 
f 140/45/118 165/45/118 166/44/118 139/44/118 
f 148/46/123 147/33/123 84/33/123 164/46/123 
f 22/11/124 21/12/124 163/12/124 169/11/124 
f 155/37/125 9/7/125 17/7/125 161/37/125 
f 141/32/126 81/32/126 84/33/126 147/33/126 
f 23/6/127 168/6/127 169/11/127 154/11/127 
f 20/12/128 133/36/128 156/36/128 21/12/128 
f 170/58/129 171/58/129 172/59/129 173/59/129 
f 26/5/130 167/5/130 168/6/130 23/6/130 
f 135/7/131 17/7/131 18/8/131 35/8/131 
f 162/36/132 161/37/132 136/37/132 130/36/132 
f 169/11/133 163/12/133 129/12/133 154/11/133 
f 35/8/134 18/8/134 167/5/134 26/5/134 
f 161/37/135 17/7/135 135/7/135 136/37/135 
f 163/12/136 162/36/136 130/36/136 129/12/136 
f 174/40/137 175/39/137 176/38/137 177/41/137 
f 175/39/138 42/10/138 178/20/138 176/38/138 
f 178/20/139 42/10/139 40/24/139 179/19/139 
f 180/42/140 30/18/140 174/40/140 177/41/140 
f 40/24/141 27/15/141 181/22/141 179/19/141 
f 27/15/142 30/18/142 180/42/142 181/22/142 
f 182/38/143 183/41/143 184/41/143 185/38/143 
f 32/19/144 186/19/144 187/20/144 33/20/144 
f 188/38/145 185/38/145 184/41/145 189/41/145 
f 190/42/146 37/22/146 38/22/146 191/42/146 
f 189/41/147 184/41/147 190/42/147 191/42/147 
f 34/20/148 33/20/148 185/38/148 188/38/148 
f 178/20/149 34/20/149 188/38/149 176/38/149 
f 177/41/150 189/41/150 191/42/150 180/42/150 
f 191/42/151 38/22/151 181/22/151 180/42/151 
f 176/38/152 188/38/152 189/41/152 177/41/152 
f 38/22/153 31/19/153 179/19/153 181/22/153 
f 179/19/154 31/19/154 34/20/154 178/20/154 
f 187/20/155 186/19/155 183/41/155 182/38/155 
f 186/19/156 192/22/156 193/42/156 183/41/156 
f 190/42/157 193/42/157 192/22/157 37/22/157 
f 184/41/158 183/41/158 193/42/158 190/42/158 
f 33/20/159 187/20/159 182/38/159 185/38/159 
f 192/22/160 186/19/160 32/19/160 37/22/160 
f 50/9/161 131/30/161 48/30/161 41/9/161 
f 194/39/162 49/10/162 42/10/162 175/39/162 
f 137/43/163 194/39/163 175/39/163 138/43/163 
f 138/43/164 175/39/164 195/44/164 140/45/164 
f 195/44/165 175/39/165 174/40/165 196/32/165 
f 174/40/166 30/18/166 197/33/166 196/32/166 
f 197/33/167 30/18/167 86/35/167 148/46/167 
f 198/47/106 194/50/106 137/49/106 150/48/106 
f 199/51/106 49/52/106 194/50/106 198/47/106 
f 50/53/106 49/52/106 199/51/106 200/54/106 
f 131/55/106 50/53/106 200/54/106 153/56/106 
f 157/45/168 201/44/168 143/32/168 158/57/168 
f 158/57/169 143/32/169 142/33/169 160/46/169 
f 201/44/170 157/45/170 165/45/170 202/44/170 
f 143/32/171 201/44/171 202/44/171 144/32/171 
f 144/32/171 202/44/171 195/44/171 196/32/171 
f 202/44/170 165/45/170 140/45/170 195/44/170 
f 145/33/172 144/32/172 196/32/172 197/33/172 
f 173/59/173 172/59/173 203/60/173 204/60/173 
f 149/47/106 198/47/106 150/48/106 
f 200/54/106 199/51/106 198/47/106 149/47/106 151/51/106 152/54/106 153/56/106 
f 205/61/174 79/31/174 77/21/174 206/62/174 
f 207/63/175 206/62/175 77/21/175 74/17/175 
f 208/61/176 209/62/176 36/21/176 146/31/176 
f 210/63/177 29/17/177 36/21/177 209/62/177 
f 207/63/178 74/17/178 85/34/178 211/64/178 
f 205/61/179 212/65/179 213/66/179 79/31/179 
f 210/63/180 211/64/180 85/34/180 29/17/180 
f 208/61/181 146/31/181 213/66/181 212/65/181 
f 214/67/182 215/67/182 216/68/182 217/68/182 
f 217/68/183 216/68/183 218/58/183 219/58/183 
f 219/58/184 218/58/184 220/59/184 221/59/184 
f 222/69/185 223/69/185 224/70/185 225/70/185 
f 225/70/186 224/70/186 226/69/186 227/69/186 
f 228/71/187 229/71/187 230/72/187 231/72/187 
f 221/59/188 220/59/188 232/60/188 204/60/188 
f 233/68/189 234/68/189 215/67/189 214/67/189 
f 235/67/190 236/68/190 237/58/190 238/59/190 203/60/190 
f 171/58/190 239/68/190 235/67/190 203/60/190 172/59/190 
f 219/58/191 237/58/191 236/68/191 217/68/191 
f 204/60/192 203/60/192 238/59/192 221/59/192 
f 214/67/193 235/67/193 239/68/193 233/68/193 
f 233/68/194 239/68/194 171/58/194 170/58/194 
f 217/68/195 236/68/195 235/67/195 214/67/195 
f 221/59/196 238/59/196 237/58/196 219/58/196 
f 240/70/193 241/69/193 242/39/193 243/43/193 
f 241/69/194 244/71/194 245/10/194 242/39/194 
f 246/73/196 247/74/196 248/75/196 249/76/196 
f 247/74/191 250/77/191 251/78/191 248/75/191 
f 250/77/195 240/79/195 243/80/195 251/78/195 
f 249/81/106 248/82/106 251/83/106 243/49/106 242/50/106 245/52/106 252/53/106 253/55/106 
f 220/59/197 226/84/197 224/85/197 232/60/197 
f 218/58/198 229/86/198 226/84/198 220/59/198 
f 216/68/199 230/87/199 229/86/199 218/58/199 
f 215/67/200 254/88/200 230/87/200 216/68/200 
f 255/59/201 223/84/201 256/86/201 257/58/201 
f 257/58/202 256/86/202 258/87/202 234/68/202 
f 232/60/203 224/85/203 223/84/203 255/59/203 
f 234/68/204 258/87/204 254/88/204 215/67/204 
f 231/72/205 230/72/205 254/89/205 259/89/205 
f 260/71/206 256/71/206 223/69/206 222/69/206 
f 173/59/207 255/59/207 257/58/207 170/58/207 
f 227/69/208 226/69/208 229/71/208 228/71/208 
f 259/89/209 254/89/209 258/72/209 261/72/209 
f 170/58/210 257/58/210 234/68/210 233/68/210 
f 261/72/211 258/72/211 256/71/211 260/71/211 
f 204/60/212 232/60/212 255/59/212 173/59/212 
usemtl Material_002
f 225/70/213 227/69/213 79/31/213 213/66/213 
f 227/69/214 228/71/214 80/13/214 79/31/214 
f 228/71/215 231/72/215 55/27/215 80/13/215 
f 231/72/216 259/89/216 44/26/216 55/27/216 
f 24/13/217 260/71/217 222/69/217 146/31/217 
f 146/31/218 222/69/218 225/70/218 213/66/218 
f 262/65/219 263/65/219 264/61/219 265/61/219 
f 44/26/220 259/89/220 261/72/220 45/27/220 
f 45/27/221 261/72/221 260/71/221 24/13/221 
f 65/8/222 62/5/222 63/5/222 66/8/222 
f 106/8/223 107/5/223 62/5/223 65/8/223 
f 18/8/224 12/8/224 5/5/224 167/5/224 
f 12/8/225 11/8/225 6/5/225 5/5/225 
f 164/46/226 160/46/226 142/33/226 145/33/226 
f 148/46/227 164/46/227 145/33/227 197/33/227 
f 262/65/228 266/61/228 267/61/228 263/65/228 
f 212/65/229 205/61/229 266/61/229 262/65/229 
f 212/65/230 262/65/230 265/61/230 208/61/230 
usemtl Material_003
f 268/62/231 269/62/231 267/61/231 266/61/231 
f 270/62/232 265/61/232 264/61/232 271/62/232 
f 272/64/233 273/64/233 274/63/233 275/63/233 
f 269/62/234 276/62/234 277/61/234 267/61/234 
f 271/62/235 264/61/235 278/61/235 279/62/235 
f 273/64/236 280/64/236 281/63/236 274/63/236 
f 273/64/237 282/63/237 283/63/237 280/64/237 
f 270/62/238 271/62/238 282/63/238 284/63/238 
f 268/62/239 275/63/239 274/63/239 269/62/239 
f 272/64/240 284/63/240 282/63/240 273/64/240 
f 280/64/241 283/63/241 279/62/241 285/90/241 
f 280/64/242 285/90/242 276/62/242 281/63/242 
f 285/90/243 286/65/243 277/61/243 276/62/243 
f 285/90/244 279/62/244 278/61/244 286/65/244 
f 263/65/245 286/65/245 278/61/245 264/61/245 
f 263/65/246 267/61/246 277/61/246 286/65/246 
f 271/62/247 279/62/247 283/63/247 282/63/247 
f 269/62/248 274/63/248 281/63/248 276/62/248 
f 211/64/240 210/63/240 284/63/240 272/64/240 
f 206/62/239 207/63/239 275/63/239 268/62/239 
f 209/62/238 270/62/238 284/63/238 210/63/238 
f 211/64/233 272/64/233 275/63/233 207/63/233 
f 208/61/249 265/61/249 270/62/249 209/62/249 
f 205/61/250 206/62/250 268/62/250 266/61/250 
# 273 polygons - 1 triangles

