# 3ds Max Wavefront OBJ Exporter v0.99 - (c)2007 guruware
# File Created: 10.11.2025 08:38:56

mtllib avion_helice.mtl

#
# object Cylinder_001
#

v  -0.4035 8.0903 3.5464
v  -0.4035 8.0903 3.1402
v  -0.2853 8.3756 3.1402
v  -0.2853 8.3756 3.5464
v  0.0000 8.4937 3.1402
v  0.0000 8.4937 3.5464
v  0.2931 7.7972 3.7078
v  0.2853 7.8049 3.5464
v  -0.0000 7.6868 3.5464
v  -0.0000 7.6758 3.7078
v  0.4145 8.0903 3.7078
v  0.4035 8.0903 3.5464
v  0.2853 8.3756 3.5464
v  0.2931 8.3833 3.7078
v  0.0000 8.5047 3.7078
v  -0.2931 7.7972 3.7078
v  -0.2853 7.8049 3.5464
v  -0.0000 7.6868 3.1402
v  0.2853 7.8049 3.1402
v  0.2853 8.3756 3.1402
v  0.4035 8.0903 3.1402
v  -0.2853 7.8049 3.1402
v  1.6938 8.0902 3.7337
v  1.4780 8.2787 3.7337
v  2.0535 8.3087 3.7337
v  2.3166 8.0902 3.7337
v  -0.4483 8.0903 3.8889
v  -0.3170 7.7733 3.8889
v  -0.2491 7.8411 4.1542
v  -0.3523 8.0903 4.1542
v  -0.3170 7.7733 3.6421
v  -0.0000 7.6420 3.6421
v  -0.0000 7.6420 3.8889
v  0.0000 8.5385 3.6421
v  -0.3170 8.4072 3.6421
v  -0.3170 8.4072 3.8889
v  0.0000 8.5385 3.8889
v  0.3170 8.4072 3.8889
v  0.3170 8.4072 3.6421
v  -2.0535 8.3087 3.7338
v  -2.0535 8.3087 3.7973
v  -1.4780 8.2787 3.7973
v  -1.4780 8.2787 3.7338
v  -1.6938 8.0903 3.7337
v  -2.3166 8.0903 3.7338
v  0.3170 7.7733 3.6421
v  0.3170 7.7733 3.8889
v  -1.4780 7.8599 3.7973
v  -1.6938 8.0903 3.7973
v  -2.3166 8.0903 3.7973
v  -2.0535 7.8718 3.7973
v  0.1089 8.1992 4.4036
v  0.2491 8.3394 4.1542
v  0.0000 8.4426 4.1542
v  0.0000 8.2443 4.4036
v  0.2491 7.8411 4.1542
v  -0.0000 7.7379 4.1542
v  0.3523 8.0903 4.1542
v  0.4483 8.0903 3.8889
v  -0.2491 8.3394 4.1542
v  -0.1540 8.0903 4.4036
v  -0.0435 8.0903 4.5785
v  -0.0307 8.1210 4.5785
v  -0.1089 8.1992 4.4036
v  -0.1089 7.9814 4.4036
v  0.1089 7.9813 4.4036
v  -0.0000 7.9362 4.4036
v  0.1540 8.0903 4.4036
v  0.0115 8.0903 4.6317
v  0.0435 8.0903 4.5785
v  0.0307 8.1210 4.5785
v  0.0081 8.0984 4.6317
v  0.0000 8.0468 4.5785
v  -0.0307 8.0595 4.5785
v  0.0307 8.0595 4.5785
v  0.0000 8.1337 4.5785
v  0.0000 8.1017 4.6317
v  -0.0081 8.0984 4.6317
v  -0.0115 8.0903 4.6317
v  -0.0081 8.0821 4.6317
v  0.0000 8.0788 4.6317
v  0.0081 8.0821 4.6317
v  0.4483 8.0903 3.7337
v  0.4483 8.0903 3.6421
v  0.3272 8.2186 3.7337
v  0.3272 7.8359 3.7337
v  -0.4483 8.0903 3.7337
v  -0.4483 8.0903 3.6421
v  -0.3272 7.8359 3.7337
v  -0.3272 8.2186 3.7337
v  0.4483 8.0903 3.7973
v  0.3272 8.2186 3.7973
v  0.3272 7.8359 3.7973
v  -0.4483 8.0903 3.7973
v  -0.3272 7.8359 3.7973
v  -0.3272 8.2186 3.7973
v  2.0535 8.3087 3.7973
v  2.3166 8.0902 3.7973
v  2.0535 7.8718 3.7337
v  2.0535 7.8718 3.7973
v  -2.0535 7.8718 3.7337
v  1.6938 8.0902 3.7973
v  1.4780 8.2787 3.7973
v  1.4780 7.8598 3.7973
v  1.4780 7.8598 3.7337
v  -1.4780 7.8599 3.7337
v  -0.2931 8.3833 3.7078
v  -0.4145 8.0903 3.7078
v  0.9026 7.8479 3.7973
v  1.0710 8.0903 3.7973
v  0.9026 8.2487 3.7973
v  0.9026 8.2487 3.7337
v  1.0710 8.0903 3.7337
v  0.9026 7.8479 3.7337
v  -0.9026 7.8479 3.7973
v  -0.9026 7.8479 3.7337
v  -1.0710 8.0903 3.7337
v  -0.9026 8.2487 3.7973
v  -1.0710 8.0903 3.7973
v  -0.9026 8.2487 3.7337
# 120 vertices

vn 0.9239 -0.3827 -0.0000
vn 0.3827 -0.9239 -0.0000
vn -0.3819 0.9221 0.0628
vn -0.9221 0.3819 0.0628
vn -0.9221 -0.3819 0.0628
vn -0.3819 -0.9221 0.0628
vn 0.3819 0.9221 0.0628
vn 0.0000 0.0000 1.0000
vn -0.9239 0.3827 -0.0000
vn -0.3827 -0.9239 -0.0000
vn 0.3827 0.9239 -0.0000
vn 0.9239 0.3827 -0.0000
vn -0.3827 0.9239 -0.0000
vn -0.9239 -0.3827 -0.0000
vn 0.0000 0.0000 -1.0000
vn -0.8763 -0.3630 0.3169
vn 0.0521 0.9986 -0.0000
vn 0.3084 0.7445 0.5921
vn 0.3630 -0.8763 0.3169
vn 0.8763 0.3630 0.3169
vn -0.8763 0.3630 0.3169
vn -0.3630 -0.8763 0.3169
vn 0.8763 -0.3630 0.3169
vn 0.3630 0.8763 0.3169
vn -0.3630 0.8763 0.3169
vn -0.7978 0.3305 0.5042
vn -0.3084 0.7445 0.5921
vn -0.7445 -0.3084 0.5921
vn 0.3084 -0.7445 0.5921
vn 0.7445 0.3084 0.5921
vn -0.7445 0.3084 0.5921
vn -0.3084 -0.7445 0.5921
vn 0.7445 -0.3084 0.5921
vn 0.8073 0.3344 0.4863
vn -0.3305 -0.7979 0.5042
vn 0.7979 -0.3305 0.5042
vn 0.3305 0.7979 0.5042
vn -0.3305 0.7979 0.5042
vn -0.7978 -0.3305 0.5042
vn 0.3305 -0.7979 0.5042
vn 0.7978 0.3305 0.5042
vn -0.8073 0.3344 0.4863
vn -0.3344 -0.8073 0.4863
vn 0.8073 -0.3344 0.4863
vn 0.3344 0.8073 0.4863
vn -0.3344 0.8073 0.4863
vn -0.8073 -0.3344 0.4863
vn 0.3344 -0.8073 0.4863
vn 0.7907 0.4481 0.4171
vn 0.9112 -0.4026 0.0868
vn -0.9112 -0.4026 0.0868
vn -0.7907 0.4481 0.4171
vn 0.7907 0.4481 -0.4171
vn 0.9113 -0.4026 -0.0868
vn -0.9112 -0.4026 -0.0868
vn -0.7907 0.4481 -0.4171
vn 0.9985 0.0540 -0.0000
vn -0.9870 -0.1607 -0.0000
vn -0.9985 0.0540 -0.0000
vn 0.9870 -0.1607 -0.0000
vn 0.6387 0.7695 -0.0000
vn 0.6387 -0.7695 -0.0000
vn -0.6387 -0.7695 -0.0000
vn -0.6387 0.7695 -0.0000
vn 0.0208 -0.9998 -0.0000
vn -0.0521 0.9986 -0.0000
vn -0.0208 -0.9998 -0.0000
vn 0.9221 -0.3819 0.0628
vn 0.9221 0.3819 0.0628
vn 0.3819 -0.9221 0.0628
# 70 vertex normals

vt 0.4352 0.2500 0.0000
vt 0.3810 0.3810 0.0000
vt 0.2500 0.4352 0.0000
vt 0.3810 0.1190 0.0000
vt 0.2500 0.0648 0.0000
vt 0.7500 1.0000 0.0000
vt 0.8653 1.0000 0.0000
vt 0.2500 1.0000 0.0000
vt 0.3750 1.0000 0.0000
vt 0.5000 1.0000 0.0000
vt 0.0000 1.0000 0.0000
vt 0.1250 1.0000 0.0000
vt 1.0000 1.0000 0.0000
vt 0.8750 1.0000 0.0000
vt 0.1347 1.0000 0.0000
vt 0.6250 1.0000 0.0000
vt 0.3653 1.0000 0.0000
vt 0.2500 0.4900 0.0000
vt 0.0803 0.4197 0.0000
vt 0.0100 0.2500 0.0000
vt 0.0803 0.0803 0.0000
vt 0.2500 0.0100 0.0000
vt 0.4197 0.4197 0.0000
vt 0.4197 0.0803 0.0000
vt 0.4900 0.2500 0.0000
vt 0.6347 1.0000 0.0000
# 26 texture coords

o Cylinder_001
g Cylinder_001
usemtl Material_003
s off
f 1/1/1 2/1/1 3/2/1 4/2/1 
f 3/2/2 5/3/2 6/3/2 4/2/2 
f 7/4/3 8/4/3 9/5/3 10/5/3 
f 7/4/4 11/1/4 12/1/4 8/4/4 
f 13/2/5 12/1/5 11/1/5 14/2/5 
f 6/3/6 13/2/6 14/2/6 15/3/6 
f 16/4/7 10/5/7 9/5/7 17/4/7 
f 5/3/8 18/5/8 19/4/8 20/2/8 
f 19/4/8 21/1/8 20/2/8 
f 3/2/8 2/1/8 22/4/8 18/5/8 
f 3/2/8 18/5/8 5/3/8 
f 8/4/9 12/1/9 21/1/9 19/4/9 
f 20/2/10 13/2/10 6/3/10 5/3/10 
f 18/5/11 22/4/11 17/4/11 9/5/11 
f 17/4/12 22/4/12 2/1/12 1/1/12 
f 18/5/13 9/5/13 8/4/13 19/4/13 
f 21/1/14 12/1/14 13/2/14 20/2/14 
f 23/6/15 24/7/15 25/7/15 26/6/15 
f 27/8/16 28/9/16 29/9/16 30/8/16 
f 28/9/10 31/9/10 32/10/10 33/10/10 
f 34/11/13 35/12/13 36/12/13 37/11/13 
f 34/13/11 37/13/11 38/14/11 39/14/11 
f 40/15/17 41/15/17 42/15/17 43/15/17 
f 43/15/15 44/8/15 45/8/15 40/15/15 
f 32/10/2 46/16/2 47/16/2 33/10/2 
f 48/17/8 49/8/8 50/8/8 51/17/8 
f 52/14/18 53/14/18 54/13/18 55/13/18 
f 47/16/19 56/16/19 57/10/19 33/10/19 
f 58/6/20 59/6/20 38/14/20 53/14/20 
f 36/12/21 27/8/21 30/8/21 60/12/21 
f 57/10/22 29/9/22 28/9/22 33/10/22 
f 47/16/23 59/6/23 58/6/23 56/16/23 
f 53/14/24 38/14/24 37/13/24 54/13/24 
f 54/11/25 37/11/25 36/12/25 60/12/25 
f 61/8/26 62/8/26 63/12/26 64/12/26 
f 55/11/27 54/11/27 60/12/27 64/12/27 
f 30/8/28 29/9/28 65/9/28 61/8/28 
f 57/10/29 56/16/29 66/16/29 67/10/29 
f 52/14/30 68/6/30 58/6/30 53/14/30 
f 61/8/31 64/12/31 60/12/31 30/8/31 
f 65/9/32 29/9/32 57/10/32 67/10/32 
f 68/6/33 66/16/33 56/16/33 58/6/33 
f 69/6/34 70/6/34 71/14/34 72/14/34 
f 73/10/35 74/9/35 65/9/35 67/10/35 
f 75/16/36 66/16/36 68/6/36 70/6/36 
f 71/14/37 52/14/37 55/13/37 76/13/37 
f 76/11/38 55/11/38 64/12/38 63/12/38 
f 74/9/39 62/8/39 61/8/39 65/9/39 
f 66/16/40 75/16/40 73/10/40 67/10/40 
f 70/6/41 68/6/41 52/14/41 71/14/41 
f 77/18/8 78/19/8 79/20/8 80/21/8 
f 77/18/8 80/21/8 81/22/8 72/23/8 
f 82/24/8 69/25/8 72/23/8 81/22/8 
f 78/12/42 63/12/42 62/8/42 79/8/42 
f 80/9/43 74/9/43 73/10/43 81/10/43 
f 69/6/44 82/16/44 75/16/44 70/6/44 
f 76/13/45 77/13/45 72/14/45 71/14/45 
f 63/12/46 78/12/46 77/11/46 76/11/46 
f 74/9/47 80/9/47 79/8/47 62/8/47 
f 75/16/48 82/16/48 81/10/48 73/10/48 
f 83/6/49 84/6/49 39/14/49 85/7/49 
f 84/6/50 83/6/50 86/26/50 46/16/50 
f 87/8/51 88/8/51 31/9/51 89/17/51 
f 87/8/52 90/15/52 35/12/52 88/8/52 
f 59/6/53 91/6/53 92/7/53 38/14/53 
f 47/16/54 93/26/54 91/6/54 59/6/54 
f 27/8/55 94/8/55 95/17/55 28/9/55 
f 96/15/56 94/8/56 27/8/56 36/12/56 
f 85/7/57 39/14/57 38/14/57 92/7/57 
f 31/9/58 28/9/58 95/17/58 89/17/58 
f 96/15/59 36/12/59 35/12/59 90/15/59 
f 47/16/60 46/16/60 86/26/60 93/26/60 
f 25/7/61 97/7/61 98/6/61 26/6/61 
f 99/26/62 26/6/62 98/6/62 100/26/62 
f 101/17/63 51/17/63 50/8/63 45/8/63 
f 40/15/64 45/8/64 50/8/64 41/15/64 
f 41/15/8 50/8/8 49/8/8 42/15/8 
f 102/6/8 98/6/8 97/7/8 103/7/8 
f 104/26/65 105/26/65 99/26/65 100/26/65 
f 23/6/15 26/6/15 99/26/15 105/26/15 
f 103/7/66 97/7/66 25/7/66 24/7/66 
f 102/6/8 104/26/8 100/26/8 98/6/8 
f 106/17/15 101/17/15 45/8/15 44/8/15 
f 48/17/67 51/17/67 101/17/67 106/17/67 
f 4/2/68 107/2/68 108/1/68 1/1/68 
f 16/4/69 17/4/69 1/1/69 108/1/69 
f 6/3/70 15/3/70 107/2/70 4/2/70 
f 109/26/8 110/6/8 91/6/8 93/26/8 
f 92/7/66 111/7/66 112/7/66 85/7/66 
f 103/7/66 24/7/66 112/7/66 111/7/66 
f 86/26/15 83/6/15 113/6/15 114/26/15 
f 114/26/15 113/6/15 23/6/15 105/26/15 
f 109/26/65 93/26/65 86/26/65 114/26/65 
f 104/26/65 109/26/65 114/26/65 105/26/65 
f 91/6/8 110/6/8 111/7/8 92/7/8 
f 112/7/15 113/6/15 83/6/15 85/7/15 
f 24/7/15 23/6/15 113/6/15 112/7/15 
f 115/17/67 116/17/67 89/17/67 95/17/67 
f 106/17/67 116/17/67 115/17/67 48/17/67 
f 89/17/15 116/17/15 117/8/15 87/8/15 
f 117/8/15 116/17/15 106/17/15 44/8/15 
f 94/8/8 96/15/8 118/15/8 119/8/8 
f 115/17/8 95/17/8 94/8/8 119/8/8 
f 90/15/15 87/8/15 117/8/15 120/15/15 
f 117/8/15 44/8/15 43/15/15 120/15/15 
f 96/15/17 90/15/17 120/15/17 118/15/17 
f 42/15/17 118/15/17 120/15/17 43/15/17 
usemtl Material_004
f 110/6/8 109/26/8 104/26/8 102/6/8 
f 102/6/8 103/7/8 111/7/8 110/6/8 
f 49/8/8 119/8/8 118/15/8 42/15/8 
f 49/8/8 48/17/8 115/17/8 119/8/8 
# 109 polygons - 2 triangles

