# 3ds Max Wavefront OBJ Exporter v0.99 - (c)2007 guruware
# File Created: 22.10.2025 15:47:47

mtllib Skylight.mtl

#
# object Bridge_Plane_01_low
#

v  15.5327 5.4604 17.7901
v  15.5327 2.2996 17.7901
v  15.5327 3.0110 15.6275
v  15.5327 5.4604 15.6275
v  15.5327 3.7282 12.6193
v  15.5327 5.4604 12.6193
v  15.5327 4.1435 10.1658
v  15.5327 5.4604 10.1658
v  15.5327 4.4221 7.6243
v  15.5327 5.4604 7.6243
v  15.5327 4.5095 5.0829
v  15.5327 5.4604 5.0829
v  15.5327 4.4971 2.5414
v  15.5327 5.4604 2.5414
v  15.5327 4.3383 0.1391
v  15.5327 5.4604 0.1391
v  -15.5326 5.4604 17.7901
v  -15.5326 5.4604 15.6275
v  -15.5326 3.0110 15.6275
v  -15.5326 2.2996 17.7901
v  -15.5326 5.4604 12.6193
v  -15.5326 3.7282 12.6193
v  -15.5326 5.4604 10.1658
v  -15.5326 4.1435 10.1658
v  -15.5326 5.4604 7.6243
v  -15.5326 4.4221 7.6243
v  -15.5326 5.4604 5.0829
v  -15.5326 4.5095 5.0829
v  -15.5326 5.4604 2.5414
v  -15.5326 4.4971 2.5414
v  -15.5326 5.4604 0.1391
v  -15.5326 4.3383 0.1391
v  15.5327 5.4604 -17.7901
v  15.5327 5.4604 -15.6275
v  15.5327 3.0110 -15.6275
v  15.5327 2.2996 -17.7901
v  15.5327 5.4604 -12.6193
v  15.5327 3.7282 -12.6193
v  15.5327 5.4604 -10.1658
v  15.5327 4.1435 -10.1658
v  15.5327 5.4604 -7.6243
v  15.5327 4.4221 -7.6243
v  15.5327 5.4604 -5.0829
v  15.5327 4.5095 -5.0829
v  15.5327 5.4604 -2.5414
v  15.5327 4.4971 -2.5414
v  15.5327 5.4604 -0.1391
v  15.5327 4.3383 -0.1391
v  -15.5326 5.4604 -17.7901
v  -15.5326 2.2996 -17.7901
v  -15.5326 3.0110 -15.6275
v  -15.5326 5.4604 -15.6275
v  -15.5326 3.7282 -12.6193
v  -15.5326 5.4604 -12.6193
v  -15.5326 4.1435 -10.1658
v  -15.5326 5.4604 -10.1658
v  -15.5326 4.4221 -7.6243
v  -15.5326 5.4604 -7.6243
v  -15.5326 4.5095 -5.0829
v  -15.5326 5.4604 -5.0829
v  -15.5326 4.4971 -2.5414
v  -15.5326 5.4604 -2.5414
v  -15.5326 4.3383 -0.1391
v  -15.5326 5.4604 -0.1391
# 64 vertices

vn 0.0000 -0.0000 -1.0000
vn 0.0000 0.0000 -1.0000
vn -0.0000 -0.0000 -1.0000
vn -0.0000 0.0000 -1.0000
# 4 vertex normals

vt 0.7109 0.8934 0.0000
vt 0.6464 0.9008 0.0000
vt 0.6558 0.8550 0.0000
vt 0.7058 0.8492 0.0000
vt 0.6634 0.7919 0.0000
vt 0.6987 0.7878 0.0000
vt 0.6661 0.7409 0.0000
vt 0.6929 0.7378 0.0000
vt 0.6658 0.6883 0.0000
vt 0.6869 0.6859 0.0000
vt 0.6615 0.6363 0.0000
vt 0.6810 0.6340 0.0000
vt 0.6553 0.5844 0.0000
vt 0.6750 0.5821 0.0000
vt 0.6464 0.5358 0.0000
vt 0.6693 0.5331 0.0000
# 16 texture coords

o Bridge_Plane_01_low
g Bridge_Plane_01_low
usemtl Glass
s off
f 1/1/1 2/2/1 3/3/1 4/4/1 
f 4/4/1 3/3/1 5/5/1 6/6/1 
f 6/6/1 5/5/1 7/7/1 8/8/2 
f 8/8/2 7/7/1 9/9/2 10/10/2 
f 10/10/2 9/9/2 11/11/1 12/12/1 
f 12/12/1 11/11/1 13/13/2 14/14/2 
f 14/14/2 13/13/2 15/15/2 16/16/2 
f 17/1/3 18/4/3 19/3/3 20/2/3 
f 18/4/3 21/6/3 22/5/3 19/3/3 
f 21/6/3 23/8/4 24/7/3 22/5/3 
f 23/8/4 25/10/4 26/9/4 24/7/3 
f 25/10/4 27/12/3 28/11/3 26/9/4 
f 27/12/3 29/14/4 30/13/4 28/11/3 
f 29/14/4 31/16/4 32/15/4 30/13/4 
f 33/1/2 34/4/2 35/3/2 36/2/2 
f 34/4/2 37/6/2 38/5/2 35/3/2 
f 37/6/2 39/8/1 40/7/2 38/5/2 
f 39/8/1 41/10/1 42/9/1 40/7/2 
f 41/10/1 43/12/2 44/11/2 42/9/1 
f 43/12/2 45/14/1 46/13/1 44/11/2 
f 45/14/1 47/16/1 48/15/1 46/13/1 
f 49/1/4 50/2/4 51/3/4 52/4/4 
f 52/4/4 51/3/4 53/5/4 54/6/4 
f 54/6/4 53/5/4 55/7/4 56/8/3 
f 56/8/3 55/7/4 57/9/3 58/10/3 
f 58/10/3 57/9/3 59/11/4 60/12/4 
f 60/12/4 59/11/4 61/13/3 62/14/3 
f 62/14/3 61/13/3 63/15/3 64/16/3 
# 28 polygons

#
# object Window_Plane_01_low
#

v  0.0000 5.7996 18.7946
v  0.0000 15.6148 0.4384
v  15.7321 15.6148 0.4384
v  33.9914 5.7996 18.7946
v  -33.9914 5.7996 18.7946
v  -15.7321 15.6148 0.4384
v  0.0000 5.7996 -18.7945
v  33.9914 5.7996 -18.7945
v  15.7321 15.6148 -0.4383
v  0.0000 15.6148 -0.4383
v  -15.7321 15.6148 -0.4383
v  -33.9914 5.7996 -18.7945
# 12 vertices

vn 0.0000 -0.0000 1.0000
# 1 vertex normals

vt 0.4296 0.7000 0.0000
vt 0.0020 0.7007 0.0000
vt 0.0020 0.3771 0.0000
vt 0.4296 0.0020 0.0000
# 4 texture coords

o Window_Plane_01_low
g Window_Plane_01_low
usemtl Material__47
s off
f 65/17/5 66/18/5 67/19/5 68/20/5 
f 65/17/5 69/20/5 70/19/5 66/18/5 
f 71/17/5 72/20/5 73/19/5 74/18/5 
f 71/17/5 74/18/5 75/19/5 76/20/5 
# 4 polygons

#
# object Window_Plane_02_low
#

v  15.8806 15.6275 0.0000
v  34.2724 5.9572 0.0000
v  34.2724 5.9572 18.6706
v  15.8806 15.6275 0.2844
v  -15.8806 15.6275 0.0000
v  -15.8806 15.6275 0.2844
v  -34.2724 5.9572 18.6706
v  -34.2724 5.9572 0.0000
v  15.8806 15.6275 -0.2844
v  34.2724 5.9572 -18.6706
v  -34.2724 5.9572 -18.6706
v  -15.8806 15.6275 -0.2844
# 12 vertices

vn 0.0000 0.0000 1.0000
# 1 vertex normals

vt 0.7176 0.5759 0.0000
vt 0.4347 0.2561 0.0000
vt 0.7220 0.0020 0.0000
vt 0.7220 0.5720 0.0000
# 4 texture coords

o Window_Plane_02_low
g Window_Plane_02_low
usemtl Material__47
s off
f 77/21/6 78/22/6 79/23/6 80/24/6 
f 81/21/6 82/24/6 83/23/6 84/22/6 
f 77/21/6 85/24/6 86/23/6 78/22/6 
f 81/21/6 84/22/6 87/23/6 88/24/6 
# 4 polygons

#
# object Ball_01
#

v  15.5894 3.9142 -0.0544
v  15.5351 3.9142 -0.0769
v  15.5351 3.9578 -0.1421
v  15.6355 3.9578 -0.1005
v  15.4807 3.9142 -0.0544
v  15.4346 3.9578 -0.1005
v  15.4582 3.9142 0.0000
v  15.3930 3.9578 0.0000
v  15.4807 3.9142 0.0544
v  15.4346 3.9578 0.1005
v  15.5351 3.9142 0.0769
v  15.5351 3.9578 0.1421
v  15.5894 3.9142 0.0544
v  15.6355 3.9578 0.1005
v  15.6119 3.9142 0.0000
v  15.6771 3.9578 0.0000
v  15.5351 4.0230 -0.1856
v  15.6663 4.0230 -0.1313
v  15.4038 4.0230 -0.1313
v  15.3494 4.0230 0.0000
v  15.4038 4.0230 0.1313
v  15.5351 4.0230 0.1856
v  15.6663 4.0230 0.1313
v  15.7207 4.0230 0.0000
v  15.5351 4.0999 -0.2009
v  15.6771 4.0999 -0.1421
v  15.3930 4.0999 -0.1421
v  15.3341 4.0999 0.0000
v  15.3930 4.0999 0.1421
v  15.5351 4.0999 0.2009
v  15.6771 4.0999 0.1421
v  15.7360 4.0999 0.0000
v  15.5351 4.1768 -0.1856
v  15.6663 4.1768 -0.1313
v  15.4038 4.1768 -0.1313
v  15.3494 4.1768 0.0000
v  15.4038 4.1768 0.1313
v  15.5351 4.1768 0.1856
v  15.6663 4.1768 0.1313
v  15.7207 4.1768 0.0000
v  15.5351 4.2419 -0.1421
v  15.6355 4.2419 -0.1005
v  15.4346 4.2419 -0.1005
v  15.3930 4.2419 0.0000
v  15.4346 4.2419 0.1005
v  15.5351 4.2419 0.1421
v  15.6355 4.2419 0.1005
v  15.6771 4.2419 0.0000
v  15.5351 4.2855 -0.0769
v  15.5894 4.2855 -0.0544
v  15.4807 4.2855 -0.0544
v  15.4582 4.2855 0.0000
v  15.4807 4.2855 0.0544
v  15.5351 4.2855 0.0769
v  15.5894 4.2855 0.0544
v  15.6119 4.2855 0.0000
v  15.5351 3.8989 0.0000
v  15.5351 4.3008 0.0000
v  -15.5894 3.9142 -0.0544
v  -15.6355 3.9578 -0.1005
v  -15.5350 3.9578 -0.1421
v  -15.5350 3.9142 -0.0769
v  -15.4346 3.9578 -0.1005
v  -15.4807 3.9142 -0.0544
v  -15.3930 3.9578 0.0000
v  -15.4582 3.9142 0.0000
v  -15.4346 3.9578 0.1005
v  -15.4807 3.9142 0.0544
v  -15.5350 3.9578 0.1421
v  -15.5350 3.9142 0.0769
v  -15.6355 3.9578 0.1005
v  -15.5894 3.9142 0.0544
v  -15.6771 3.9578 0.0000
v  -15.6119 3.9142 0.0000
v  -15.6663 4.0230 -0.1313
v  -15.5350 4.0230 -0.1856
v  -15.4038 4.0230 -0.1313
v  -15.3494 4.0230 0.0000
v  -15.4038 4.0230 0.1313
v  -15.5350 4.0230 0.1856
v  -15.6663 4.0230 0.1313
v  -15.7207 4.0230 0.0000
v  -15.6771 4.0999 -0.1421
v  -15.5350 4.0999 -0.2009
v  -15.3930 4.0999 -0.1421
v  -15.3341 4.0999 0.0000
v  -15.3930 4.0999 0.1421
v  -15.5350 4.0999 0.2009
v  -15.6771 4.0999 0.1421
v  -15.7360 4.0999 0.0000
v  -15.6663 4.1768 -0.1313
v  -15.5350 4.1768 -0.1856
v  -15.4038 4.1768 -0.1313
v  -15.3494 4.1768 0.0000
v  -15.4038 4.1768 0.1313
v  -15.5350 4.1768 0.1856
v  -15.6663 4.1768 0.1313
v  -15.7207 4.1768 0.0000
v  -15.6355 4.2419 -0.1005
v  -15.5350 4.2419 -0.1421
v  -15.4346 4.2419 -0.1005
v  -15.3930 4.2419 0.0000
v  -15.4346 4.2419 0.1005
v  -15.5350 4.2419 0.1421
v  -15.6355 4.2419 0.1005
v  -15.6771 4.2419 0.0000
v  -15.5894 4.2855 -0.0544
v  -15.5350 4.2855 -0.0769
v  -15.4807 4.2855 -0.0544
v  -15.4582 4.2855 0.0000
v  -15.4807 4.2855 0.0544
v  -15.5350 4.2855 0.0769
v  -15.5894 4.2855 0.0544
v  -15.6119 4.2855 0.0000
v  -15.5350 3.8989 0.0000
v  -15.5350 4.3008 0.0000
# 116 vertices

vn 0.3509 -0.3509 0.8682
vn 0.0000 -0.4962 0.8682
vn 0.0000 -0.7563 0.6543
vn 0.5348 -0.5348 0.6543
vn -0.3509 -0.3509 0.8682
vn -0.5348 -0.5348 0.6543
vn -0.4962 0.0000 0.8682
vn -0.7563 0.0000 0.6543
vn -0.3509 0.3509 0.8682
vn -0.5348 0.5348 0.6543
vn -0.0000 0.4962 0.8682
vn -0.0000 0.7563 0.6543
vn 0.3509 0.3509 0.8682
vn 0.5348 0.5348 0.6543
vn 0.4962 0.0000 0.8682
vn 0.7563 0.0000 0.6543
vn 0.0000 -0.9368 0.3499
vn 0.6624 -0.6624 0.3499
vn -0.6624 -0.6624 0.3499
vn -0.9368 0.0000 0.3499
vn -0.6624 0.6624 0.3499
vn -0.0000 0.9368 0.3499
vn 0.6624 0.6624 0.3499
vn 0.9368 -0.0000 0.3499
vn 0.0000 -1.0000 -0.0000
vn 0.7071 -0.7071 -0.0000
vn -0.7071 -0.7071 -0.0000
vn -1.0000 0.0000 -0.0000
vn -0.7071 0.7071 0.0000
vn -0.0000 1.0000 -0.0000
vn 0.7071 0.7071 0.0000
vn 1.0000 -0.0000 -0.0000
vn 0.0000 -0.9368 -0.3499
vn 0.6624 -0.6624 -0.3499
vn -0.6624 -0.6624 -0.3499
vn -0.9368 0.0000 -0.3499
vn -0.6624 0.6624 -0.3499
vn -0.0000 0.9368 -0.3499
vn 0.6624 0.6624 -0.3499
vn 0.9368 -0.0000 -0.3499
vn 0.0000 -0.7563 -0.6543
vn 0.5348 -0.5348 -0.6543
vn -0.5348 -0.5348 -0.6543
vn -0.7563 0.0000 -0.6543
vn -0.5348 0.5348 -0.6543
vn -0.0000 0.7563 -0.6543
vn 0.5348 0.5348 -0.6543
vn 0.7563 0.0000 -0.6543
vn 0.0000 -0.4962 -0.8682
vn 0.3509 -0.3509 -0.8682
vn -0.3509 -0.3509 -0.8682
vn -0.4962 0.0000 -0.8682
vn -0.3509 0.3509 -0.8682
vn -0.0000 0.4962 -0.8682
vn 0.3509 0.3509 -0.8682
vn 0.4962 0.0000 -0.8682
vn 0.0000 -0.0000 1.0000
vn 0.0000 -0.0000 -1.0000
vn -0.0000 -0.7563 0.6543
vn 0.0000 0.7563 0.6543
vn 0.0000 0.4962 0.8682
vn -0.0000 -0.9368 0.3499
vn 0.9368 0.0000 0.3499
vn 0.0000 0.9368 0.3499
vn -0.9368 -0.0000 0.3499
vn 1.0000 0.0000 -0.0000
vn 0.0000 1.0000 -0.0000
vn -1.0000 -0.0000 -0.0000
vn 0.9368 0.0000 -0.3499
vn 0.0000 0.9368 -0.3499
vn -0.9368 -0.0000 -0.3499
vn 0.0000 0.7563 -0.6543
vn 0.0000 0.4962 -0.8682
vn -0.0000 -0.0000 1.0000
vn -0.0000 -0.0000 -1.0000
# 75 vertex normals

vt 0.3453 0.0079 0.0000
vt 0.3451 0.0090 0.0000
vt 0.3437 0.0090 0.0000
vt 0.3441 0.0072 0.0000
vt 0.3455 0.0099 0.0000
vt 0.3444 0.0108 0.0000
vt 0.3464 0.0105 0.0000
vt 0.3459 0.0118 0.0000
vt 0.3475 0.0105 0.0000
vt 0.3479 0.0120 0.0000
vt 0.3486 0.0097 0.0000
vt 0.3499 0.0110 0.0000
vt 0.3485 0.0078 0.0000
vt 0.3473 0.0071 0.0000
vt 0.3476 0.0055 0.0000
vt 0.3499 0.0064 0.0000
vt 0.3462 0.0072 0.0000
vt 0.3455 0.0059 0.0000
vt 0.3423 0.0092 0.0000
vt 0.3429 0.0066 0.0000
vt 0.3433 0.0116 0.0000
vt 0.3454 0.0132 0.0000
vt 0.3481 0.0135 0.0000
vt 0.3509 0.0125 0.0000
vt 0.3476 0.0039 0.0000
vt 0.3509 0.0047 0.0000
vt 0.3448 0.0046 0.0000
vt 0.3406 0.0094 0.0000
vt 0.3413 0.0058 0.0000
vt 0.3420 0.0127 0.0000
vt 0.3449 0.0147 0.0000
vt 0.3483 0.0151 0.0000
vt 0.3515 0.0141 0.0000
vt 0.3475 0.0020 0.0000
vt 0.3515 0.0027 0.0000
vt 0.3438 0.0030 0.0000
vt 0.3608 0.0127 0.0000
vt 0.3595 0.0094 0.0000
vt 0.3612 0.0092 0.0000
vt 0.3621 0.0116 0.0000
vt 0.3601 0.0058 0.0000
vt 0.3617 0.0066 0.0000
vt 0.3626 0.0030 0.0000
vt 0.3636 0.0046 0.0000
vt 0.3664 0.0020 0.0000
vt 0.3664 0.0039 0.0000
vt 0.3703 0.0027 0.0000
vt 0.3697 0.0047 0.0000
vt 0.3703 0.0141 0.0000
vt 0.3671 0.0151 0.0000
vt 0.3669 0.0135 0.0000
vt 0.3697 0.0125 0.0000
vt 0.3637 0.0147 0.0000
vt 0.3643 0.0132 0.0000
vt 0.3626 0.0090 0.0000
vt 0.3632 0.0108 0.0000
vt 0.3630 0.0072 0.0000
vt 0.3643 0.0059 0.0000
vt 0.3664 0.0055 0.0000
vt 0.3687 0.0064 0.0000
vt 0.3667 0.0120 0.0000
vt 0.3688 0.0110 0.0000
vt 0.3647 0.0118 0.0000
vt 0.3639 0.0090 0.0000
vt 0.3643 0.0099 0.0000
vt 0.3642 0.0079 0.0000
vt 0.3650 0.0072 0.0000
vt 0.3661 0.0071 0.0000
vt 0.3673 0.0078 0.0000
vt 0.3663 0.0105 0.0000
vt 0.3674 0.0097 0.0000
vt 0.3652 0.0105 0.0000
vt 0.3468 0.0088 0.0000
vt 0.3656 0.0088 0.0000
# 74 texture coords

o Ball_01
g Ball_01
usemtl lambert2
s off
f 89/25/7 90/26/8 91/27/9 92/28/10 
f 90/26/8 93/29/11 94/30/12 91/27/9 
f 93/29/11 95/31/13 96/32/14 94/30/12 
f 95/31/13 97/33/15 98/34/16 96/32/14 
f 97/33/15 99/35/17 100/36/18 98/34/16 
f 99/37/17 101/38/19 102/39/20 100/40/18 
f 101/38/19 103/41/21 104/42/22 102/39/20 
f 103/41/21 89/25/7 92/28/10 104/42/22 
f 92/28/10 91/27/9 105/43/23 106/44/24 
f 91/27/9 94/30/12 107/45/25 105/43/23 
f 94/30/12 96/32/14 108/46/26 107/45/25 
f 96/32/14 98/34/16 109/47/27 108/46/26 
f 98/34/16 100/36/18 110/48/28 109/47/27 
f 100/40/18 102/39/20 111/49/29 110/50/28 
f 102/39/20 104/42/22 112/51/30 111/49/29 
f 104/42/22 92/28/10 106/44/24 112/51/30 
f 106/44/24 105/43/23 113/52/31 114/53/32 
f 105/43/23 107/45/25 115/54/33 113/52/31 
f 107/45/25 108/46/26 116/55/34 115/54/33 
f 108/46/26 109/47/27 117/56/35 116/55/34 
f 109/47/27 110/48/28 118/57/36 117/56/35 
f 110/50/28 111/49/29 119/58/37 118/59/36 
f 111/49/29 112/51/30 120/60/38 119/58/37 
f 112/51/30 106/44/24 114/53/32 120/60/38 
f 114/61/32 113/62/31 121/63/39 122/64/40 
f 113/62/31 115/65/33 123/66/41 121/63/39 
f 115/65/33 116/67/34 124/68/42 123/66/41 
f 116/67/34 117/69/35 125/70/43 124/68/42 
f 117/69/35 118/71/36 126/72/44 125/70/43 
f 118/73/36 119/74/37 127/75/45 126/76/44 
f 119/74/37 120/77/38 128/78/46 127/75/45 
f 120/77/38 114/61/32 122/64/40 128/78/46 
f 122/64/40 121/63/39 129/79/47 130/80/48 
f 121/63/39 123/66/41 131/81/49 129/79/47 
f 123/66/41 124/68/42 132/82/50 131/81/49 
f 124/68/42 125/70/43 133/83/51 132/82/50 
f 125/70/43 126/72/44 134/84/52 133/83/51 
f 126/76/44 127/75/45 135/85/53 134/86/52 
f 127/75/45 128/78/46 136/87/54 135/85/53 
f 128/78/46 122/64/40 130/80/48 136/87/54 
f 130/80/48 129/79/47 137/88/55 138/89/56 
f 129/79/47 131/81/49 139/90/57 137/88/55 
f 131/81/49 132/82/50 140/91/58 139/90/57 
f 132/82/50 133/83/51 141/92/59 140/91/58 
f 133/83/51 134/84/52 142/93/60 141/92/59 
f 134/86/52 135/85/53 143/94/61 142/95/60 
f 135/85/53 136/87/54 144/96/62 143/94/61 
f 136/87/54 130/80/48 138/89/56 144/96/62 
f 90/26/8 89/25/7 145/97/63 
f 93/29/11 90/26/8 145/97/63 
f 95/31/13 93/29/11 145/97/63 
f 97/33/15 95/31/13 145/97/63 
f 99/35/17 97/33/15 145/97/63 
f 101/38/19 99/37/17 145/97/63 
f 103/41/21 101/38/19 145/97/63 
f 89/25/7 103/41/21 145/97/63 
f 138/89/56 137/88/55 146/98/64 
f 137/88/55 139/90/57 146/98/64 
f 139/90/57 140/91/58 146/98/64 
f 140/91/58 141/92/59 146/98/64 
f 141/92/59 142/93/60 146/98/64 
f 142/95/60 143/94/61 146/98/64 
f 143/94/61 144/96/62 146/98/64 
f 144/96/62 138/89/56 146/98/64 
f 147/25/11 148/28/12 149/27/65 150/26/8 
f 150/26/8 149/27/65 151/30/10 152/29/7 
f 152/29/7 151/30/10 153/32/22 154/31/21 
f 154/31/21 153/32/22 155/34/20 156/33/19 
f 156/33/19 155/34/20 157/36/66 158/35/67 
f 158/37/67 157/40/66 159/39/16 160/38/15 
f 160/38/15 159/39/16 161/42/14 162/41/13 
f 162/41/13 161/42/14 148/28/12 147/25/11 
f 148/28/12 163/44/25 164/43/68 149/27/65 
f 149/27/65 164/43/68 165/45/24 151/30/10 
f 151/30/10 165/45/24 166/46/69 153/32/22 
f 153/32/22 166/46/69 167/47/29 155/34/20 
f 155/34/20 167/47/29 168/48/70 157/36/66 
f 157/40/66 168/50/70 169/49/27 159/39/16 
f 159/39/16 169/49/27 170/51/71 161/42/14 
f 161/42/14 170/51/71 163/44/25 148/28/12 
f 163/44/25 171/53/33 172/52/31 164/43/68 
f 164/43/68 172/52/31 173/54/32 165/45/24 
f 165/45/24 173/54/32 174/55/72 166/46/69 
f 166/46/69 174/55/72 175/56/37 167/47/29 
f 167/47/29 175/56/37 176/57/73 168/48/70 
f 168/50/70 176/59/73 177/58/35 169/49/27 
f 169/49/27 177/58/35 178/60/74 170/51/71 
f 170/51/71 178/60/74 171/53/33 163/44/25 
f 171/61/33 179/64/41 180/63/39 172/62/31 
f 172/62/31 180/63/39 181/66/40 173/65/32 
f 173/65/32 181/66/40 182/68/75 174/67/72 
f 174/67/72 182/68/75 183/70/45 175/69/37 
f 175/69/37 183/70/45 184/72/76 176/71/73 
f 176/73/73 184/76/76 185/75/43 177/74/35 
f 177/74/35 185/75/43 186/78/77 178/77/74 
f 178/77/74 186/78/77 179/64/41 171/61/33 
f 179/64/41 187/80/49 188/79/47 180/63/39 
f 180/63/39 188/79/47 189/81/48 181/66/40 
f 181/66/40 189/81/48 190/82/54 182/68/75 
f 182/68/75 190/82/54 191/83/53 183/70/45 
f 183/70/45 191/83/53 192/84/78 184/72/76 
f 184/76/76 192/86/78 193/85/51 185/75/43 
f 185/75/43 193/85/51 194/87/50 186/78/77 
f 186/78/77 194/87/50 187/80/49 179/64/41 
f 187/80/49 195/89/57 196/88/55 188/79/47 
f 188/79/47 196/88/55 197/90/56 189/81/48 
f 189/81/48 197/90/56 198/91/62 190/82/54 
f 190/82/54 198/91/62 199/92/61 191/83/53 
f 191/83/53 199/92/61 200/93/79 192/84/78 
f 192/86/78 200/95/79 201/94/59 193/85/51 
f 193/85/51 201/94/59 202/96/58 194/87/50 
f 194/87/50 202/96/58 195/89/57 187/80/49 
f 150/26/8 203/97/80 147/25/11 
f 152/29/7 203/97/80 150/26/8 
f 154/31/21 203/97/80 152/29/7 
f 156/33/19 203/97/80 154/31/21 
f 158/35/67 203/97/80 156/33/19 
f 160/38/15 203/97/80 158/37/67 
f 162/41/13 203/97/80 160/38/15 
f 147/25/11 203/97/80 162/41/13 
f 195/89/57 204/98/81 196/88/55 
f 196/88/55 204/98/81 197/90/56 
f 197/90/56 204/98/81 198/91/62 
f 198/91/62 204/98/81 199/92/61 
f 199/92/61 204/98/81 200/93/79 
f 200/95/79 204/98/81 201/94/59 
f 201/94/59 204/98/81 202/96/58 
f 202/96/58 204/98/81 195/89/57 
# 96 polygons - 32 triangles

#
# object Components
#

v  33.8275 5.9121 12.6838
v  34.4359 5.9121 12.6838
v  28.6109 9.0052 12.6838
v  28.6032 8.5816 12.6838
v  34.4359 5.9121 12.0754
v  27.9660 9.3569 12.0754
v  27.9583 8.9334 12.0754
v  33.8275 5.9121 12.0754
v  33.8275 5.9121 6.4881
v  34.4359 5.9121 6.4881
v  22.3722 12.3280 6.4881
v  22.3645 11.8419 6.4881
v  34.4359 5.9121 5.8797
v  21.7273 12.6798 5.8797
v  21.7196 12.1937 5.8797
v  33.8275 5.9121 5.8797
v  27.6291 5.9121 18.2523
v  27.6291 5.9121 18.8607
v  27.6291 9.3324 12.4412
v  27.6291 8.9319 12.4619
v  28.2375 5.9121 18.8607
v  28.2375 9.0141 13.0547
v  28.2375 8.6135 13.0754
v  28.2375 5.9121 18.2523
v  21.4233 5.9121 18.2523
v  21.4233 5.9121 18.8607
v  21.4233 12.6499 6.1925
v  21.4233 12.1638 6.1848
v  22.0318 5.9121 18.8607
v  22.0318 12.3315 6.8060
v  22.0318 11.8454 6.7983
v  22.0318 5.9121 18.2523
v  15.8260 15.6467 0.6084
v  15.8260 15.0383 0.6084
v  33.4074 5.9121 18.2556
v  34.0106 5.9121 18.8607
v  16.1302 15.0383 0.3042
v  16.1302 15.6467 0.3042
v  34.4359 5.9121 18.4448
v  33.8275 5.9121 17.8411
v  15.9781 15.6467 0.4563
v  34.4336 5.9121 18.8630
v  15.9781 15.0383 0.4563
v  33.8242 5.9121 18.2556
v  25.2804 10.1003 9.7185
v  25.2804 10.0994 0.3042
v  25.5661 10.6366 0.3042
v  25.5661 10.6375 10.0041
v  25.0289 10.9222 0.3042
v  25.0289 10.9231 9.4669
v  24.7432 10.3850 0.3042
v  24.7432 10.3859 9.1813
v  0.0000 10.6384 10.0041
v  0.0000 10.1012 9.7185
v  0.0000 10.9240 9.4669
v  0.0000 10.3868 9.1813
v  2.7987 5.9121 18.2523
v  2.7987 5.9121 18.8607
v  2.7987 15.6467 0.6084
v  2.7987 15.0383 0.6084
v  3.4071 15.0383 0.6084
v  3.4071 15.6467 0.6084
v  3.4071 5.9121 18.8607
v  3.4071 5.9121 18.2523
v  9.0045 5.9121 18.2523
v  9.0045 5.9121 18.8607
v  9.0045 15.6467 0.6084
v  9.0045 15.0383 0.6084
v  9.6129 15.0383 0.6084
v  9.6129 15.6467 0.6084
v  9.6129 5.9121 18.8607
v  9.6129 5.9121 18.2523
v  15.2102 5.9121 18.2523
v  15.2102 5.9121 18.8607
v  15.2102 15.6467 0.6084
v  15.2102 15.0383 0.6084
v  15.8186 15.0383 0.6084
v  15.8186 15.6467 0.6084
v  15.8186 5.9121 18.8607
v  15.8186 5.9121 18.2523
v  33.8275 5.9121 0.3042
v  34.4359 5.9121 0.3042
v  16.1302 15.0383 -0.3042
v  16.1302 15.6467 -0.3042
v  34.4359 5.9121 -0.3042
v  33.8275 5.9121 -0.3042
v  0.0000 15.6467 0.6084
v  0.0000 15.0383 0.6084
v  0.0000 15.6467 -0.6084
v  15.8260 15.6467 -0.6084
v  0.0000 15.0383 -0.6084
v  15.8260 15.0383 -0.6084
v  0.0000 3.4785 18.8607
v  0.0000 3.4785 18.2523
v  33.8275 3.4785 18.2523
v  34.4359 3.4785 18.8607
v  0.0000 5.9121 18.8607
v  34.4359 5.9121 18.8607
v  0.0000 5.9121 18.2523
v  33.8275 5.9121 18.2523
v  34.4359 3.4785 0.0000
v  34.4359 5.9121 0.0000
v  33.8275 3.4785 0.0000
v  33.8275 5.9121 0.0000
v  15.8186 5.9121 17.7901
v  15.8186 5.9121 15.6275
v  15.2102 5.9121 15.6275
v  15.2102 5.9121 17.7901
v  15.8186 5.4604 17.7901
v  15.8186 5.4604 15.6275
v  15.8186 2.9731 15.6275
v  15.8186 2.2617 17.7901
v  15.2102 2.2617 17.7901
v  15.2102 2.9731 15.6275
v  15.2102 5.4604 15.6275
v  15.2102 5.4604 17.7901
v  15.8186 2.6672 18.8607
v  15.8186 2.6672 17.7901
v  15.8186 5.4604 18.8607
v  15.8186 2.2617 18.8607
v  15.2102 2.2617 18.8607
v  15.2102 5.4604 18.8607
v  15.2102 5.9121 0.1391
v  15.8186 5.9121 0.1391
v  15.8186 5.9121 0.0000
v  15.2102 5.9121 0.0000
v  15.2102 5.4604 0.0000
v  15.2102 5.4604 0.1391
v  15.2102 4.2947 0.1391
v  15.8186 4.2947 0.1391
v  15.8186 4.4592 2.5414
v  15.2102 4.4592 2.5414
v  15.8186 5.4604 0.1391
v  15.8186 5.4604 0.0000
v  15.8186 5.9121 5.0829
v  15.8186 5.9121 2.5414
v  15.2102 5.9121 2.5414
v  15.2102 5.9121 5.0829
v  15.2102 5.4604 2.5414
v  15.2102 5.4604 5.0829
v  15.8186 4.4716 5.0829
v  15.2102 4.4716 5.0829
v  15.8186 5.4604 5.0829
v  15.8186 5.4604 2.5414
v  15.8186 5.9121 7.6243
v  15.2102 5.9121 7.6243
v  15.2102 5.4604 7.6243
v  15.8186 4.3842 7.6243
v  15.2102 4.3842 7.6243
v  15.8186 5.4604 7.6243
v  15.8186 5.9121 10.1658
v  15.2102 5.9121 10.1658
v  15.2102 5.4604 10.1658
v  15.8186 4.1056 10.1658
v  15.2102 4.1056 10.1658
v  15.8186 5.4604 10.1658
v  15.8186 5.9121 12.7072
v  15.2102 5.9121 12.7072
v  15.2102 5.4604 12.7072
v  15.8186 3.6903 12.7072
v  15.2102 3.6903 12.7072
v  15.8186 5.4604 12.7072
v  15.2102 2.6672 17.7901
v  15.2102 2.6672 18.8607
v  15.8186 3.2993 15.6275
v  15.8186 3.9746 12.7072
v  15.8186 4.3561 10.1658
v  15.8186 4.5788 7.6243
v  15.8186 4.6432 5.0829
v  15.8186 4.6170 2.5414
v  15.8186 4.4421 0.1391
v  15.2102 4.6170 2.5414
v  15.2102 4.4421 0.1391
v  15.2102 4.6432 5.0829
v  15.2102 4.5788 7.6243
v  15.2102 4.3561 10.1658
v  15.2102 3.9746 12.7072
v  15.2102 3.2993 15.6275
v  15.8186 4.3004 0.0000
v  15.8186 4.4467 0.0000
v  15.2102 4.4467 0.0000
v  15.2102 4.3004 0.0000
v  -33.8275 5.9121 12.6838
v  -28.6032 8.5816 12.6838
v  -28.6109 9.0052 12.6838
v  -34.4359 5.9121 12.6838
v  -27.9660 9.3569 12.0754
v  -34.4359 5.9121 12.0754
v  -27.9583 8.9334 12.0754
v  -33.8275 5.9121 12.0754
v  -33.8275 5.9121 6.4881
v  -22.3644 11.8419 6.4881
v  -22.3722 12.3280 6.4881
v  -34.4359 5.9121 6.4881
v  -21.7273 12.6798 5.8797
v  -34.4359 5.9121 5.8797
v  -21.7196 12.1937 5.8797
v  -33.8275 5.9121 5.8797
v  -27.6291 5.9121 18.2523
v  -27.6291 8.9319 12.4619
v  -27.6291 9.3324 12.4412
v  -27.6291 5.9121 18.8607
v  -28.2375 9.0141 13.0547
v  -28.2375 5.9121 18.8607
v  -28.2375 8.6135 13.0754
v  -28.2375 5.9121 18.2523
v  -21.4233 5.9121 18.2523
v  -21.4233 12.1638 6.1848
v  -21.4233 12.6499 6.1925
v  -21.4233 5.9121 18.8607
v  -22.0317 12.3315 6.8060
v  -22.0317 5.9121 18.8607
v  -22.0317 11.8454 6.7983
v  -22.0317 5.9121 18.2523
v  -15.8260 15.6467 0.6084
v  -34.0105 5.9121 18.8607
v  -33.4074 5.9121 18.2556
v  -15.8260 15.0383 0.6084
v  -16.1302 15.0383 0.3042
v  -33.8275 5.9121 17.8411
v  -34.4359 5.9121 18.4448
v  -16.1302 15.6467 0.3042
v  -34.4335 5.9121 18.8630
v  -15.9781 15.6467 0.4563
v  -33.8242 5.9121 18.2556
v  -15.9781 15.0383 0.4563
v  -25.2804 10.1003 9.7185
v  -25.5661 10.6375 10.0041
v  -25.5661 10.6366 0.3042
v  -25.2804 10.0994 0.3042
v  -25.0289 10.9231 9.4669
v  -25.0289 10.9222 0.3042
v  -24.7432 10.3859 9.1813
v  -24.7432 10.3850 0.3042
v  -2.7987 5.9121 18.2523
v  -2.7987 15.0383 0.6084
v  -2.7987 15.6467 0.6084
v  -2.7987 5.9121 18.8607
v  -3.4071 15.0383 0.6084
v  -3.4071 5.9121 18.2523
v  -3.4071 5.9121 18.8607
v  -3.4071 15.6467 0.6084
v  -9.0044 5.9121 18.2523
v  -9.0044 15.0383 0.6084
v  -9.0044 15.6467 0.6084
v  -9.0044 5.9121 18.8607
v  -9.6128 15.0383 0.6084
v  -9.6128 5.9121 18.2523
v  -9.6128 5.9121 18.8607
v  -9.6128 15.6467 0.6084
v  -15.2102 5.9121 18.2523
v  -15.2102 15.0383 0.6084
v  -15.2102 15.6467 0.6084
v  -15.2102 5.9121 18.8607
v  -15.8186 15.0383 0.6084
v  -15.8186 5.9121 18.2523
v  -15.8186 5.9121 18.8607
v  -15.8186 15.6467 0.6084
v  -34.4359 5.9121 0.3042
v  -33.8275 5.9121 0.3042
v  -16.1302 15.0383 -0.3042
v  -33.8275 5.9121 -0.3042
v  -34.4359 5.9121 -0.3042
v  -16.1302 15.6467 -0.3042
v  -15.8260 15.6467 -0.6084
v  -15.8260 15.0383 -0.6084
v  -34.4359 3.4785 18.8607
v  -33.8275 3.4785 18.2523
v  -34.4359 5.9121 18.8607
v  -33.8275 5.9121 18.2523
v  -34.4359 5.9121 0.0000
v  -34.4359 3.4785 0.0000
v  -33.8275 3.4785 0.0000
v  -33.8275 5.9121 0.0000
v  -15.8186 5.9121 17.7901
v  -15.2102 5.9121 17.7901
v  -15.2102 5.9121 15.6275
v  -15.8186 5.9121 15.6275
v  -15.8186 5.4604 15.6275
v  -15.8186 5.4604 17.7901
v  -15.8186 2.9731 15.6275
v  -15.2102 2.9731 15.6275
v  -15.2102 2.2617 17.7901
v  -15.8186 2.2617 17.7901
v  -15.2102 5.4604 17.7901
v  -15.2102 5.4604 15.6275
v  -15.8186 2.6672 18.8607
v  -15.8186 5.4604 18.8607
v  -15.8186 2.6672 17.7901
v  -15.2102 2.2617 18.8607
v  -15.8186 2.2617 18.8607
v  -15.2102 5.4604 18.8607
v  -15.2102 5.9121 0.1391
v  -15.2102 5.9121 0.0000
v  -15.8186 5.9121 0.0000
v  -15.8186 5.9121 0.1391
v  -15.2102 5.4604 0.1391
v  -15.2102 5.4604 0.0000
v  -15.2102 4.2947 0.1391
v  -15.2102 4.4592 2.5414
v  -15.8186 4.4592 2.5414
v  -15.8186 4.2947 0.1391
v  -15.8186 5.4604 0.0000
v  -15.8186 5.4604 0.1391
v  -15.8186 5.9121 5.0829
v  -15.2102 5.9121 5.0829
v  -15.2102 5.9121 2.5414
v  -15.8186 5.9121 2.5414
v  -15.2102 5.4604 5.0829
v  -15.2102 5.4604 2.5414
v  -15.2102 4.4716 5.0829
v  -15.8186 4.4716 5.0829
v  -15.8186 5.4604 2.5414
v  -15.8186 5.4604 5.0829
v  -15.8186 5.9121 7.6243
v  -15.2102 5.9121 7.6243
v  -15.2102 5.4604 7.6243
v  -15.2102 4.3842 7.6243
v  -15.8186 4.3842 7.6243
v  -15.8186 5.4604 7.6243
v  -15.8186 5.9121 10.1658
v  -15.2102 5.9121 10.1658
v  -15.2102 5.4604 10.1658
v  -15.2102 4.1056 10.1658
v  -15.8186 4.1056 10.1658
v  -15.8186 5.4604 10.1658
v  -15.8186 5.9121 12.7072
v  -15.2102 5.9121 12.7072
v  -15.2102 5.4604 12.7072
v  -15.2102 3.6903 12.7072
v  -15.8186 3.6903 12.7072
v  -15.8186 5.4604 12.7072
v  -15.2102 2.6672 18.8607
v  -15.2102 2.6672 17.7901
v  -15.8186 3.2993 15.6275
v  -15.8186 3.9746 12.7072
v  -15.8186 4.3561 10.1658
v  -15.8186 4.5788 7.6243
v  -15.8186 4.6432 5.0829
v  -15.8186 4.6170 2.5414
v  -15.8186 4.4421 0.1391
v  -15.2102 4.6170 2.5414
v  -15.2102 4.4421 0.1391
v  -15.2102 4.6432 5.0829
v  -15.2102 4.5788 7.6243
v  -15.2102 4.3561 10.1658
v  -15.2102 3.9746 12.7072
v  -15.2102 3.2993 15.6275
v  -15.8186 4.3004 0.0000
v  -15.8186 4.4467 0.0000
v  -15.2102 4.3004 0.0000
v  -15.2102 4.4467 0.0000
v  33.8275 5.9121 -12.6837
v  28.6032 8.5816 -12.6837
v  28.6109 9.0052 -12.6837
v  34.4359 5.9121 -12.6837
v  27.9660 9.3569 -12.0753
v  34.4359 5.9121 -12.0753
v  27.9583 8.9334 -12.0753
v  33.8275 5.9121 -12.0753
v  33.8275 5.9121 -6.4881
v  22.3645 11.8419 -6.4881
v  22.3722 12.3280 -6.4881
v  34.4359 5.9121 -6.4881
v  21.7273 12.6798 -5.8797
v  34.4359 5.9121 -5.8797
v  21.7196 12.1937 -5.8797
v  33.8275 5.9121 -5.8797
v  27.6291 5.9121 -18.2522
v  27.6291 8.9319 -12.4619
v  27.6291 9.3324 -12.4412
v  27.6291 5.9121 -18.8607
v  28.2375 9.0141 -13.0547
v  28.2375 5.9121 -18.8607
v  28.2375 8.6135 -13.0754
v  28.2375 5.9121 -18.2522
v  21.4233 5.9121 -18.2522
v  21.4233 12.1638 -6.1848
v  21.4233 12.6499 -6.1925
v  21.4233 5.9121 -18.8607
v  22.0318 12.3315 -6.8060
v  22.0318 5.9121 -18.8607
v  22.0318 11.8454 -6.7983
v  22.0318 5.9121 -18.2522
v  34.0106 5.9121 -18.8607
v  33.4074 5.9121 -18.2556
v  33.8275 5.9121 -17.8411
v  34.4359 5.9121 -18.4448
v  34.4336 5.9121 -18.8630
v  15.9781 15.6467 -0.4563
v  33.8242 5.9121 -18.2556
v  15.9781 15.0383 -0.4563
v  25.2804 10.1003 -9.7185
v  25.5661 10.6375 -10.0041
v  25.5661 10.6366 -0.3042
v  25.2804 10.0994 -0.3042
v  25.0289 10.9231 -9.4669
v  25.0289 10.9222 -0.3042
v  24.7432 10.3859 -9.1813
v  24.7432 10.3850 -0.3042
v  0.0000 10.6384 -10.0041
v  0.0000 10.1012 -9.7185
v  0.0000 10.9240 -9.4669
v  0.0000 10.3868 -9.1813
v  2.7987 5.9121 -18.2522
v  2.7987 15.0383 -0.6084
v  2.7987 15.6467 -0.6084
v  2.7987 5.9121 -18.8607
v  3.4071 15.0383 -0.6084
v  3.4071 5.9121 -18.2522
v  3.4071 5.9121 -18.8607
v  3.4071 15.6467 -0.6084
v  9.0045 5.9121 -18.2522
v  9.0045 15.0383 -0.6084
v  9.0045 15.6467 -0.6084
v  9.0045 5.9121 -18.8607
v  9.6129 15.0383 -0.6084
v  9.6129 5.9121 -18.2522
v  9.6129 5.9121 -18.8607
v  9.6129 15.6467 -0.6084
v  15.2102 5.9121 -18.2522
v  15.2102 15.0383 -0.6084
v  15.2102 15.6467 -0.6084
v  15.2102 5.9121 -18.8607
v  15.8186 15.0383 -0.6084
v  15.8186 5.9121 -18.2522
v  15.8186 5.9121 -18.8607
v  15.8186 15.6467 -0.6084
v  0.0000 3.4785 -18.8607
v  34.4359 3.4785 -18.8607
v  33.8275 3.4785 -18.2522
v  0.0000 3.4785 -18.2522
v  0.0000 5.9121 -18.8607
v  34.4359 5.9121 -18.8607
v  0.0000 5.9121 -18.2522
v  33.8275 5.9121 -18.2522
v  15.8186 5.9121 -17.7901
v  15.2102 5.9121 -17.7901
v  15.2102 5.9121 -15.6275
v  15.8186 5.9121 -15.6275
v  15.8186 5.4604 -15.6275
v  15.8186 5.4604 -17.7901
v  15.8186 2.9731 -15.6275
v  15.2102 2.9731 -15.6275
v  15.2102 2.2617 -17.7901
v  15.8186 2.2617 -17.7901
v  15.2102 5.4604 -17.7901
v  15.2102 5.4604 -15.6275
v  15.8186 2.6672 -18.8607
v  15.8186 5.4604 -18.8607
v  15.8186 2.6672 -17.7901
v  15.2102 2.2617 -18.8607
v  15.8186 2.2617 -18.8607
v  15.2102 5.4604 -18.8607
v  15.2102 5.9121 -0.1391
v  15.8186 5.9121 -0.1391
v  15.2102 5.4604 -0.1391
v  15.2102 4.2947 -0.1391
v  15.2102 4.4592 -2.5414
v  15.8186 4.4592 -2.5414
v  15.8186 4.2947 -0.1391
v  15.8186 5.4604 -0.1391
v  15.8186 5.9121 -5.0829
v  15.2102 5.9121 -5.0829
v  15.2102 5.9121 -2.5414
v  15.8186 5.9121 -2.5414
v  15.2102 5.4604 -5.0829
v  15.2102 5.4604 -2.5414
v  15.2102 4.4716 -5.0829
v  15.8186 4.4716 -5.0829
v  15.8186 5.4604 -2.5414
v  15.8186 5.4604 -5.0829
v  15.8186 5.9121 -7.6243
v  15.2102 5.9121 -7.6243
v  15.2102 5.4604 -7.6243
v  15.2102 4.3842 -7.6243
v  15.8186 4.3842 -7.6243
v  15.8186 5.4604 -7.6243
v  15.8186 5.9121 -10.1658
v  15.2102 5.9121 -10.1658
v  15.2102 5.4604 -10.1658
v  15.2102 4.1056 -10.1657
v  15.8186 4.1056 -10.1657
v  15.8186 5.4604 -10.1658
v  15.8186 5.9121 -12.7072
v  15.2102 5.9121 -12.7072
v  15.2102 5.4604 -12.7072
v  15.2102 3.6903 -12.7072
v  15.8186 3.6903 -12.7072
v  15.8186 5.4604 -12.7072
v  15.2102 2.6672 -18.8607
v  15.2102 2.6672 -17.7901
v  15.8186 3.2993 -15.6275
v  15.8186 3.9746 -12.7072
v  15.8186 4.3561 -10.1657
v  15.8186 4.5788 -7.6243
v  15.8186 4.6432 -5.0829
v  15.8186 4.6170 -2.5414
v  15.8186 4.4421 -0.1391
v  15.2102 4.6170 -2.5414
v  15.2102 4.4421 -0.1391
v  15.2102 4.6432 -5.0829
v  15.2102 4.5788 -7.6243
v  15.2102 4.3561 -10.1657
v  15.2102 3.9746 -12.7072
v  15.2102 3.2993 -15.6275
v  -33.8275 5.9121 -12.6837
v  -34.4359 5.9121 -12.6837
v  -28.6109 9.0052 -12.6837
v  -28.6032 8.5816 -12.6837
v  -34.4359 5.9121 -12.0753
v  -27.9660 9.3569 -12.0753
v  -27.9583 8.9334 -12.0753
v  -33.8275 5.9121 -12.0753
v  -33.8275 5.9121 -6.4881
v  -34.4359 5.9121 -6.4881
v  -22.3722 12.3280 -6.4881
v  -22.3644 11.8419 -6.4881
v  -34.4359 5.9121 -5.8797
v  -21.7273 12.6798 -5.8797
v  -21.7196 12.1937 -5.8797
v  -33.8275 5.9121 -5.8797
v  -27.6291 5.9121 -18.2522
v  -27.6291 5.9121 -18.8607
v  -27.6291 9.3324 -12.4412
v  -27.6291 8.9319 -12.4619
v  -28.2375 5.9121 -18.8607
v  -28.2375 9.0141 -13.0547
v  -28.2375 8.6135 -13.0754
v  -28.2375 5.9121 -18.2522
v  -21.4233 5.9121 -18.2522
v  -21.4233 5.9121 -18.8607
v  -21.4233 12.6499 -6.1925
v  -21.4233 12.1638 -6.1848
v  -22.0317 5.9121 -18.8607
v  -22.0317 12.3315 -6.8060
v  -22.0317 11.8454 -6.7983
v  -22.0317 5.9121 -18.2522
v  -33.4074 5.9121 -18.2556
v  -34.0105 5.9121 -18.8607
v  -34.4359 5.9121 -18.4448
v  -33.8275 5.9121 -17.8411
v  -15.9781 15.6467 -0.4563
v  -34.4335 5.9121 -18.8630
v  -15.9781 15.0383 -0.4563
v  -33.8242 5.9121 -18.2556
v  -25.2804 10.1003 -9.7185
v  -25.2804 10.0994 -0.3042
v  -25.5661 10.6366 -0.3042
v  -25.5661 10.6375 -10.0041
v  -25.0289 10.9222 -0.3042
v  -25.0289 10.9231 -9.4669
v  -24.7432 10.3850 -0.3042
v  -24.7432 10.3859 -9.1813
v  -2.7987 5.9121 -18.2522
v  -2.7987 5.9121 -18.8607
v  -2.7987 15.6467 -0.6084
v  -2.7987 15.0383 -0.6084
v  -3.4071 15.0383 -0.6084
v  -3.4071 15.6467 -0.6084
v  -3.4071 5.9121 -18.8607
v  -3.4071 5.9121 -18.2522
v  -9.0044 5.9121 -18.2522
v  -9.0044 5.9121 -18.8607
v  -9.0044 15.6467 -0.6084
v  -9.0044 15.0383 -0.6084
v  -9.6128 15.0383 -0.6084
v  -9.6128 15.6467 -0.6084
v  -9.6128 5.9121 -18.8607
v  -9.6128 5.9121 -18.2522
v  -15.2102 5.9121 -18.2522
v  -15.2102 5.9121 -18.8607
v  -15.2102 15.6467 -0.6084
v  -15.2102 15.0383 -0.6084
v  -15.8186 15.0383 -0.6084
v  -15.8186 15.6467 -0.6084
v  -15.8186 5.9121 -18.8607
v  -15.8186 5.9121 -18.2522
v  -33.8275 3.4785 -18.2522
v  -34.4359 3.4785 -18.8607
v  -34.4359 5.9121 -18.8607
v  -33.8275 5.9121 -18.2522
v  -15.8186 5.9121 -17.7901
v  -15.8186 5.9121 -15.6275
v  -15.2102 5.9121 -15.6275
v  -15.2102 5.9121 -17.7901
v  -15.8186 5.4604 -17.7901
v  -15.8186 5.4604 -15.6275
v  -15.8186 2.9731 -15.6275
v  -15.8186 2.2617 -17.7901
v  -15.2102 2.2617 -17.7901
v  -15.2102 2.9731 -15.6275
v  -15.2102 5.4604 -15.6275
v  -15.2102 5.4604 -17.7901
v  -15.8186 2.6672 -18.8607
v  -15.8186 2.6672 -17.7901
v  -15.8186 5.4604 -18.8607
v  -15.8186 2.2617 -18.8607
v  -15.2102 2.2617 -18.8607
v  -15.2102 5.4604 -18.8607
v  -15.2102 5.9121 -0.1391
v  -15.8186 5.9121 -0.1391
v  -15.2102 5.4604 -0.1391
v  -15.2102 4.2947 -0.1391
v  -15.8186 4.2947 -0.1391
v  -15.8186 4.4592 -2.5414
v  -15.2102 4.4592 -2.5414
v  -15.8186 5.4604 -0.1391
v  -15.8186 5.9121 -5.0829
v  -15.8186 5.9121 -2.5414
v  -15.2102 5.9121 -2.5414
v  -15.2102 5.9121 -5.0829
v  -15.2102 5.4604 -2.5414
v  -15.2102 5.4604 -5.0829
v  -15.8186 4.4716 -5.0829
v  -15.2102 4.4716 -5.0829
v  -15.8186 5.4604 -5.0829
v  -15.8186 5.4604 -2.5414
v  -15.8186 5.9121 -7.6243
v  -15.2102 5.9121 -7.6243
v  -15.2102 5.4604 -7.6243
v  -15.8186 4.3842 -7.6243
v  -15.2102 4.3842 -7.6243
v  -15.8186 5.4604 -7.6243
v  -15.8186 5.9121 -10.1658
v  -15.2102 5.9121 -10.1658
v  -15.2102 5.4604 -10.1658
v  -15.8186 4.1056 -10.1657
v  -15.2102 4.1056 -10.1657
v  -15.8186 5.4604 -10.1658
v  -15.8186 5.9121 -12.7072
v  -15.2102 5.9121 -12.7072
v  -15.2102 5.4604 -12.7072
v  -15.8186 3.6903 -12.7072
v  -15.2102 3.6903 -12.7072
v  -15.8186 5.4604 -12.7072
v  -15.2102 2.6672 -17.7901
v  -15.2102 2.6672 -18.8607
v  -15.8186 3.2993 -15.6275
v  -15.8186 3.9746 -12.7072
v  -15.8186 4.3561 -10.1657
v  -15.8186 4.5788 -7.6243
v  -15.8186 4.6432 -5.0829
v  -15.8186 4.6170 -2.5414
v  -15.8186 4.4421 -0.1391
v  -15.2102 4.6170 -2.5414
v  -15.2102 4.4421 -0.1391
v  -15.2102 4.6432 -5.0829
v  -15.2102 4.5788 -7.6243
v  -15.2102 4.3561 -10.1657
v  -15.2102 3.9746 -12.7072
v  -15.2102 3.2993 -15.6275
# 652 vertices

vn 0.0000 1.0000 -0.0000
vn 0.4695 0.0064 -0.8829
vn -0.0000 -1.0000 -0.0000
vn -0.4564 -0.0153 0.8897
vn 0.4698 0.0062 -0.8828
vn -0.4600 -0.0129 0.8878
vn -1.0000 -0.0000 -0.0000
vn -0.0065 0.4707 -0.8823
vn 1.0000 -0.0000 -0.0000
vn 0.0012 -0.4625 0.8866
vn -0.0059 0.4698 -0.8828
vn 1.0000 0.0000 -0.0000
vn -0.0004 -0.4600 0.8879
vn -0.7084 0.7059 -0.0003
vn 0.7040 -0.7102 -0.0006
vn 0.3830 0.1037 -0.9179
vn 0.2467 0.2502 -0.9362
vn 0.2479 0.2490 -0.9362
vn -0.1001 -0.3746 0.9218
vn -0.2407 -0.2428 0.9397
vn -0.2416 -0.2420 0.9397
vn 0.1006 0.3864 -0.9168
vn -0.3722 -0.1021 0.9225
vn 0.8829 0.0000 0.4695
vn 0.4695 -0.0001 -0.8829
vn -0.8829 -0.0000 -0.4695
vn -0.4695 0.0001 0.8829
vn 0.0000 0.8829 0.4695
vn -0.0000 0.8829 0.4695
vn -0.0000 0.4695 -0.8830
vn 0.0000 0.4695 -0.8830
vn -0.0000 -0.8829 -0.4695
vn 0.0000 -0.8829 -0.4695
vn 0.0000 -0.4695 0.8830
vn -0.0000 -0.4695 0.8830
vn -1.0000 0.0000 -0.0000
vn 0.0000 0.4706 -0.8824
vn -0.0000 -0.4594 0.8882
vn 0.0000 -1.0000 -0.0000
vn 0.4695 0.0000 -0.8829
vn -0.4583 0.0000 0.8888
vn 0.0000 0.0000 -1.0000
vn 0.0000 0.0000 1.0000
vn 0.0000 -0.2706 0.9627
vn 0.0000 -0.2149 0.9766
vn -1.0000 0.0000 0.0000
vn 0.0000 0.0624 0.9981
vn 0.0000 0.0358 0.9994
vn 0.0000 -0.0148 0.9999
vn -1.0000 -0.0000 0.0000
vn 0.0000 -0.0718 0.9974
vn 0.0000 -0.1353 0.9908
vn 0.0000 -0.2030 0.9792
vn 0.0000 0.2806 -0.9598
vn 0.0000 0.2253 -0.9743
vn -0.0000 0.1485 -0.9889
vn 0.0000 0.0873 -0.9962
vn 0.0000 0.0253 -0.9997
vn 0.0000 -0.0103 -0.9999
vn 0.0000 -0.0726 -0.9974
vn 0.0000 -0.0000 1.0000
vn -0.0000 0.0000 1.0000
vn -0.0000 -0.0000 1.0000
vn 0.0000 0.0414 0.9991
vn -0.0000 1.0000 0.0000
vn -0.4695 0.0064 -0.8829
vn 0.4564 -0.0153 0.8897
vn -0.0000 1.0000 -0.0000
vn -0.4698 0.0062 -0.8828
vn 0.4600 -0.0129 0.8878
vn 0.0065 0.4707 -0.8823
vn -0.0012 -0.4625 0.8866
vn 0.0059 0.4698 -0.8828
vn 0.0004 -0.4600 0.8879
vn 0.7084 0.7059 -0.0003
vn -0.7040 -0.7102 -0.0006
vn -0.3830 0.1037 -0.9179
vn -0.2479 0.2490 -0.9362
vn -0.2467 0.2502 -0.9362
vn 0.1001 -0.3746 0.9218
vn 0.2416 -0.2420 0.9397
vn 0.2407 -0.2428 0.9397
vn -0.1006 0.3864 -0.9168
vn 0.3722 -0.1021 0.9225
vn -0.8829 0.0000 0.4695
vn -0.4695 -0.0001 -0.8829
vn 0.8829 -0.0000 -0.4695
vn 0.4695 0.0001 0.8829
vn -0.0000 0.4706 -0.8824
vn 0.0000 -0.4594 0.8882
vn -0.4695 0.0000 -0.8829
vn 0.4583 0.0000 0.8888
vn 1.0000 0.0000 0.0000
vn 1.0000 -0.0000 0.0000
vn 0.0000 0.1485 -0.9889
vn 0.0000 1.0000 0.0000
vn 0.4695 -0.0064 -0.8829
vn -0.4564 0.0153 0.8897
vn 0.4698 -0.0062 -0.8828
vn -0.4600 0.0129 0.8878
vn -0.0065 -0.4707 -0.8823
vn 0.0012 0.4625 0.8866
vn -0.0059 -0.4698 -0.8828
vn -0.0004 0.4600 0.8879
vn -0.7084 -0.7059 -0.0003
vn 0.7040 0.7102 -0.0006
vn 0.3830 -0.1037 -0.9179
vn 0.2479 -0.2490 -0.9362
vn 0.2467 -0.2502 -0.9362
vn -0.1001 0.3746 0.9218
vn -0.2416 0.2420 0.9397
vn -0.2407 0.2428 0.9397
vn 0.1006 -0.3864 -0.9168
vn -0.3722 0.1021 0.9225
vn 0.8829 -0.0000 0.4695
vn 0.4695 0.0001 -0.8829
vn -0.8829 0.0000 -0.4695
vn -0.4695 -0.0001 0.8829
vn 0.0000 -0.8829 0.4695
vn -0.0000 -0.8829 0.4695
vn -0.0000 -0.4695 -0.8830
vn 0.0000 -0.4695 -0.8830
vn -0.0000 0.8829 -0.4695
vn 0.0000 0.8829 -0.4695
vn 0.0000 0.4695 0.8830
vn -0.0000 0.4695 0.8830
vn 0.0000 -0.4706 -0.8824
vn -0.0000 0.4594 0.8882
vn 0.0000 0.2706 0.9627
vn 0.0000 0.2149 0.9766
vn 0.0000 -0.0624 0.9981
vn 0.0000 -0.0358 0.9994
vn 0.0000 0.0148 0.9999
vn 0.0000 0.0718 0.9974
vn 0.0000 0.1353 0.9908
vn 0.0000 0.2030 0.9792
vn 0.0000 -0.2806 -0.9598
vn 0.0000 -0.2253 -0.9743
vn -0.0000 -0.1485 -0.9889
vn 0.0000 -0.0873 -0.9962
vn 0.0000 -0.0253 -0.9997
vn 0.0000 0.0103 -0.9999
vn 0.0000 0.0726 -0.9974
vn -0.0000 -1.0000 0.0000
vn -0.4695 -0.0064 -0.8829
vn 0.4564 0.0153 0.8897
vn -0.4698 -0.0062 -0.8828
vn 0.4600 0.0129 0.8878
vn 0.0065 -0.4707 -0.8823
vn -0.0012 0.4625 0.8866
vn 0.0059 -0.4698 -0.8828
vn 0.0004 0.4600 0.8879
vn 0.7084 -0.7059 -0.0003
vn -0.7040 0.7102 -0.0006
vn -0.3830 -0.1037 -0.9179
vn -0.2467 -0.2502 -0.9362
vn -0.2479 -0.2490 -0.9362
vn 0.1001 0.3746 0.9218
vn 0.2407 0.2428 0.9397
vn 0.2416 0.2420 0.9397
vn -0.1006 -0.3864 -0.9168
vn 0.3722 0.1021 0.9225
vn -0.8829 -0.0000 0.4695
vn -0.4695 0.0001 -0.8829
vn 0.8829 0.0000 -0.4695
vn 0.4695 -0.0001 0.8829
vn -0.0000 -0.4706 -0.8824
vn 0.0000 0.4594 0.8882
vn 0.0000 -0.1485 -0.9889
vn 0.0000 -1.0000 0.0000
# 170 vertex normals

vt 0.4406 0.1411 0.0000
vt 0.4347 0.1521 0.0000
vt 0.4347 0.0166 0.0000
vt 0.4425 0.0206 0.0000
vt 0.4711 0.1529 0.0000
vt 0.4586 0.1525 0.0000
vt 0.4631 0.0020 0.0000
vt 0.4751 0.0174 0.0000
vt 0.4552 0.0057 0.0000
vt 0.4531 0.1413 0.0000
vt 0.0131 0.0116 0.0000
vt 0.0020 0.0059 0.0000
vt 0.2825 0.0020 0.0000
vt 0.2781 0.0109 0.0000
vt 0.0020 0.0424 0.0000
vt 0.0021 0.0299 0.0000
vt 0.2977 0.0323 0.0000
vt 0.2825 0.0447 0.0000
vt 0.2932 0.0234 0.0000
vt 0.0131 0.0241 0.0000
vt 0.5024 0.1402 0.0000
vt 0.4968 0.1514 0.0000
vt 0.4940 0.0020 0.0000
vt 0.5011 0.0061 0.0000
vt 0.4843 0.1516 0.0000
vt 0.4818 0.0164 0.0000
vt 0.5138 0.0201 0.0000
vt 0.5208 0.0159 0.0000
vt 0.5208 0.1511 0.0000
vt 0.5149 0.1401 0.0000
vt 0.9653 0.5736 0.0000
vt 0.9536 0.5693 0.0000
vt 0.9541 0.0243 0.0000
vt 0.9601 0.0078 0.0000
vt 0.9448 0.5693 0.0000
vt 0.9331 0.5737 0.0000
vt 0.9351 0.0077 0.0000
vt 0.9413 0.0242 0.0000
vt 0.9286 0.5737 0.0000
vt 0.9286 0.0021 0.0000
vt 0.9492 0.5693 0.0000
vt 0.9477 0.0186 0.0000
vt 0.9666 0.0020 0.0000
vt 0.9698 0.5736 0.0000
vt 0.9081 0.1645 0.0000
vt 0.9009 0.0029 0.0000
vt 0.9142 0.0020 0.0000
vt 0.9212 0.1617 0.0000
vt 0.8693 0.1612 0.0000
vt 0.8628 0.0063 0.0000
vt 0.8755 0.0052 0.0000
vt 0.8819 0.1665 0.0000
vt 0.8880 0.0044 0.0000
vt 0.8953 0.1695 0.0000
vt 0.9159 0.6806 0.0000
vt 0.9026 0.6804 0.0000
vt 0.8760 0.6800 0.0000
vt 0.8628 0.6798 0.0000
vt 0.8893 0.6802 0.0000
vt 0.0131 0.7986 0.0000
vt 0.0020 0.7929 0.0000
vt 0.4269 0.7875 0.0000
vt 0.4212 0.7986 0.0000
vt 0.4212 0.8111 0.0000
vt 0.4269 0.8222 0.0000
vt 0.0020 0.8168 0.0000
vt 0.0131 0.8111 0.0000
vt 0.0020 0.8406 0.0000
vt 0.0020 0.8281 0.0000
vt 0.4270 0.8281 0.0000
vt 0.4270 0.8406 0.0000
vt 0.0020 0.9303 0.0000
vt 0.0077 0.9192 0.0000
vt 0.4168 0.9181 0.0000
vt 0.4280 0.9238 0.0000
vt 0.0077 0.9067 0.0000
vt 0.0020 0.8956 0.0000
vt 0.4279 0.8999 0.0000
vt 0.4168 0.9056 0.0000
vt 0.0021 0.8831 0.0000
vt 0.4280 0.8874 0.0000
vt 0.6414 0.8264 0.0000
vt 0.6289 0.8264 0.0000
vt 0.6289 0.5012 0.0000
vt 0.6414 0.5012 0.0000
vt 0.5914 0.8264 0.0000
vt 0.5664 0.8264 0.0000
vt 0.5664 0.5012 0.0000
vt 0.5727 0.4950 0.0000
vt 0.5852 0.4950 0.0000
vt 0.5914 0.5012 0.0000
vt 0.6039 0.8264 0.0000
vt 0.6039 0.5012 0.0000
vt 0.6102 0.4950 0.0000
vt 0.6227 0.4950 0.0000
vt 0.8561 0.7095 0.0000
vt 0.8436 0.7095 0.0000
vt 0.8436 0.0145 0.0000
vt 0.8561 0.0020 0.0000
vt 0.7811 0.7095 0.0000
vt 0.7311 0.7095 0.0000
vt 0.7311 0.0020 0.0000
vt 0.7811 0.0020 0.0000
vt 0.7936 0.7095 0.0000
vt 0.7936 0.0145 0.0000
vt 0.4847 0.7983 0.0000
vt 0.4347 0.7983 0.0000
vt 0.4347 0.4108 0.0000
vt 0.4847 0.4108 0.0000
vt 0.5472 0.7858 0.0000
vt 0.5472 0.4108 0.0000
vt 0.5597 0.4108 0.0000
vt 0.5597 0.7983 0.0000
vt 0.4972 0.4108 0.0000
vt 0.4972 0.7858 0.0000
vt 0.0239 0.8464 0.0000
vt 0.0705 0.8464 0.0000
vt 0.0705 0.8589 0.0000
vt 0.0239 0.8589 0.0000
vt 0.3710 0.7059 0.0000
vt 0.3705 0.7143 0.0000
vt 0.3255 0.7248 0.0000
vt 0.3258 0.7181 0.0000
vt 0.3226 0.7784 0.0000
vt 0.3231 0.7692 0.0000
vt 0.3674 0.7716 0.0000
vt 0.3669 0.7808 0.0000
vt 0.0020 0.8464 0.0000
vt 0.0020 0.8589 0.0000
vt 0.3894 0.7727 0.0000
vt 0.3925 0.7154 0.0000
vt 0.3889 0.7820 0.0000
vt 0.3906 0.8589 0.0000
vt 0.3906 0.8464 0.0000
vt 0.3934 0.8464 0.0000
vt 0.3934 0.8589 0.0000
vt 0.0020 0.7611 0.0000
vt 0.0025 0.7519 0.0000
vt 0.0053 0.7520 0.0000
vt 0.0048 0.7613 0.0000
vt 0.3413 0.8589 0.0000
vt 0.3413 0.8464 0.0000
vt 0.0066 0.7281 0.0000
vt 0.0064 0.7311 0.0000
vt 0.0036 0.7311 0.0000
vt 0.0037 0.7281 0.0000
vt 0.2892 0.8464 0.0000
vt 0.2892 0.8589 0.0000
vt 0.0541 0.7640 0.0000
vt 0.0546 0.7547 0.0000
vt 0.1067 0.7575 0.0000
vt 0.1062 0.7668 0.0000
vt 0.1078 0.7372 0.0000
vt 0.1076 0.7407 0.0000
vt 0.0555 0.7374 0.0000
vt 0.0557 0.7342 0.0000
vt 0.2371 0.8464 0.0000
vt 0.2371 0.8589 0.0000
vt 0.1589 0.7603 0.0000
vt 0.1584 0.7696 0.0000
vt 0.1601 0.7382 0.0000
vt 0.1598 0.7422 0.0000
vt 0.1848 0.8464 0.0000
vt 0.1848 0.8589 0.0000
vt 0.2110 0.7631 0.0000
vt 0.2105 0.7724 0.0000
vt 0.2125 0.7353 0.0000
vt 0.2122 0.7405 0.0000
vt 0.1321 0.8464 0.0000
vt 0.1321 0.8589 0.0000
vt 0.2631 0.7659 0.0000
vt 0.2626 0.7752 0.0000
vt 0.2651 0.7296 0.0000
vt 0.2648 0.7355 0.0000
vt 0.3929 0.7071 0.0000
vt 0.3155 0.0677 0.0000
vt 0.3155 0.0770 0.0000
vt 0.3030 0.0770 0.0000
vt 0.3030 0.0677 0.0000
vt 0.3030 0.0103 0.0000
vt 0.3155 0.0103 0.0000
vt 0.3030 0.0020 0.0000
vt 0.3155 0.0020 0.0000
vt 0.3679 0.8772 0.0000
vt 0.3217 0.8772 0.0000
vt 0.3217 0.8647 0.0000
vt 0.3679 0.8647 0.0000
vt 0.2603 0.8772 0.0000
vt 0.2603 0.8647 0.0000
vt 0.2077 0.8772 0.0000
vt 0.2077 0.8647 0.0000
vt 0.1554 0.8772 0.0000
vt 0.1554 0.8647 0.0000
vt 0.1034 0.8772 0.0000
vt 0.1034 0.8647 0.0000
vt 0.0513 0.8772 0.0000
vt 0.0513 0.8647 0.0000
vt 0.0020 0.8772 0.0000
vt 0.0020 0.8647 0.0000
vt 0.5413 0.0020 0.0000
vt 0.5413 0.0593 0.0000
vt 0.5288 0.0593 0.0000
vt 0.5288 0.0020 0.0000
vt 0.3218 0.0020 0.0000
vt 0.3343 0.0020 0.0000
vt 0.3343 0.0229 0.0000
vt 0.3218 0.0229 0.0000
# 207 texture coords

o Components
g Components
usemtl Material__48
s off
f 205/99/82 206/100/82 207/101/82 208/102/82 
f 206/103/83 209/104/83 210/105/83 207/106/83 
f 211/107/84 210/105/84 209/104/84 212/108/84 
f 212/108/85 205/99/85 208/102/85 211/107/85 
f 213/109/82 214/110/82 215/111/82 216/112/82 
f 214/113/86 217/114/86 218/115/86 215/116/86 
f 219/117/84 218/115/84 217/114/84 220/118/84 
f 220/118/87 213/109/87 216/112/87 219/117/87 
f 221/119/88 222/120/88 223/121/88 224/122/88 
f 222/120/89 225/123/89 226/124/89 223/121/89 
f 227/125/90 226/126/90 225/127/90 228/128/90 
f 228/128/91 221/119/91 224/122/91 227/125/91 
f 229/117/88 230/115/88 231/114/88 232/118/88 
f 230/115/92 233/116/92 234/113/92 231/114/92 
f 235/109/93 234/110/93 233/111/93 236/112/93 
f 236/112/94 229/117/94 232/118/94 235/109/94 
f 237/129/95 238/130/95 239/131/95 240/132/95 
f 241/133/96 242/134/96 243/135/96 244/136/96 
f 242/134/97 245/137/98 246/138/99 243/135/97 
f 239/131/100 238/130/100 247/139/101 248/140/102 
f 246/141/99 245/142/98 237/129/103 240/132/103 
f 248/140/102 247/139/101 241/133/104 244/136/104 
f 249/143/105 250/144/105 251/145/105 252/146/105 
f 252/147/106 251/148/106 253/149/106 254/150/106 
f 254/150/107 253/149/107 255/151/107 256/152/107 
f 256/152/108 255/151/108 250/144/108 249/143/108 
f 257/153/109 258/154/109 249/143/110 252/146/110 
f 259/155/111 257/156/111 252/147/112 254/150/112 
f 260/157/113 259/155/113 254/150/114 256/152/114 
f 258/154/115 260/157/115 256/152/116 249/143/116 
f 261/158/117 262/159/117 263/160/117 264/161/117 
f 265/162/90 266/163/90 267/164/90 268/165/90 
f 262/166/118 267/167/118 266/168/118 263/169/118 
f 268/165/119 261/158/119 264/161/119 265/162/119 
f 269/158/117 270/159/117 271/160/117 272/161/117 
f 273/162/90 274/163/90 275/164/90 276/165/90 
f 270/166/118 275/167/118 274/168/118 271/169/118 
f 276/165/119 269/158/119 272/161/119 273/162/119 
f 277/158/117 278/159/117 279/160/117 280/161/117 
f 281/162/90 282/163/90 283/164/90 284/165/90 
f 278/166/118 283/167/118 282/168/118 279/169/118 
f 284/165/119 277/158/119 280/161/119 281/162/119 
f 242/170/82 241/171/82 285/172/82 286/173/82 
f 287/174/120 288/175/120 289/176/120 290/177/120 
f 288/175/121 242/178/121 286/179/121 289/176/121 
f 285/172/122 241/171/122 287/174/122 290/177/122 
f 291/180/82 292/181/82 238/182/82 237/183/82 
f 293/184/123 291/185/123 237/186/123 242/187/123 288/188/123 294/189/123 
f 295/190/120 293/184/120 294/189/120 296/191/120 
f 292/181/124 295/190/124 296/191/124 287/192/124 241/193/124 238/182/124 
f 297/194/124 298/195/124 299/196/124 300/197/124 
f 301/198/82 297/199/82 300/200/82 302/201/82 
f 303/202/123 301/198/123 302/201/123 304/203/123 
f 299/196/120 298/195/120 303/202/120 304/203/120 
f 302/204/93 300/205/93 305/206/93 306/207/93 
f 299/208/124 307/209/124 305/210/124 300/211/124 
f 308/212/117 307/209/117 299/208/117 304/213/117 
f 306/207/123 308/212/123 304/213/123 302/204/123 
f 309/214/123 310/215/123 311/216/123 312/217/123 
f 309/218/93 313/219/93 314/220/93 310/221/93 
f 315/216/125 316/217/126 317/214/126 318/215/125 
f 311/222/117 319/223/88 320/224/117 312/225/117 
f 283/226/123 309/214/123 312/217/123 278/227/123 
f 321/228/93 322/224/93 313/219/93 323/229/93 
f 316/217/126 324/227/124 325/226/124 317/214/126 
f 312/225/117 320/224/117 326/228/117 278/230/117 
f 327/231/123 328/232/123 329/233/123 330/234/123 
f 330/235/127 331/236/127 332/237/127 327/238/127 
f 333/232/128 334/231/128 335/239/129 336/240/129 
f 328/241/93 337/242/93 338/243/93 329/244/93 
f 339/245/123 340/240/123 341/239/123 342/246/123 
f 341/247/117 343/248/117 344/249/127 342/250/127 
f 335/239/129 345/246/130 346/245/130 336/240/129 
f 339/251/93 347/252/93 348/253/93 340/254/93 
f 349/255/123 339/245/123 342/246/123 350/256/123 
f 342/250/127 344/249/127 351/257/127 350/258/131 
f 345/246/130 352/256/132 353/255/132 346/245/130 
f 349/259/93 354/260/93 347/252/93 339/251/93 
f 355/261/123 349/255/123 350/256/123 356/262/123 
f 350/258/131 351/257/127 357/263/131 356/264/131 
f 352/256/132 358/262/133 359/261/133 353/255/132 
f 355/265/93 360/266/93 354/260/93 349/259/93 
f 361/267/123 355/261/123 356/262/123 362/268/123 
f 356/264/131 357/263/131 363/269/88 362/270/88 
f 358/262/133 364/268/134 365/267/134 359/261/133 
f 361/271/93 366/272/93 360/266/93 355/265/93 
f 310/215/123 361/267/123 362/268/123 311/216/123 
f 362/270/88 363/269/88 319/223/88 311/222/117 
f 364/268/134 315/216/125 318/215/125 365/267/134 
f 310/221/93 314/220/93 366/272/93 361/271/93 
f 323/229/93 313/219/93 309/218/93 283/273/93 
f 326/228/117 320/224/117 367/219/117 368/229/117 
f 323/274/82 283/275/82 278/276/82 326/277/82 
f 368/278/82 321/279/82 323/274/82 326/277/82 
f 325/280/82 324/281/82 321/279/82 368/278/82 
f 316/225/93 322/224/93 321/228/93 324/230/93 
f 369/223/93 322/224/93 316/225/93 315/222/93 
f 370/269/93 369/223/93 315/222/93 364/270/93 
f 371/263/93 370/269/93 364/270/93 358/264/93 
f 372/257/93 371/263/93 358/264/93 352/258/93 
f 373/249/93 372/257/93 352/258/93 345/250/93 
f 374/248/93 373/249/93 345/250/93 335/247/93 
f 334/238/93 375/237/93 374/248/93 335/247/93 
f 376/253/117 377/242/117 333/241/117 336/254/117 
f 378/252/127 376/253/117 336/254/117 346/251/127 
f 379/260/127 378/252/127 346/251/127 353/259/127 
f 380/266/117 379/260/127 353/259/127 359/265/117 
f 381/272/117 380/266/117 359/265/117 365/271/117 
f 382/220/117 381/272/117 365/271/117 318/221/117 
f 367/219/117 382/220/117 318/221/117 317/218/117 
f 368/229/117 367/219/117 317/218/117 325/273/117 
f 322/282/135 369/283/135 382/284/135 367/285/135 
f 369/283/136 370/286/136 381/287/136 382/284/136 
f 370/286/137 371/288/137 380/289/137 381/287/137 
f 371/288/138 372/290/138 379/291/138 380/289/138 
f 372/290/139 373/292/139 378/293/139 379/291/139 
f 373/292/140 374/294/140 376/295/140 378/293/140 
f 374/294/141 375/296/141 377/297/141 376/295/141 
f 348/295/124 347/293/124 344/292/124 343/294/124 
f 347/293/124 354/291/124 351/290/124 344/292/124 
f 354/291/142 360/289/142 357/288/142 351/290/142 
f 360/289/143 366/287/143 363/286/143 357/288/143 
f 366/287/144 314/284/144 319/283/144 363/286/144 
f 314/284/124 313/285/124 320/282/124 319/283/124 
f 313/298/120 322/299/120 367/300/120 320/301/120 
f 340/254/93 348/253/93 337/242/93 328/241/93 
f 332/296/124 337/297/124 348/295/124 343/294/124 
f 327/238/127 332/237/127 343/248/117 341/247/117 
f 340/240/123 328/232/123 327/231/123 341/239/123 
f 383/235/93 384/236/93 375/237/93 334/238/93 
f 333/241/117 377/242/117 385/243/117 386/244/117 
f 383/234/145 334/231/128 333/232/128 386/233/145 
f 332/237/117 331/236/117 385/243/117 377/242/117 
f 338/243/93 337/242/93 375/237/93 384/236/93 
f 337/302/146 332/303/146 377/304/146 375/305/146 
f 387/99/82 388/102/82 389/101/82 390/100/82 
f 390/103/147 389/106/147 391/105/147 392/104/147 
f 393/107/120 394/108/120 392/104/120 391/105/120 
f 394/108/148 393/107/148 388/102/148 387/99/148 
f 395/109/149 396/112/149 397/111/149 398/110/149 
f 398/113/150 397/116/150 399/115/150 400/114/150 
f 401/117/120 402/118/120 400/114/120 399/115/120 
f 402/118/151 401/117/151 396/112/151 395/109/151 
f 403/119/90 404/122/90 405/121/90 406/120/90 
f 406/120/152 405/121/152 407/124/152 408/123/152 
f 409/125/88 410/128/88 408/127/88 407/126/88 
f 410/128/153 409/125/153 404/122/153 403/119/153 
f 411/117/90 412/118/90 413/114/90 414/115/90 
f 414/115/154 413/114/154 415/113/154 416/116/154 
f 417/109/117 418/112/117 416/111/117 415/110/117 
f 418/112/155 417/109/155 412/118/155 411/117/155 
f 419/129/156 420/132/156 421/131/156 422/130/156 
f 423/133/157 424/136/157 425/135/157 426/134/157 
f 426/134/158 425/135/158 427/138/159 428/137/160 
f 421/131/161 429/140/162 430/139/163 422/130/161 
f 427/141/159 420/132/164 419/129/164 428/142/160 
f 429/140/162 424/136/165 423/133/165 430/139/163 
f 431/143/166 432/146/166 433/145/166 434/144/166 
f 432/147/167 435/150/167 436/149/167 433/148/167 
f 435/150/168 437/152/168 438/151/168 436/149/168 
f 437/152/169 431/143/169 434/144/169 438/151/169 
f 257/153/109 432/146/109 431/143/109 258/154/109 
f 259/155/111 435/150/111 432/147/111 257/156/111 
f 260/157/113 437/152/113 435/150/113 259/155/113 
f 258/154/115 431/143/115 437/152/115 260/157/115 
f 439/158/93 440/161/93 441/160/93 442/159/93 
f 443/162/88 444/165/88 445/164/88 446/163/88 
f 442/166/170 441/169/170 446/168/170 445/167/170 
f 444/165/171 443/162/171 440/161/171 439/158/171 
f 447/158/93 448/161/93 449/160/93 450/159/93 
f 451/162/88 452/165/88 453/164/88 454/163/88 
f 450/166/170 449/169/170 454/168/170 453/167/170 
f 452/165/171 451/162/171 448/161/171 447/158/171 
f 455/158/93 456/161/93 457/160/93 458/159/93 
f 459/162/88 460/165/88 461/164/88 462/163/88 
f 458/166/170 457/169/170 462/168/170 461/167/170 
f 460/165/171 459/162/171 456/161/171 455/158/171 
f 426/170/82 463/173/82 464/172/82 423/171/82 
f 465/174/120 466/177/120 467/176/120 468/175/120 
f 468/175/172 467/176/172 463/179/172 426/178/172 
f 464/172/173 466/177/173 465/174/173 423/171/173 
f 291/180/82 419/183/82 422/182/82 292/181/82 
f 293/184/123 469/189/123 468/188/123 426/187/123 419/186/123 291/185/123 
f 295/190/120 470/191/120 469/189/120 293/184/120 
f 292/181/124 422/182/124 423/193/124 465/192/124 470/191/124 295/190/124 
f 297/194/124 471/197/124 472/196/124 298/195/124 
f 301/198/82 473/201/82 471/200/82 297/199/82 
f 303/202/123 474/203/123 473/201/123 301/198/123 
f 472/196/120 474/203/120 303/202/120 298/195/120 
f 473/204/117 475/207/117 476/206/117 471/205/117 
f 472/208/124 471/211/124 476/210/124 477/209/124 
f 478/212/93 474/213/93 472/208/93 477/209/93 
f 475/207/123 473/204/123 474/213/123 478/212/123 
f 479/214/123 480/217/123 481/216/123 482/215/123 
f 479/218/117 482/221/117 483/220/117 484/219/117 
f 485/216/125 486/215/125 487/214/126 488/217/126 
f 481/222/93 480/225/93 489/224/93 490/223/90 
f 461/226/123 458/227/123 480/217/123 479/214/123 
f 491/228/117 492/229/117 484/219/117 493/224/117 
f 488/217/126 487/214/126 494/226/124 495/227/124 
f 480/225/93 458/230/93 496/228/93 489/224/93 
f 497/231/123 498/234/123 499/233/123 500/232/123 
f 498/235/174 497/238/174 501/237/174 502/236/174 
f 503/232/128 504/240/129 505/239/129 506/231/128 
f 500/241/117 499/244/117 507/243/117 508/242/117 
f 509/245/123 510/246/123 511/239/123 512/240/123 
f 511/247/93 510/250/174 513/249/174 514/248/93 
f 505/239/129 504/240/129 515/245/130 516/246/130 
f 509/251/117 512/254/117 517/253/117 518/252/117 
f 519/255/123 520/256/123 510/246/123 509/245/123 
f 510/250/174 520/258/175 521/257/174 513/249/174 
f 516/246/130 515/245/130 522/255/132 523/256/132 
f 519/259/117 509/251/117 518/252/117 524/260/117 
f 525/261/123 526/262/123 520/256/123 519/255/123 
f 520/258/175 526/264/175 527/263/175 521/257/174 
f 523/256/132 522/255/132 528/261/133 529/262/133 
f 525/265/117 519/259/117 524/260/117 530/266/117 
f 531/267/123 532/268/123 526/262/123 525/261/123 
f 526/264/175 532/270/90 533/269/90 527/263/175 
f 529/262/133 528/261/133 534/267/134 535/268/134 
f 531/271/117 525/265/117 530/266/117 536/272/117 
f 482/215/123 481/216/123 532/268/123 531/267/123 
f 532/270/90 481/222/93 490/223/90 533/269/90 
f 535/268/134 534/267/134 486/215/125 485/216/125 
f 482/221/117 531/271/117 536/272/117 483/220/117 
f 492/229/117 461/273/117 479/218/117 484/219/117 
f 496/228/93 537/229/93 538/219/93 489/224/93 
f 492/274/82 496/277/82 458/276/82 461/275/82 
f 537/278/82 496/277/82 492/274/82 491/279/82 
f 494/280/82 537/278/82 491/279/82 495/281/82 
f 488/225/117 495/230/117 491/228/117 493/224/117 
f 539/223/117 485/222/117 488/225/117 493/224/117 
f 540/269/117 535/270/117 485/222/117 539/223/117 
f 541/263/117 529/264/117 535/270/117 540/269/117 
f 542/257/117 523/258/117 529/264/117 541/263/117 
f 543/249/117 516/250/117 523/258/117 542/257/117 
f 544/248/117 505/247/117 516/250/117 543/249/117 
f 506/238/117 505/247/117 544/248/117 545/237/117 
f 546/253/93 504/254/93 503/241/93 547/242/93 
f 548/252/174 515/251/174 504/254/93 546/253/93 
f 549/260/174 522/259/174 515/251/174 548/252/174 
f 550/266/93 528/265/93 522/259/174 549/260/174 
f 551/272/93 534/271/93 528/265/93 550/266/93 
f 552/220/93 486/221/93 534/271/93 551/272/93 
f 538/219/93 487/218/93 486/221/93 552/220/93 
f 537/229/93 494/273/93 487/218/93 538/219/93 
f 493/282/135 538/285/135 552/284/135 539/283/135 
f 539/283/136 552/284/136 551/287/136 540/286/136 
f 540/286/176 551/287/176 550/289/176 541/288/176 
f 541/288/138 550/289/138 549/291/138 542/290/138 
f 542/290/139 549/291/139 548/293/139 543/292/139 
f 543/292/140 548/293/140 546/295/140 544/294/140 
f 544/294/141 546/295/141 547/297/141 545/296/141 
f 517/295/124 514/294/124 513/292/124 518/293/124 
f 518/293/124 513/292/124 521/290/124 524/291/124 
f 524/291/142 521/290/142 527/288/142 530/289/142 
f 530/289/124 527/288/124 533/286/124 536/287/124 
f 536/287/142 533/286/142 490/283/142 483/284/142 
f 483/284/124 490/283/124 489/282/124 484/285/124 
f 484/298/120 489/301/120 538/300/120 493/299/120 
f 512/254/117 500/241/117 508/242/117 517/253/117 
f 501/296/124 514/294/124 517/295/124 508/297/124 
f 497/238/174 511/247/93 514/248/93 501/237/174 
f 512/240/123 511/239/123 497/231/123 500/232/123 
f 553/235/117 506/238/117 545/237/117 554/236/117 
f 503/241/93 555/244/93 556/243/93 547/242/93 
f 553/234/145 555/233/145 503/232/128 506/231/128 
f 501/237/93 547/242/93 556/243/93 502/236/93 
f 507/243/117 554/236/117 545/237/117 508/242/117 
f 508/302/177 545/305/177 547/304/177 501/303/177 
f 557/99/120 558/102/120 559/101/120 560/100/120 
f 560/103/178 559/106/178 561/105/178 562/104/178 
f 563/107/149 564/108/149 562/104/149 561/105/149 
f 564/108/179 563/107/179 558/102/179 557/99/179 
f 565/109/120 566/112/120 567/111/120 568/110/120 
f 568/113/180 567/116/180 569/115/180 570/114/180 
f 571/117/149 572/118/149 570/114/149 569/115/149 
f 572/118/181 571/117/181 566/112/181 565/109/181 
f 573/119/117 574/122/117 575/121/117 576/120/117 
f 576/120/182 575/121/182 577/124/182 578/123/182 
f 579/125/93 580/128/93 578/127/93 577/126/93 
f 580/128/183 579/125/183 574/122/183 573/119/183 
f 581/117/117 582/118/117 583/114/117 584/115/117 
f 584/115/184 583/114/184 585/113/184 586/116/184 
f 587/109/90 588/112/90 586/111/90 585/110/90 
f 588/112/185 587/109/185 582/118/185 581/117/185 
f 294/129/186 589/132/186 590/131/186 296/130/186 
f 287/133/187 591/136/187 592/135/187 288/134/187 
f 288/134/188 592/135/188 593/138/189 594/137/190 
f 590/131/191 595/140/192 596/139/193 296/130/191 
f 593/141/189 589/132/194 294/129/194 594/142/190 
f 595/140/192 591/136/195 287/133/195 596/139/193 
f 597/143/196 598/146/196 599/145/196 600/144/196 
f 598/147/197 601/150/197 602/149/197 599/148/197 
f 601/150/198 603/152/198 604/151/198 602/149/198 
f 603/152/199 597/143/199 600/144/199 604/151/199 
f 605/153/200 598/146/201 597/143/201 606/154/200 
f 607/155/202 601/150/203 598/147/203 605/156/202 
f 608/157/204 603/152/205 601/150/205 607/155/204 
f 606/154/206 597/143/207 603/152/207 608/157/206 
f 609/158/88 610/161/88 611/160/88 612/159/88 
f 613/162/93 614/165/93 615/164/93 616/163/93 
f 612/166/208 611/169/208 616/168/208 615/167/208 
f 614/165/209 613/162/209 610/161/209 609/158/209 
f 617/158/88 618/161/88 619/160/88 620/159/88 
f 621/162/93 622/165/93 623/164/93 624/163/93 
f 620/166/208 619/169/208 624/168/208 623/167/208 
f 622/165/209 621/162/209 618/161/209 617/158/209 
f 625/158/88 626/161/88 627/160/88 628/159/88 
f 629/162/93 630/165/93 631/164/93 632/163/93 
f 628/166/208 627/169/208 632/168/208 631/167/208 
f 630/165/209 629/162/209 626/161/209 625/158/209 
f 288/170/120 289/173/120 290/172/120 287/171/120 
f 241/174/82 285/177/82 286/176/82 242/175/82 
f 242/175/121 286/176/121 289/179/121 288/178/121 
f 290/172/122 285/177/122 241/174/122 287/171/122 
f 293/180/120 294/183/120 296/182/120 295/181/120 
f 291/184/123 237/189/123 242/188/123 288/187/123 294/186/123 293/185/123 
f 292/190/82 238/191/82 237/189/82 291/184/82 
f 295/181/124 296/182/124 287/193/124 241/192/124 238/191/124 292/190/124 
f 633/194/124 634/197/124 635/196/124 636/195/124 
f 637/198/120 638/201/120 634/200/120 633/199/120 
f 639/202/123 640/203/123 638/201/123 637/198/123 
f 635/196/82 640/203/82 639/202/82 636/195/82 
f 638/204/93 306/207/93 305/206/93 634/205/93 
f 635/208/124 634/211/124 305/210/124 307/209/124 
f 308/212/117 640/213/117 635/208/117 307/209/117 
f 306/207/123 638/204/123 640/213/123 308/212/123 
f 641/214/123 642/217/123 643/216/123 644/215/123 
f 641/218/93 644/221/93 645/220/93 646/219/93 
f 647/216/210 648/215/210 649/214/211 650/217/211 
f 643/222/88 642/225/88 651/224/88 652/223/117 
f 631/226/123 628/227/123 642/217/123 641/214/123 
f 653/228/93 654/229/93 646/219/93 655/224/93 
f 650/217/211 649/214/211 656/226/124 657/227/124 
f 642/225/88 628/230/117 658/228/117 651/224/88 
f 659/231/123 330/234/123 329/233/123 660/232/123 
f 330/235/127 659/238/127 661/237/127 331/236/127 
f 662/232/212 663/240/213 664/239/213 665/231/212 
f 660/241/93 329/244/93 338/243/93 666/242/93 
f 667/245/123 668/246/123 669/239/123 670/240/123 
f 669/247/117 668/250/131 671/249/131 672/248/117 
f 664/239/213 663/240/213 673/245/214 674/246/214 
f 667/251/93 670/254/93 675/253/93 676/252/93 
f 677/255/123 678/256/123 668/246/123 667/245/123 
f 668/250/131 678/258/127 679/257/131 671/249/131 
f 674/246/214 673/245/214 680/255/215 681/256/215 
f 677/259/93 667/251/93 676/252/93 682/260/93 
f 683/261/123 684/262/123 678/256/123 677/255/123 
f 678/258/127 684/264/127 685/263/127 679/257/131 
f 681/256/215 680/255/215 686/261/216 687/262/216 
f 683/265/93 677/259/93 682/260/93 688/266/93 
f 689/267/123 690/268/123 684/262/123 683/261/123 
f 684/264/127 690/270/117 691/269/117 685/263/127 
f 687/262/216 686/261/216 692/267/217 693/268/217 
f 689/271/93 683/265/93 688/266/93 694/272/93 
f 644/215/123 643/216/123 690/268/123 689/267/123 
f 690/270/117 643/222/88 652/223/117 691/269/117 
f 693/268/217 692/267/217 648/215/210 647/216/210 
f 644/221/93 689/271/93 694/272/93 645/220/93 
f 654/229/93 631/273/93 641/218/93 646/219/93 
f 658/228/117 695/229/117 696/219/117 651/224/88 
f 654/274/120 658/277/120 628/276/120 631/275/120 
f 695/278/120 658/277/120 654/274/120 653/279/120 
f 656/280/120 695/278/120 653/279/120 657/281/120 
f 650/225/93 657/230/93 653/228/93 655/224/93 
f 697/223/93 647/222/93 650/225/93 655/224/93 
f 698/269/93 693/270/93 647/222/93 697/223/93 
f 699/263/93 687/264/93 693/270/93 698/269/93 
f 700/257/93 681/258/93 687/264/93 699/263/93 
f 701/249/93 674/250/93 681/258/93 700/257/93 
f 702/248/93 664/247/93 674/250/93 701/249/93 
f 665/238/93 664/247/93 702/248/93 703/237/93 
f 704/253/117 663/254/117 662/241/117 705/242/117 
f 706/252/127 673/251/127 663/254/117 704/253/117 
f 707/260/127 680/259/127 673/251/127 706/252/127 
f 708/266/117 686/265/117 680/259/127 707/260/127 
f 709/272/117 692/271/117 686/265/117 708/266/117 
f 710/220/117 648/221/117 692/271/117 709/272/117 
f 696/219/117 649/218/117 648/221/117 710/220/117 
f 695/229/117 656/273/117 649/218/117 696/219/117 
f 655/282/218 696/285/218 710/284/218 697/283/218 
f 697/283/219 710/284/219 709/287/219 698/286/219 
f 698/286/220 709/287/220 708/289/220 699/288/220 
f 699/288/221 708/289/221 707/291/221 700/290/221 
f 700/290/222 707/291/222 706/293/222 701/292/222 
f 701/292/223 706/293/223 704/295/223 702/294/223 
f 702/294/224 704/295/224 705/297/224 703/296/224 
f 675/295/124 672/294/124 671/292/124 676/293/124 
f 676/293/142 671/292/142 679/290/142 682/291/142 
f 682/291/124 679/290/124 685/288/124 688/289/124 
f 688/289/144 685/288/144 691/286/144 694/287/144 
f 694/287/143 691/286/143 652/283/143 645/284/143 
f 645/284/124 652/283/124 651/282/124 646/285/124 
f 646/298/82 651/301/82 696/300/82 655/299/82 
f 670/254/93 660/241/93 666/242/93 675/253/93 
f 661/296/124 672/294/124 675/295/124 666/297/124 
f 659/238/127 669/247/117 672/248/117 661/237/127 
f 670/240/123 669/239/123 659/231/123 660/232/123 
f 383/235/93 665/238/93 703/237/93 384/236/93 
f 662/241/117 386/244/117 385/243/117 705/242/117 
f 383/234/145 386/233/145 662/232/212 665/231/212 
f 661/237/117 705/242/117 385/243/117 331/236/117 
f 338/243/93 384/236/93 703/237/93 666/242/93 
f 666/302/225 703/305/225 705/304/225 661/303/225 
f 711/99/120 712/100/120 713/101/120 714/102/120 
f 712/103/226 715/104/226 716/105/226 713/106/226 
f 717/107/82 716/105/82 715/104/82 718/108/82 
f 718/108/227 711/99/227 714/102/227 717/107/227 
f 719/109/84 720/110/84 721/111/84 722/112/84 
f 720/113/228 723/114/228 724/115/228 721/116/228 
f 725/117/82 724/115/82 723/114/82 726/118/82 
f 726/118/229 719/109/229 722/112/229 725/117/229 
f 727/119/93 728/120/93 729/121/93 730/122/93 
f 728/120/230 731/123/230 732/124/230 729/121/230 
f 733/125/117 732/126/117 731/127/117 734/128/117 
f 734/128/231 727/119/231 730/122/231 733/125/231 
f 735/117/93 736/115/93 737/114/93 738/118/93 
f 736/115/232 739/116/232 740/113/232 737/114/232 
f 741/109/88 740/110/88 739/111/88 742/112/88 
f 742/112/233 735/117/233 738/118/233 741/109/233 
f 469/129/234 470/130/234 743/131/234 744/132/234 
f 465/133/235 468/134/235 745/135/235 746/136/235 
f 468/134/236 747/137/237 748/138/238 745/135/236 
f 743/131/239 470/130/239 749/139/240 750/140/241 
f 748/141/238 747/142/237 469/129/242 744/132/242 
f 750/140/241 749/139/240 465/133/243 746/136/243 
f 751/143/244 752/144/244 753/145/244 754/146/244 
f 754/147/245 753/148/245 755/149/245 756/150/245 
f 756/150/246 755/149/246 757/151/246 758/152/246 
f 758/152/247 757/151/247 752/144/247 751/143/247 
f 605/153/200 606/154/200 751/143/200 754/146/200 
f 607/155/202 605/156/202 754/147/202 756/150/202 
f 608/157/204 607/155/204 756/150/204 758/152/204 
f 606/154/206 608/157/206 758/152/206 751/143/206 
f 759/158/90 760/159/90 761/160/90 762/161/90 
f 763/162/117 764/163/117 765/164/117 766/165/117 
f 760/166/248 765/167/248 764/168/248 761/169/248 
f 766/165/249 759/158/249 762/161/249 763/162/249 
f 767/158/90 768/159/90 769/160/90 770/161/90 
f 771/162/117 772/163/117 773/164/117 774/165/117 
f 768/166/248 773/167/248 772/168/248 769/169/248 
f 774/165/249 767/158/249 770/161/249 771/162/249 
f 775/158/90 776/159/90 777/160/90 778/161/90 
f 779/162/117 780/163/117 781/164/117 782/165/117 
f 776/166/248 781/167/248 780/168/248 777/169/248 
f 782/165/249 775/158/249 778/161/249 779/162/249 
f 468/170/120 465/171/120 466/172/120 467/173/120 
f 423/174/82 426/175/82 463/176/82 464/177/82 
f 426/175/172 468/178/172 467/179/172 463/176/172 
f 466/172/173 465/171/173 423/174/173 464/177/173 
f 293/180/120 295/181/120 470/182/120 469/183/120 
f 291/184/123 293/185/123 469/186/123 468/187/123 426/188/123 419/189/123 
f 292/190/82 291/184/82 419/189/82 422/191/82 
f 295/181/124 292/190/124 422/191/124 423/192/124 465/193/124 470/182/124 
f 633/194/124 636/195/124 783/196/124 784/197/124 
f 637/198/120 633/199/120 784/200/120 785/201/120 
f 639/202/123 637/198/123 785/201/123 786/203/123 
f 783/196/82 636/195/82 639/202/82 786/203/82 
f 785/204/117 784/205/117 476/206/117 475/207/117 
f 783/208/124 477/209/124 476/210/124 784/211/124 
f 478/212/93 477/209/93 783/208/93 786/213/93 
f 475/207/123 478/212/123 786/213/123 785/204/123 
f 787/214/123 788/215/123 789/216/123 790/217/123 
f 787/218/117 791/219/117 792/220/117 788/221/117 
f 793/216/210 794/217/211 795/214/211 796/215/210 
f 789/222/90 797/223/93 798/224/90 790/225/90 
f 781/226/123 787/214/123 790/217/123 776/227/123 
f 799/228/117 800/224/117 791/219/117 801/229/117 
f 794/217/211 802/227/124 803/226/124 795/214/211 
f 790/225/90 798/224/90 804/228/93 776/230/93 
f 805/231/123 806/232/123 499/233/123 498/234/123 
f 498/235/174 502/236/174 807/237/174 805/238/174 
f 808/232/212 809/231/212 810/239/213 811/240/213 
f 806/241/117 812/242/117 507/243/117 499/244/117 
f 813/245/123 814/240/123 815/239/123 816/246/123 
f 815/247/93 817/248/93 818/249/175 816/250/175 
f 810/239/213 819/246/214 820/245/214 811/240/213 
f 813/251/117 821/252/117 822/253/117 814/254/117 
f 823/255/123 813/245/123 816/246/123 824/256/123 
f 816/250/175 818/249/175 825/257/175 824/258/174 
f 819/246/214 826/256/215 827/255/215 820/245/214 
f 823/259/117 828/260/117 821/252/117 813/251/117 
f 829/261/123 823/255/123 824/256/123 830/262/123 
f 824/258/174 825/257/175 831/263/174 830/264/174 
f 826/256/215 832/262/216 833/261/216 827/255/215 
f 829/265/117 834/266/117 828/260/117 823/259/117 
f 835/267/123 829/261/123 830/262/123 836/268/123 
f 830/264/174 831/263/174 837/269/93 836/270/93 
f 832/262/216 838/268/217 839/267/217 833/261/216 
f 835/271/117 840/272/117 834/266/117 829/265/117 
f 788/215/123 835/267/123 836/268/123 789/216/123 
f 836/270/93 837/269/93 797/223/93 789/222/90 
f 838/268/217 793/216/210 796/215/210 839/267/217 
f 788/221/117 792/220/117 840/272/117 835/271/117 
f 801/229/117 791/219/117 787/218/117 781/273/117 
f 804/228/93 798/224/90 841/219/93 842/229/93 
f 801/274/120 781/275/120 776/276/120 804/277/120 
f 842/278/120 799/279/120 801/274/120 804/277/120 
f 803/280/120 802/281/120 799/279/120 842/278/120 
f 794/225/117 800/224/117 799/228/117 802/230/117 
f 843/223/117 800/224/117 794/225/117 793/222/117 
f 844/269/117 843/223/117 793/222/117 838/270/117 
f 845/263/117 844/269/117 838/270/117 832/264/117 
f 846/257/117 845/263/117 832/264/117 826/258/117 
f 847/249/117 846/257/117 826/258/117 819/250/117 
f 848/248/117 847/249/117 819/250/117 810/247/117 
f 809/238/117 849/237/117 848/248/117 810/247/117 
f 850/253/93 851/242/93 808/241/93 811/254/93 
f 852/252/174 850/253/93 811/254/93 820/251/174 
f 853/260/174 852/252/174 820/251/174 827/259/174 
f 854/266/93 853/260/174 827/259/174 833/265/93 
f 855/272/93 854/266/93 833/265/93 839/271/93 
f 856/220/93 855/272/93 839/271/93 796/221/93 
f 841/219/93 856/220/93 796/221/93 795/218/93 
f 842/229/93 841/219/93 795/218/93 803/273/93 
f 800/282/218 843/283/218 856/284/218 841/285/218 
f 843/283/219 844/286/219 855/287/219 856/284/219 
f 844/286/250 845/288/250 854/289/250 855/287/250 
f 845/288/221 846/290/221 853/291/221 854/289/221 
f 846/290/222 847/292/222 852/293/222 853/291/222 
f 847/292/223 848/294/223 850/295/223 852/293/223 
f 848/294/224 849/296/224 851/297/224 850/295/224 
f 822/295/124 821/293/124 818/292/124 817/294/124 
f 821/293/142 828/291/142 825/290/142 818/292/142 
f 828/291/124 834/289/124 831/288/124 825/290/124 
f 834/289/142 840/287/142 837/286/142 831/288/142 
f 840/287/124 792/284/124 797/283/124 837/286/124 
f 792/284/124 791/285/124 798/282/124 797/283/124 
f 791/298/82 800/299/82 841/300/82 798/301/82 
f 814/254/117 822/253/117 812/242/117 806/241/117 
f 807/296/124 812/297/124 822/295/124 817/294/124 
f 805/238/174 807/237/174 817/248/93 815/247/93 
f 814/240/123 806/232/123 805/231/123 815/239/123 
f 553/235/117 554/236/117 849/237/117 809/238/117 
f 808/241/93 851/242/93 556/243/93 555/244/93 
f 553/234/145 809/231/212 808/232/212 555/233/145 
f 807/237/93 502/236/93 556/243/93 851/242/93 
f 507/243/117 812/242/117 849/237/117 554/236/117 
f 812/302/251 807/303/251 851/304/251 849/305/251 
# 540 polygons

