# 3ds Max Wavefront OBJ Exporter v0.99 - (c)2007 guruware
# File Created: 06.11.2025 12:32:40

mtllib LogoH.mtl

#
# object Box063
#

v  -5.8195 9.2818 -41.4437
v  -5.8097 9.2818 -42.2145
v  17.6201 9.2818 -41.8810
v  17.6103 9.2818 -41.1103
v  -5.8195 21.2589 -41.4437
v  17.6103 21.2589 -41.1103
v  17.6201 21.2589 -41.8810
v  -5.8097 21.2589 -42.2145
# 8 vertices

vn -0.5846 -0.5774 0.5691
vn -0.5699 -0.5774 -0.5855
vn 0.5846 -0.5774 -0.5691
vn 0.5699 -0.5774 0.5855
vn -0.5846 0.5774 0.5691
vn 0.5699 0.5774 0.5855
vn 0.5846 0.5774 -0.5691
vn -0.5699 0.5774 -0.5855
# 8 vertex normals

vt 1.0000 0.0000 0.0000
vt 1.0000 1.0000 0.0000
vt 0.0000 1.0000 0.0000
vt 0.0000 0.0000 0.0000
# 4 texture coords

o Box063
g Box063
usemtl Material__176
s 2
f 1/1/1 2/2/2 3/3/3 4/4/4 
s 4
f 5/4/5 6/1/6 7/2/7 8/3/8 
s 8
f 1/4/1 4/1/4 6/2/6 5/3/5 
s 16
f 4/4/4 3/1/3 7/2/7 6/3/6 
s 32
f 3/4/3 2/1/2 8/2/8 7/3/7 
s 64
f 2/4/2 1/1/1 5/2/5 8/3/8 
# 6 polygons

