# 3ds Max Wavefront OBJ Exporter v0.99 - (c)2007 guruware
# File Created: 06.11.2025 10:26:40

mtllib Logo.mtl

#
# object Box064
#

v  -40.2495 4.1274 -56.9544
v  -40.2448 4.1274 -57.5140
v  -28.8779 4.1274 -57.2719
v  -28.8826 4.1274 -56.7123
v  -40.2495 20.7768 -56.9544
v  -28.8826 20.7768 -56.7123
v  -28.8779 20.7768 -57.2719
v  -40.2448 20.7768 -57.5140
# 8 vertices

vn -0.5821 -0.5774 0.5650
vn -0.5723 -0.5774 -0.5896
vn 0.5821 -0.5774 -0.5650
vn 0.5723 -0.5774 0.5896
vn -0.5821 0.5774 0.5650
vn 0.5723 0.5774 0.5896
vn 0.5821 0.5774 -0.5650
vn -0.5723 0.5774 -0.5896
# 8 vertex normals

vt 1.0000 0.0000 0.0000
vt 1.0000 1.0000 0.0000
vt 0.0000 1.0000 0.0000
vt 0.0000 0.0000 0.0000
# 4 texture coords

o Box064
g Box064
usemtl Material__175
s 2
f 1/1/1 2/2/2 3/3/3 4/4/4 
s 4
f 5/4/5 6/1/6 7/2/7 8/3/8 
s 8
f 1/4/1 4/1/4 6/2/6 5/3/5 
s 16
f 4/4/4 3/1/3 7/2/7 6/3/6 
s 32
f 3/4/3 2/1/2 8/2/8 7/3/7 
s 64
f 2/4/2 1/1/1 5/2/5 8/3/8 
# 6 polygons

