# 3ds Max Wavefront OBJ Exporter v0.99 - (c)2007 guruware
# File Created: 05.11.2025 08:47:27

mtllib Pintura8.mtl

#
# object Box058
#

v  -67.1587 7.7606 44.1016
v  -66.5455 7.7606 44.1099
v  -66.8108 7.7606 63.8130
v  -67.4241 7.7606 63.8048
v  -67.1587 21.0272 44.1016
v  -67.4241 21.0272 63.8048
v  -66.8108 21.0272 63.8130
v  -66.5455 21.0272 44.1099
# 8 vertices

vn -0.5695 -0.5774 -0.5851
vn 0.5851 -0.5774 -0.5695
vn 0.5695 -0.5774 0.5851
vn -0.5851 -0.5774 0.5695
vn -0.5695 0.5774 -0.5851
vn -0.5851 0.5774 0.5695
vn 0.5695 0.5774 0.5851
vn 0.5851 0.5774 -0.5695
# 8 vertex normals

vt 1.0000 0.0000 0.0000
vt 1.0000 1.0000 0.0000
vt 0.0000 1.0000 0.0000
vt 0.0000 0.0000 0.0000
# 4 texture coords

o Box058
g Box058
usemtl Material__145
s 2
f 1/1/1 2/2/2 3/3/3 4/4/4 
s 4
f 5/4/5 6/1/6 7/2/7 8/3/8 
s 8
f 1/4/1 4/1/4 6/2/6 5/3/5 
s 16
f 4/4/4 3/1/3 7/2/7 6/3/6 
s 32
f 3/4/3 2/1/2 8/2/8 7/3/7 
s 64
f 2/4/2 1/1/1 5/2/5 8/3/8 
# 6 polygons

