# 3ds Max Wavefront OBJ Exporter v0.99 - (c)2007 guruware
# File Created: 06.11.2025 10:28:31

mtllib Pintura3P.mtl

#
# object Box060
#

v  -38.5487 5.0839 -0.9938
v  -37.7744 5.0839 -0.9834
v  -38.1094 5.0839 23.8952
v  -38.8837 5.0839 23.8847
v  -38.5487 21.8353 -0.9938
v  -38.8837 21.8353 23.8847
v  -38.1094 21.8353 23.8952
v  -37.7744 21.8353 -0.9834
# 8 vertices

vn -0.5695 -0.5774 -0.5851
vn 0.5851 -0.5774 -0.5695
vn 0.5695 -0.5774 0.5851
vn -0.5851 -0.5774 0.5695
vn -0.5695 0.5774 -0.5851
vn -0.5851 0.5774 0.5695
vn 0.5695 0.5774 0.5851
vn 0.5851 0.5774 -0.5695
# 8 vertex normals

vt 1.0000 0.0000 0.0000
vt 1.0000 1.0000 0.0000
vt 0.0000 1.0000 0.0000
vt 0.0000 0.0000 0.0000
# 4 texture coords

o Box060
g Box060
usemtl Material__147
s 2
f 1/1/1 2/2/2 3/3/3 4/4/4 
s 4
f 5/4/5 6/1/6 7/2/7 8/3/8 
s 8
f 1/4/1 4/1/4 6/2/6 5/3/5 
s 16
f 4/4/4 3/1/3 7/2/7 6/3/6 
s 32
f 3/4/3 2/1/2 8/2/8 7/3/7 
s 64
f 2/4/2 1/1/1 5/2/5 8/3/8 
# 6 polygons

