# 3ds Max Wavefront OBJ Exporter v0.99 - (c)2007 guruware
# File Created: 05.11.2025 07:34:49

mtllib Pintura6.mtl

#
# object Box053
#

v  -26.8775 13.3130 42.8864
v  -26.8775 13.3130 42.3449
v  -9.4811 13.3130 42.3449
v  -9.4811 13.3130 42.8864
v  -26.8775 25.0254 42.8864
v  -9.4811 25.0254 42.8864
v  -9.4811 25.0254 42.3449
v  -26.8775 25.0254 42.3449
v  -8.9274 13.3130 42.8864
v  -8.9274 13.3130 42.3449
v  8.4691 13.3130 42.3449
v  8.4691 13.3130 42.8864
v  -8.9274 25.0254 42.8864
v  8.4691 25.0254 42.8864
v  8.4691 25.0254 42.3449
v  -8.9274 25.0254 42.3449
v  -26.8774 1.1432 42.8864
v  -26.8774 1.1432 42.3449
v  -9.4810 1.1432 42.3449
v  -9.4810 1.1432 42.8864
v  -26.8774 12.8556 42.8864
v  -9.4810 12.8556 42.8864
v  -9.4810 12.8556 42.3449
v  -26.8774 12.8556 42.3449
v  -8.9274 1.1432 42.8864
v  -8.9274 1.1432 42.3449
v  8.4691 1.1432 42.3449
v  8.4691 1.1432 42.8864
v  -8.9274 12.8556 42.8864
v  8.4691 12.8556 42.8864
v  8.4691 12.8556 42.3449
v  -8.9274 12.8556 42.3449
# 32 vertices

vn -0.5774 -0.5774 0.5774
vn -0.5774 -0.5774 -0.5774
vn 0.5774 -0.5774 -0.5774
vn 0.5774 -0.5774 0.5774
vn -0.5774 0.5774 0.5774
vn 0.5774 0.5774 0.5774
vn 0.5774 0.5774 -0.5774
vn -0.5774 0.5774 -0.5774
# 8 vertex normals

vt 1.0000 0.0000 0.0000
vt 1.0000 1.0000 0.0000
vt 0.0000 1.0000 0.0000
vt 0.0000 0.0000 0.0000
# 4 texture coords

o Box053
g Box053
usemtl Material__98
s 2
f 1/1/1 2/2/2 3/3/3 4/4/4 
s 4
f 5/4/5 6/1/6 7/2/7 8/3/8 
s 8
f 1/4/1 4/1/4 6/2/6 5/3/5 
s 16
f 4/4/4 3/1/3 7/2/7 6/3/6 
s 32
f 3/4/3 2/1/2 8/2/8 7/3/7 
s 64
f 2/4/2 1/1/1 5/2/5 8/3/8 
usemtl Material__97
s 2
f 9/1/1 10/2/2 11/3/3 12/4/4 
s 4
f 13/4/5 14/1/6 15/2/7 16/3/8 
s 8
f 9/4/1 12/1/4 14/2/6 13/3/5 
s 16
f 12/4/4 11/1/3 15/2/7 14/3/6 
s 32
f 11/4/3 10/1/2 16/2/8 15/3/7 
s 64
f 10/4/2 9/1/1 13/2/5 16/3/8 
usemtl Material__100
s 2
f 17/1/1 18/2/2 19/3/3 20/4/4 
s 4
f 21/4/5 22/1/6 23/2/7 24/3/8 
s 8
f 17/4/1 20/1/4 22/2/6 21/3/5 
s 16
f 20/4/4 19/1/3 23/2/7 22/3/6 
s 32
f 19/4/3 18/1/2 24/2/8 23/3/7 
s 64
f 18/4/2 17/1/1 21/2/5 24/3/8 
usemtl Material__99
s 2
f 25/1/1 26/2/2 27/3/3 28/4/4 
s 4
f 29/4/5 30/1/6 31/2/7 32/3/8 
s 8
f 25/4/1 28/1/4 30/2/6 29/3/5 
s 16
f 28/4/4 27/1/3 31/2/7 30/3/6 
s 32
f 27/4/3 26/1/2 32/2/8 31/3/7 
s 64
f 26/4/2 25/1/1 29/2/5 32/3/8 
# 24 polygons

