# 3ds Max Wavefront OBJ Exporter v0.99 - (c)2007 guruware
# File Created: 28.10.2025 15:33:37

mtllib Pasto.mtl

#
# object Box040
#

v  -68.0026 0.0000 40.8127
v  -45.8095 0.0000 40.8127
v  -45.8095 0.0000 -70.4942
v  -68.0026 0.0000 -70.4942
v  -68.0026 -0.2395 40.8127
v  -68.0026 -0.2395 -70.4942
v  -45.8095 -0.2395 -70.4942
v  -45.8095 -0.2395 40.8127
# 8 vertices

vn 0.0000 1.0000 -0.0000
vn 0.0000 -1.0000 -0.0000
vn 0.0000 0.0000 1.0000
vn 1.0000 0.0000 -0.0000
vn 0.0000 0.0000 -1.0000
vn -1.0000 0.0000 -0.0000
# 6 vertex normals

vt -0.2580 -3.2645 1.0000
vt 1.2580 -3.2645 1.0000
vt 1.2580 4.2645 1.0000
vt -0.2580 4.2645 1.0000
vt -0.2580 -3.2645 0.0000
vt -0.2580 4.2645 0.0000
vt 1.2580 4.2645 0.0000
vt 1.2580 -3.2645 0.0000
# 8 texture coords

o Box040
g Box040
usemtl Material__63
s 2
f 1/1/1 2/2/1 3/3/1 
f 3/3/1 4/4/1 1/1/1 
s 4
f 5/5/2 6/6/2 7/7/2 
f 7/7/2 8/8/2 5/5/2 
s 8
f 1/1/3 5/5/3 8/8/3 
f 8/8/3 2/2/3 1/1/3 
s 16
f 2/2/4 8/8/4 7/7/4 
f 7/7/4 3/3/4 2/2/4 
s 32
f 3/3/5 7/7/5 6/6/5 
f 6/6/5 4/4/5 3/3/5 
s 64
f 4/4/6 6/6/6 5/5/6 
f 5/5/6 1/1/6 4/4/6 
# 12 faces

#
# object Box041
#

v  -45.7863 0.0000 -70.4172
v  -45.7863 0.0000 -58.2220
v  -22.1679 0.0000 -58.2220
v  -22.1679 0.0000 -70.4171
v  -45.7863 -0.2395 -70.4172
v  -22.1679 -0.2395 -70.4171
v  -22.1679 -0.2395 -58.2220
v  -45.7863 -0.2395 -58.2220
# 8 vertices

vn 0.0000 1.0000 -0.0000
vn 0.0000 -1.0000 -0.0000
vn -1.0000 0.0000 -0.0000
vn -0.0000 0.0000 1.0000
vn 1.0000 0.0000 0.0000
vn 0.0000 0.0000 -1.0000
# 6 vertex normals

vt 0.1745 -0.6865 0.6819
vt 0.8255 -0.6865 0.6819
vt 0.8255 1.6865 0.6819
vt 0.1745 1.6865 0.6819
vt 0.1745 -0.6865 0.3181
vt 0.1745 1.6865 0.3181
vt 0.8255 1.6865 0.3181
vt 0.8255 -0.6865 0.3181
# 8 texture coords

o Box041
g Box041
usemtl Material__63
s 2
f 9/9/7 10/10/7 11/11/7 
f 11/11/7 12/12/7 9/9/7 
s 4
f 13/13/8 14/14/8 15/15/8 
f 15/15/8 16/16/8 13/13/8 
s 8
f 9/9/9 13/13/9 16/16/9 
f 16/16/9 10/10/9 9/9/9 
s 16
f 10/10/10 16/16/10 15/15/10 
f 15/15/10 11/11/10 10/10/10 
s 32
f 11/11/11 15/15/11 14/14/11 
f 14/14/11 12/12/11 11/11/11 
s 64
f 12/12/12 14/14/12 13/13/12 
f 13/13/12 9/9/12 12/12/12 
# 12 faces

#
# object Box042
#

v  -22.1978 0.0000 -70.3773
v  -22.1978 0.0000 -66.9996
v  69.6649 0.0000 -66.9996
v  69.6649 0.0000 -70.3773
v  -22.1978 -0.2395 -70.3773
v  69.6649 -0.2395 -70.3773
v  69.6649 -0.2395 -66.9996
v  -22.1978 -0.2395 -66.9996
# 8 vertices

vn 0.0000 1.0000 -0.0000
vn 0.0000 -1.0000 -0.0000
vn -1.0000 0.0000 -0.0000
vn -0.0000 0.0000 1.0000
vn 1.0000 0.0000 0.0000
vn 0.0000 0.0000 -1.0000
# 6 vertex normals

vt 0.3856 -3.0899 0.6819
vt 0.6144 -3.0899 0.6819
vt 0.6144 4.0899 0.6819
vt 0.3856 4.0899 0.6819
vt 0.3856 -3.0899 0.3181
vt 0.3856 4.0899 0.3181
vt 0.6144 4.0899 0.3181
vt 0.6144 -3.0899 0.3181
# 8 texture coords

o Box042
g Box042
usemtl Material__63
s 2
f 17/17/13 18/18/13 19/19/13 
f 19/19/13 20/20/13 17/17/13 
s 4
f 21/21/14 22/22/14 23/23/14 
f 23/23/14 24/24/14 21/21/14 
s 8
f 17/17/15 21/21/15 24/24/15 
f 24/24/15 18/18/15 17/17/15 
s 16
f 18/18/16 24/24/16 23/23/16 
f 23/23/16 19/19/16 18/18/16 
s 32
f 19/19/17 23/23/17 22/22/17 
f 22/22/17 20/20/17 19/19/17 
s 64
f 20/20/18 22/22/18 21/21/18 
f 21/21/18 17/17/18 20/20/18 
# 12 faces

#
# object Box043
#

v  51.6552 0.0000 70.0912
v  69.0877 0.0000 70.0912
v  69.0877 0.0000 -43.0083
v  51.6552 0.0000 -43.0083
v  51.6552 -0.2395 70.0912
v  51.6552 -0.2395 -43.0083
v  69.0877 -0.2395 -43.0083
v  69.0877 -0.2395 70.0912
# 8 vertices

vn 0.0000 1.0000 -0.0000
vn 0.0000 -1.0000 -0.0000
vn 0.0000 0.0000 1.0000
vn 1.0000 0.0000 -0.0000
vn 0.0000 0.0000 -1.0000
vn -1.0000 0.0000 -0.0000
# 6 vertex normals

vt -0.2580 -3.2645 1.0000
vt 1.2580 -3.2645 1.0000
vt 1.2580 4.2645 1.0000
vt -0.2580 4.2645 1.0000
vt -0.2580 -3.2645 0.0000
vt -0.2580 4.2645 0.0000
vt 1.2580 4.2645 0.0000
vt 1.2580 -3.2645 0.0000
# 8 texture coords

o Box043
g Box043
usemtl Material__63
s 2
f 25/25/19 26/26/19 27/27/19 
f 27/27/19 28/28/19 25/25/19 
s 4
f 29/29/20 30/30/20 31/31/20 
f 31/31/20 32/32/20 29/29/20 
s 8
f 25/25/21 29/29/21 32/32/21 
f 32/32/21 26/26/21 25/25/21 
s 16
f 26/26/22 32/32/22 31/31/22 
f 31/31/22 27/27/22 26/26/22 
s 32
f 27/27/23 31/31/23 30/30/23 
f 30/30/23 28/28/23 27/27/23 
s 64
f 28/28/24 30/30/24 29/29/24 
f 29/29/24 25/25/24 28/28/24 
# 12 faces

#
# object Box044
#

v  22.6725 0.0000 56.8220
v  22.6725 0.0000 70.1239
v  51.6653 0.0000 70.1239
v  51.6653 0.0000 56.8220
v  22.6725 -0.2395 56.8220
v  51.6653 -0.2395 56.8220
v  51.6653 -0.2395 70.1239
v  22.6725 -0.2395 70.1239
# 8 vertices

vn 0.0000 1.0000 -0.0000
vn 0.0000 -1.0000 -0.0000
vn -1.0000 0.0000 -0.0000
vn -0.0000 0.0000 1.0000
vn 1.0000 0.0000 0.0000
vn 0.0000 0.0000 -1.0000
# 6 vertex normals

vt 0.1745 -0.6865 0.6819
vt 0.8255 -0.6865 0.6819
vt 0.8255 1.6865 0.6819
vt 0.1745 1.6865 0.6819
vt 0.1745 -0.6865 0.3181
vt 0.1745 1.6865 0.3181
vt 0.8255 1.6865 0.3181
vt 0.8255 -0.6865 0.3181
# 8 texture coords

o Box044
g Box044
usemtl Material__63
s 2
f 33/33/25 34/34/25 35/35/25 
f 35/35/25 36/36/25 33/33/25 
s 4
f 37/37/26 38/38/26 39/39/26 
f 39/39/26 40/40/26 37/37/26 
s 8
f 33/33/27 37/37/27 40/40/27 
f 40/40/27 34/34/27 33/33/27 
s 16
f 34/34/28 40/40/28 39/39/28 
f 39/39/28 35/35/28 34/34/28 
s 32
f 35/35/29 39/39/29 38/38/29 
f 38/38/29 36/36/29 35/35/29 
s 64
f 36/36/30 38/38/30 37/37/30 
f 37/37/30 33/33/30 36/36/30 
# 12 faces

#
# object Box045
#

v  -69.1814 0.0000 67.5196
v  -69.1814 0.0000 70.0423
v  22.6814 0.0000 70.0423
v  22.6814 0.0000 67.5196
v  -69.1814 -0.2395 67.5196
v  22.6814 -0.2395 67.5196
v  22.6814 -0.2395 70.0423
v  -69.1814 -0.2395 70.0423
# 8 vertices

vn 0.0000 1.0000 -0.0000
vn 0.0000 -1.0000 -0.0000
vn -1.0000 0.0000 -0.0000
vn -0.0000 0.0000 1.0000
vn 1.0000 0.0000 0.0000
vn 0.0000 0.0000 -1.0000
# 6 vertex normals

vt 0.3856 -3.0899 0.6819
vt 0.6144 -3.0899 0.6819
vt 0.6144 4.0899 0.6819
vt 0.3856 4.0899 0.6819
vt 0.3856 -3.0899 0.3181
vt 0.3856 4.0899 0.3181
vt 0.6144 4.0899 0.3181
vt 0.6144 -3.0899 0.3181
# 8 texture coords

o Box045
g Box045
usemtl Material__63
s 2
f 41/41/31 42/42/31 43/43/31 
f 43/43/31 44/44/31 41/41/31 
s 4
f 45/45/32 46/46/32 47/47/32 
f 47/47/32 48/48/32 45/45/32 
s 8
f 41/41/33 45/45/33 48/48/33 
f 48/48/33 42/42/33 41/41/33 
s 16
f 42/42/34 48/48/34 47/47/34 
f 47/47/34 43/43/34 42/42/34 
s 32
f 43/43/35 47/47/35 46/46/35 
f 46/46/35 44/44/35 43/43/35 
s 64
f 44/44/36 46/46/36 45/45/36 
f 45/45/36 41/41/36 44/44/36 
# 12 faces

