# 3ds Max Wavefront OBJ Exporter v0.99 - (c)2007 guruware
# File Created: 17.10.2025 13:36:40

mtllib Patio.mtl

#
# object Box022
#

v  -39.3167 0.0000 41.6000
v  22.5749 0.0000 41.6000
v  31.3791 0.0000 30.0533
v  40.1833 0.0000 18.0380
v  40.1833 0.0000 -42.8000
v  -21.5811 0.0000 -42.8000
v  -30.4641 0.0000 -30.5736
v  -39.2863 0.0000 -17.8497
v  -39.2863 -0.2837 -17.8497
v  -30.4641 -0.2837 -30.5736
v  -21.5811 -0.2837 -42.8000
v  40.1833 -0.2837 -42.8000
v  40.1833 -0.2837 18.0380
v  31.3791 -0.2837 30.0533
v  -39.3167 -0.2837 41.6000
v  22.5749 -0.2837 41.6000
# 16 vertices

vn 0.0000 1.0000 -0.0000
vn -0.0000 -1.0000 -0.0000
vn -0.0000 -1.0000 0.0000
vn 0.0000 -1.0000 0.0000
vn 0.0000 -1.0000 -0.0000
vn 0.0000 0.0000 1.0000
vn 1.0000 0.0000 -0.0000
vn 0.0000 0.0000 -1.0000
vn -1.0000 0.0000 -0.0005
vn -0.8090 0.0000 -0.5878
vn -0.8155 0.0000 -0.5788
vn -0.8218 0.0000 -0.5698
vn 0.7952 0.0000 0.6063
vn 0.8010 0.0000 0.5987
vn 0.8066 0.0000 0.5911
# 15 vertex normals

vt -1.8285 -1.8285 2.8285
vt 1.7970 -1.8285 2.8285
vt 2.3128 -1.1914 2.8285
vt 2.8285 -0.5284 2.8285
vt 2.8285 2.8285 2.8285
vt -0.7896 2.8285 2.8285
vt -1.3099 2.1539 2.8285
vt -1.8267 1.4518 2.8285
vt -1.8267 1.4518 -1.8285
vt -1.3099 2.1539 -1.8285
vt -0.7896 2.8285 -1.8285
vt 2.8285 2.8285 -1.8285
vt 2.8285 -0.5284 -1.8285
vt 2.3128 -1.1914 -1.8285
vt -1.8285 -1.8285 -1.8285
vt 1.7970 -1.8285 -1.8285
# 16 texture coords

o Box022
g Box022
usemtl Material__30
s 1
f 1/1/1 2/2/1 3/3/1 
f 3/3/1 4/4/1 5/5/1 
f 3/3/1 5/5/1 6/6/1 
f 6/6/1 7/7/1 8/8/1 
f 3/3/1 6/6/1 8/8/1 
f 1/1/1 3/3/1 8/8/1 
f 9/9/2 10/10/2 11/11/3 
f 9/9/2 11/11/3 12/12/3 
f 12/12/3 13/13/4 14/14/5 
f 9/9/2 12/12/3 14/14/5 
f 15/15/5 9/9/2 14/14/5 
f 15/15/5 14/14/5 16/16/5 
s 2
f 15/15/6 16/16/6 2/2/6 
f 2/2/6 1/1/6 15/15/6 
f 13/13/7 12/12/7 5/5/7 
f 5/5/7 4/4/7 13/13/7 
s 4
f 12/12/8 11/11/8 6/6/8 
f 6/6/8 5/5/8 12/12/8 
f 9/9/9 15/15/9 1/1/9 
f 1/1/9 8/8/9 9/9/9 
s 2
f 6/6/10 11/11/10 10/10/11 
f 10/10/11 7/7/11 6/6/10 
f 9/9/12 8/8/12 7/7/11 
f 7/7/11 10/10/11 9/9/12 
s 4
f 2/2/13 16/16/13 14/14/14 
f 14/14/14 3/3/14 2/2/13 
f 13/13/15 4/4/15 3/3/14 
f 3/3/14 14/14/14 13/13/15 
# 28 faces

